<svg width="119" height="33" viewBox="0 0 119 33" fill="none" xmlns="http://www.w3.org/2000/svg">
    <path
        d="M37.9458 13.263V13.1999C37.9458 7.54727 42.4194 2.90518 48.6064 2.90518C54.7933 2.90518 59.2035 7.48412 59.2035 13.1367V13.1999C59.2035 18.8525 54.7299 23.4946 48.5429 23.4946C42.356 23.4946 37.9458 18.9157 37.9458 13.263ZM54.6029 13.263V13.1999C54.6029 9.78937 52.0964 6.94728 48.5429 6.94728C44.9894 6.94728 42.5463 9.72622 42.5463 13.1367V13.1999C42.5463 16.6104 45.0528 19.4525 48.6064 19.4525C52.1599 19.4525 54.6029 16.6736 54.6029 13.263Z"
        fill="white" />
    <path
        d="M63.106 3.25266H67.5161V11.9368L75.6385 3.25266H80.937L72.783 11.6842L81.286 23.1473H75.9875L69.8323 14.6842L67.5161 17.0842V23.1789H63.106V3.25266Z"
        fill="white" />
    <path
        d="M83.9512 3.25266H92.1052C96.8644 3.25266 99.7516 6.06317 99.7516 10.1368V10.2C99.7516 14.8105 96.1664 17.1789 91.661 17.1789H88.3296V23.1473H83.9194V3.25266H83.9512ZM91.8514 13.2947C94.0406 13.2947 95.3415 12 95.3415 10.2947V10.2316C95.3415 8.27369 93.9772 7.23159 91.788 7.23159H88.3931V13.3263L91.8514 13.2947Z"
        fill="white" />
    <path
        d="M111.999 18.8526H102.226L101.528 15.7578L112.506 3.09473H116.218V15.2842H118.915V18.8526H116.218V23.1473H112.03V18.8526H111.999ZM111.999 15.3157V9.12629L106.7 15.3157H111.999Z"
        fill="white" />
    <path
        d="M45.5894 19.2947L38.4189 26.4L35.3096 23.3053L58.7247 6.10352e-05L61.8341 3.09479L51.586 13.2948L45.5894 19.2947Z"
        fill="white" />
    <path
        d="M11.8662 25.3264L0 13.358L11.9931 1.57913L14.7852 4.38965L13.1988 5.93701L11.9931 4.70544L3.14106 13.3896L11.8662 22.2001L13.0084 21.0949L14.5631 22.6738L11.8662 25.3264Z"
        fill="white" />
    <path
        d="M20.5908 18.0001L19.0361 16.4211L21.9868 13.5159L18.9409 10.4211L20.4956 8.87376L25.1279 13.5474L20.5908 18.0001Z"
        fill="#CECECE" />
    <path
        d="M20.4014 25.1999L8.56689 13.263L17.5776 4.42096L20.56 1.48413L32.3945 13.4525L20.4014 25.1999ZM11.708 13.2946L20.4331 22.1051L29.2535 13.4209L20.5283 4.61044L11.708 13.2946Z"
        fill="white" />
    <path
        d="M38.7401 32.842C38.5814 32.7473 38.4545 32.621 38.3593 32.4631C38.2642 32.3052 38.2324 32.1157 38.2324 31.9262V31.042C38.2324 30.8526 38.2642 30.6631 38.3593 30.5052C38.4545 30.3473 38.5814 30.221 38.7401 30.1263C38.8987 30.0315 39.0891 29.9999 39.3112 29.9999C39.5333 29.9999 39.7236 30.0315 39.8823 30.1263C40.0409 30.221 40.1678 30.3473 40.263 30.5052C40.3582 30.6631 40.3899 30.8526 40.3899 31.042V31.9262C40.3899 32.1473 40.3582 32.3052 40.263 32.4631C40.1678 32.621 40.0409 32.7473 39.8823 32.842C39.7236 32.9368 39.5333 32.9683 39.3112 32.9683C39.0891 32.9683 38.8987 32.9368 38.7401 32.842ZM39.6919 32.3368C39.7871 32.242 39.8188 32.1157 39.8188 31.9578V31.042C39.8188 30.8841 39.7871 30.7578 39.6919 30.6631C39.5967 30.5684 39.4698 30.5052 39.3112 30.5052C39.1525 30.5052 39.0256 30.5684 38.9622 30.6631C38.8987 30.7578 38.8353 30.8841 38.8353 31.042V31.9578C38.8353 32.1157 38.867 32.242 38.9622 32.3368C39.0573 32.4315 39.1843 32.4947 39.3112 32.4947C39.4381 32.4947 39.5967 32.4315 39.6919 32.3368Z"
        fill="white" />
    <path
        d="M43.1816 30.1578C43.3085 30.2209 43.4354 30.3472 43.4989 30.4736C43.5623 30.5999 43.6258 30.7578 43.6258 30.9472C43.6258 31.1367 43.594 31.263 43.4989 31.3893C43.4037 31.5157 43.3085 31.6104 43.1816 31.7051C43.0547 31.7999 42.8643 31.7999 42.7057 31.7999H42.1028C42.1028 31.7999 42.0711 31.7999 42.0711 31.8314V32.8735V32.9051L42.0394 32.9367H41.5635C41.5635 32.9367 41.5317 32.9367 41.5317 32.9051L41.5 32.8735V30.0946C41.5 30.0946 41.5 30.063 41.5317 30.063C41.5635 30.063 41.5635 30.0314 41.5635 30.0314H42.7374C42.896 30.063 43.0547 30.0946 43.1816 30.1578ZM42.9278 31.2314C42.9912 31.1683 43.0547 31.0736 43.0547 30.9472C43.0547 30.8209 43.0229 30.7262 42.9278 30.663C42.8643 30.5999 42.7374 30.5683 42.6105 30.5683H42.1028C42.1028 30.5683 42.0711 30.5683 42.0711 30.5999V31.3578C42.0711 31.3578 42.0711 31.3893 42.1028 31.3893H42.6105C42.7374 31.3578 42.8326 31.3262 42.9278 31.2314Z"
        fill="white" />
    <path
        d="M46.6405 30.5367H46.6087H45.2444C45.2444 30.5367 45.2127 30.5367 45.2127 30.5683V31.1999C45.2127 31.1999 45.2127 31.2314 45.2444 31.2314H46.1328H46.1645V31.263V31.6735V31.7051L46.1328 31.7367H45.2444C45.2444 31.7367 45.2127 31.7367 45.2127 31.7683V32.4314C45.2127 32.4314 45.2127 32.463 45.2444 32.463H46.6087C46.6087 32.463 46.6405 32.463 46.6405 32.4946C46.6405 32.5262 46.6722 32.5262 46.6722 32.5262V32.9367C46.6722 32.9367 46.6722 32.9683 46.6405 32.9683C46.6087 32.9683 46.6087 32.9999 46.6087 32.9999H44.7051C44.7051 32.9999 44.6733 32.9999 44.6733 32.9683L44.6416 32.9367V30.1578C44.6416 30.1578 44.6416 30.1262 44.6733 30.1262H44.7051H46.6087H46.6405L46.6722 30.1578V30.5683C46.6405 30.5051 46.6405 30.5367 46.6405 30.5367Z"
        fill="white" />
    <path
        d="M49.3691 30.0631H49.4008H49.8767H49.9084V30.0947V32.8737V32.9052L49.8767 32.9368H49.4008C49.3691 32.9368 49.3691 32.9368 49.3373 32.9052L48.2586 31.1368C48.2586 31.1368 48.2586 31.1368 48.2269 31.1368C48.2269 31.1368 48.2269 31.1368 48.2269 31.1684V32.9052C48.2269 32.9052 48.2269 32.9368 48.1951 32.9368C48.1634 32.9368 48.1634 32.9684 48.1634 32.9684H47.6875C47.6875 32.9684 47.6558 32.9684 47.6558 32.9368L47.624 32.9052V30.1263C47.624 30.1263 47.624 30.0947 47.6558 30.0947H47.6875H48.1634C48.1951 30.0947 48.1951 30.0947 48.2269 30.1263L49.3056 31.8631C49.3056 31.8631 49.3056 31.8631 49.3373 31.8631C49.3373 31.8631 49.3373 31.8631 49.3373 31.8316V30.0947C49.3691 30.1263 49.3691 30.0947 49.3691 30.0631Z"
        fill="white" />
    <path
        d="M52.6362 32.9051L52.6045 32.8735V30.0946C52.6045 30.0946 52.6045 30.063 52.6362 30.063H52.6679H53.1439H53.1756L53.2073 30.0946V31.2314C53.2073 31.2314 53.2073 31.2314 53.239 31.2314L54.1909 30.063C54.2226 30.0314 54.2226 30.0314 54.2543 30.0314H54.7937C54.8254 30.0314 54.8254 30.0314 54.8254 30.063C54.8254 30.0946 54.8254 30.0946 54.8254 30.0946L53.9053 31.263V31.2946L54.8889 32.842C54.8889 32.8735 54.8889 32.8735 54.8889 32.8735C54.8889 32.9051 54.8889 32.9051 54.8572 32.9051H54.2861C54.2543 32.9051 54.2543 32.9051 54.2226 32.8735L53.4929 31.7051C53.4929 31.7051 53.4929 31.7051 53.4611 31.7051L53.2073 32.0209V32.0525V32.8735C53.2073 32.8735 53.2073 32.9051 53.1756 32.9051C53.1439 32.9051 53.1439 32.9367 53.1439 32.9367H52.6679C52.6679 32.9367 52.6362 32.9367 52.6362 32.9051Z"
        fill="white" />
    <path
        d="M57.5234 30.0631H57.5551H58.031H58.0627V30.0947V32.8737V32.9052L58.031 32.9368H57.5551C57.5234 32.9368 57.5234 32.9368 57.4916 32.9052L56.4129 31.1368C56.4129 31.1368 56.4129 31.1368 56.3812 31.1368C56.3812 31.1368 56.3812 31.1368 56.3812 31.1684V32.9052C56.3812 32.9052 56.3812 32.9368 56.3494 32.9368C56.3177 32.9368 56.3177 32.9684 56.3177 32.9684H55.8418C55.8418 32.9684 55.8101 32.9684 55.8101 32.9368L55.7783 32.9052V30.1263C55.7783 30.1263 55.7783 30.0947 55.8101 30.0947H55.8418H56.3177C56.3494 30.0947 56.3494 30.0947 56.3812 30.1263L57.4599 31.8631C57.4599 31.8631 57.4599 31.8631 57.4916 31.8631C57.4916 31.8631 57.4916 31.8631 57.4916 31.8316V30.0947C57.5234 30.1263 57.5234 30.0947 57.5234 30.0631Z"
        fill="white" />
    <path
        d="M59.7122 32.842C59.5536 32.7473 59.4267 32.621 59.3315 32.4631C59.2363 32.3052 59.2046 32.1157 59.2046 31.9262V31.042C59.2046 30.8526 59.2363 30.6631 59.3315 30.5052C59.4267 30.3473 59.5536 30.221 59.7122 30.1263C59.8709 30.0315 60.0612 29.9999 60.2833 29.9999C60.5054 29.9999 60.6958 30.0315 60.8544 30.1263C61.0131 30.221 61.14 30.3473 61.2352 30.5052C61.3304 30.6631 61.3621 30.8526 61.3621 31.042V31.9262C61.3621 32.1473 61.3304 32.3052 61.2352 32.4631C61.14 32.621 61.0131 32.7473 60.8544 32.842C60.6958 32.9368 60.5054 32.9683 60.2833 32.9683C60.0612 32.9683 59.8709 32.9368 59.7122 32.842ZM60.6641 32.3368C60.7593 32.242 60.791 32.1157 60.791 31.9578V31.042C60.791 30.8841 60.7593 30.7578 60.6641 30.6631C60.5689 30.5684 60.442 30.5052 60.2833 30.5052C60.1247 30.5052 59.9978 30.5684 59.9343 30.6631C59.8709 30.7578 59.8074 30.8841 59.8074 31.042V31.9578C59.8074 32.1157 59.8391 32.242 59.9343 32.3368C60.0295 32.4315 60.1564 32.4947 60.2833 32.4947C60.4102 32.4947 60.5689 32.4315 60.6641 32.3368Z"
        fill="white" />
    <path
        d="M63.0125 32.9052L62.2827 30.1263V30.0947C62.2827 30.0631 62.2827 30.0631 62.3144 30.0631H62.8221C62.8538 30.0631 62.8538 30.0631 62.8855 30.0947L63.2663 31.7684V31.8C63.2663 31.8 63.2663 31.8 63.2663 31.7684L63.647 30.0947C63.647 30.0631 63.6787 30.0631 63.7105 30.0631H64.2181C64.2498 30.0631 64.2816 30.0631 64.2816 30.0947L64.694 31.7684L65.0748 30.0947C65.0748 30.0631 65.1065 30.0631 65.1382 30.0631H65.6141C65.6459 30.0631 65.6776 30.0947 65.6459 30.1263L64.9796 32.9052C64.9796 32.9368 64.9479 32.9368 64.9161 32.9368H64.4085C64.3768 32.9368 64.3768 32.9368 64.345 32.9052L63.9326 31.1368V31.1052C63.9326 31.1052 63.9326 31.1052 63.9326 31.1368L63.5518 32.9052C63.5518 32.9368 63.5201 32.9368 63.4884 32.9368H63.0442L63.0125 32.9052Z"
        fill="white" />
    <path
        d="M66.7231 32.9052L66.6914 32.8737V30.0947C66.6914 30.0947 66.6914 30.0631 66.7231 30.0631H66.7549H67.2308H67.2625L67.2942 30.0947V32.4C67.2942 32.4 67.2942 32.4316 67.326 32.4316H68.6585C68.6585 32.4316 68.6903 32.4316 68.6903 32.4631C68.6903 32.4947 68.6903 32.4947 68.6903 32.4947V32.9052V32.9368L68.6585 32.9684H66.7549C66.7549 32.9368 66.7231 32.9368 66.7231 32.9052Z"
        fill="white" />
    <path
        d="M71.7054 30.5367H71.6737H70.3094C70.3094 30.5367 70.2776 30.5367 70.2776 30.5683V31.1999C70.2776 31.1999 70.2776 31.2314 70.3094 31.2314H71.1978H71.2295V31.263V31.6735V31.7051L71.1978 31.7367H70.3094C70.3094 31.7367 70.2776 31.7367 70.2776 31.7683V32.4314C70.2776 32.4314 70.2776 32.463 70.3094 32.463H71.6737C71.6737 32.463 71.7054 32.463 71.7054 32.4946C71.7054 32.5262 71.7371 32.5262 71.7371 32.5262V32.9367C71.7371 32.9367 71.7371 32.9683 71.7054 32.9683C71.6737 32.9683 71.6737 32.9999 71.6737 32.9999H69.77C69.77 32.9999 69.7383 32.9999 69.7383 32.9683L69.7065 32.9367V30.1578C69.7065 30.1578 69.7065 30.1262 69.7383 30.1262H69.77H71.6737H71.7054L71.7371 30.1578V30.5683C71.7371 30.5051 71.7371 30.5367 71.7054 30.5367Z"
        fill="white" />
    <path
        d="M72.8164 32.9052L72.7847 32.8737V30.0947C72.7847 30.0947 72.7847 30.0631 72.8164 30.0631H72.8481H73.8634C74.0538 30.0631 74.2441 30.0947 74.4028 30.1579C74.5614 30.221 74.6883 30.3474 74.7518 30.4737C74.8153 30.6 74.8787 30.7579 74.8787 30.9158V32.0526C74.8787 32.2421 74.847 32.3684 74.7518 32.4947C74.6566 32.621 74.5614 32.7158 74.4028 32.8105C74.2441 32.9052 74.0538 32.9052 73.8634 32.9052H72.8481C72.8481 32.9368 72.8164 32.9368 72.8164 32.9052ZM73.3875 32.4316H73.8951C74.0221 32.4316 74.1172 32.4 74.2124 32.3052C74.3076 32.2105 74.3393 32.1158 74.3393 31.9579V31.0105C74.3393 30.8842 74.3076 30.7579 74.2124 30.6631C74.1172 30.5684 74.0221 30.5368 73.8951 30.5368H73.3875C73.3875 30.5368 73.3558 30.5368 73.3558 30.5684L73.3875 32.4316C73.3875 32.4316 73.3875 32.4 73.3875 32.4316Z"
        fill="white" />
    <path
        d="M76.4642 32.842C76.3055 32.7472 76.1786 32.6525 76.0835 32.4946C75.9883 32.3367 75.9565 32.1788 75.9565 31.9578V31.042C75.9565 30.8525 75.9883 30.663 76.0835 30.5051C76.1786 30.3472 76.3055 30.2209 76.4642 30.1578C76.6228 30.063 76.8132 30.0314 77.0353 30.0314C77.2574 30.0314 77.416 30.063 77.6064 30.1578C77.7968 30.2525 77.8919 30.3472 77.9871 30.5051C78.0823 30.663 78.114 30.7893 78.114 30.9788V31.0104V31.042L78.0823 31.0735H77.6064C77.6064 31.0735 77.5747 31.0735 77.5747 31.042C77.5747 31.0104 77.5429 31.0104 77.5429 31.0104C77.5429 30.8841 77.5112 30.7893 77.416 30.6946C77.3208 30.5999 77.2257 30.5683 77.067 30.5683C76.9084 30.5683 76.8132 30.6314 76.718 30.6946C76.6228 30.7578 76.5911 30.9157 76.5911 31.042V31.9893C76.5911 32.1472 76.6228 32.242 76.7497 32.3367C76.8449 32.4314 76.9718 32.463 77.1305 32.463C77.2891 32.463 77.3843 32.4314 77.4795 32.3367C77.5747 32.242 77.6064 32.1472 77.6064 32.0209V31.8314C77.6064 31.8314 77.6064 31.7999 77.5747 31.7999H77.0987C77.0987 31.7999 77.067 31.7999 77.067 31.7683C77.067 31.7367 77.067 31.7367 77.067 31.7367V31.3578V31.3262H77.0987H78.114H78.1458V31.3578V31.8946C78.1458 32.1157 78.114 32.2735 78.0189 32.4314C77.9237 32.5893 77.7968 32.7157 77.6381 32.7788C77.4795 32.8735 77.2891 32.9051 77.067 32.9051C76.8449 32.9051 76.6228 32.9367 76.4642 32.842Z"
        fill="white" />
    <path
        d="M81.1917 30.5367H81.16H79.7957C79.7957 30.5367 79.764 30.5367 79.764 30.5683V31.1999C79.764 31.1999 79.764 31.2314 79.7957 31.2314H80.6841H80.7158V31.263V31.6735V31.7051L80.6841 31.7367H79.7957C79.7957 31.7367 79.764 31.7367 79.764 31.7683V32.4314C79.764 32.4314 79.764 32.463 79.7957 32.463H81.16C81.16 32.463 81.1917 32.463 81.1917 32.4946C81.1917 32.5262 81.1917 32.5262 81.1917 32.5262V32.9367V32.9683L81.16 32.9999H79.2563C79.2563 32.9999 79.2246 32.9999 79.2246 32.9683V32.9367V30.1578V30.1262H79.2563H81.16H81.1917V30.1578V30.5683C81.1917 30.5051 81.1917 30.5367 81.1917 30.5367Z"
        fill="white" />
    <path
        d="M85.4438 30.1578C85.5707 30.2209 85.6976 30.3472 85.7611 30.4736C85.8245 30.5999 85.888 30.7578 85.888 30.9472C85.888 31.1367 85.8563 31.263 85.7611 31.3893C85.6659 31.5157 85.5707 31.6104 85.4438 31.7051C85.3169 31.7999 85.1265 31.7999 84.9679 31.7999H84.365C84.365 31.7999 84.3333 31.7999 84.3333 31.8314V32.8735V32.9051L84.3016 32.9367H83.7939C83.7939 32.9367 83.7622 32.9367 83.7622 32.9051V32.8735V30.0946V30.063L83.7939 30.0314H84.9679C85.1265 30.063 85.2852 30.0946 85.4438 30.1578ZM85.1582 31.2314C85.2217 31.1683 85.2852 31.0736 85.2852 30.9472C85.2852 30.8209 85.2534 30.7262 85.1582 30.663C85.0948 30.5999 84.9679 30.5683 84.841 30.5683H84.3333C84.3333 30.5683 84.3016 30.5683 84.3016 30.5999V31.3578C84.3016 31.3578 84.3016 31.3893 84.3333 31.3893H84.841C84.9996 31.3578 85.0948 31.3262 85.1582 31.2314Z"
        fill="white" />
    <path
        d="M88.4258 32.9051L87.9181 31.7683C87.9181 31.7683 87.9181 31.7367 87.8864 31.7367H87.5057C87.5057 31.7367 87.4739 31.7367 87.4739 31.7683V32.9051V32.9367L87.4422 32.9682H86.9663C86.9663 32.9682 86.9346 32.9683 86.9346 32.9367V32.9051V30.1262V30.0946H86.9663H88.1402C88.2989 30.0946 88.4575 30.1262 88.6162 30.1893C88.7431 30.2525 88.87 30.3788 88.9334 30.5051C88.9969 30.6314 89.0286 30.7893 89.0286 30.9472C89.0286 31.1367 88.9969 31.2946 88.9017 31.4209C88.8065 31.5472 88.6796 31.6419 88.521 31.7051C88.521 31.7051 88.4892 31.7367 88.521 31.7367L89.0921 32.9051V32.9367C89.0921 32.9683 89.0921 32.9682 89.0603 32.9682H88.5527C88.4258 32.9367 88.4258 32.9051 88.4258 32.9051ZM87.4739 30.5683V31.263C87.4739 31.263 87.474 31.2946 87.5057 31.2946H88.045C88.172 31.2946 88.2671 31.263 88.3306 31.1998C88.3941 31.1367 88.4258 31.0419 88.4258 30.9472C88.4258 30.8525 88.3941 30.7577 88.3306 30.6946C88.2671 30.6314 88.172 30.5998 88.045 30.5998L87.4739 30.5683Z"
        fill="white" />
    <path
        d="M90.5511 32.842C90.3925 32.7473 90.2656 32.621 90.1704 32.4631C90.0752 32.3052 90.0435 32.1157 90.0435 31.9262V31.042C90.0435 30.8526 90.0752 30.6631 90.1704 30.5052C90.2656 30.3473 90.3925 30.221 90.5511 30.1263C90.7097 30.0315 90.9001 29.9999 91.1222 29.9999C91.3443 29.9999 91.5347 30.0315 91.6933 30.1263C91.8519 30.221 91.9789 30.3473 92.074 30.5052C92.1692 30.6631 92.2009 30.8526 92.2009 31.042V31.9262C92.2009 32.1473 92.1692 32.3052 92.074 32.4631C91.9789 32.621 91.8519 32.7473 91.6933 32.842C91.5347 32.9368 91.3443 32.9683 91.1222 32.9683C90.9001 32.9683 90.7097 32.9368 90.5511 32.842ZM91.4712 32.3368C91.5664 32.242 91.5981 32.1157 91.5981 31.9578V31.042C91.5981 30.8841 91.5664 30.7578 91.4712 30.6631C91.376 30.5684 91.2491 30.5052 91.0905 30.5052C90.9318 30.5052 90.8049 30.5684 90.7415 30.6631C90.678 30.7578 90.6146 30.8841 90.6146 31.042V31.9578C90.6146 32.1157 90.6463 32.242 90.7415 32.3368C90.8366 32.4315 90.9636 32.4947 91.0905 32.4947C91.2174 32.4947 91.376 32.4315 91.4712 32.3368Z"
        fill="white" />
    <path
        d="M95.3108 30.0631V30.0947V30.5052V30.5368L95.2791 30.5684H94.5494C94.5494 30.5684 94.5176 30.5684 94.5176 30.6V32.9052V32.9368L94.4859 32.9684H94.01C94.01 32.9684 93.9783 32.9684 93.9783 32.9368V32.9052V30.6C93.9783 30.6 93.9783 30.5684 93.9465 30.5684H93.2168C93.2168 30.5684 93.1851 30.5684 93.1851 30.5368C93.1851 30.5052 93.1851 30.5052 93.1851 30.5052V30.0947V30.0631H93.2168H95.2791H95.3108Z"
        fill="white" />
    <path
        d="M96.7074 32.842C96.5487 32.7473 96.4218 32.621 96.3266 32.4631C96.2314 32.3052 96.1997 32.1157 96.1997 31.9262V31.042C96.1997 30.8526 96.2314 30.6631 96.3266 30.5052C96.4218 30.3473 96.5487 30.221 96.7074 30.1263C96.866 30.0315 97.0564 29.9999 97.2785 29.9999C97.5005 29.9999 97.6909 30.0315 97.8496 30.1263C98.0082 30.221 98.1351 30.3473 98.2303 30.5052C98.3255 30.6631 98.3572 30.8526 98.3572 31.042V31.9262C98.3572 32.1473 98.3255 32.3052 98.2303 32.4631C98.1351 32.621 98.0082 32.7473 97.8496 32.842C97.6909 32.9368 97.5005 32.9683 97.2785 32.9683C97.0564 32.9683 96.866 32.9368 96.7074 32.842ZM97.6275 32.3368C97.7226 32.242 97.7544 32.1157 97.7544 31.9578V31.042C97.7544 30.8841 97.7226 30.7578 97.6275 30.6631C97.5323 30.5684 97.4054 30.5052 97.2467 30.5052C97.0881 30.5052 96.9612 30.5684 96.8977 30.6631C96.8343 30.7578 96.7708 30.8841 96.7708 31.042V31.9578C96.7708 32.1157 96.8025 32.242 96.8977 32.3368C96.9929 32.4315 97.1198 32.4947 97.2467 32.4947C97.3736 32.4947 97.5323 32.4315 97.6275 32.3368Z"
        fill="white" />
    <path
        d="M99.9105 32.842C99.7518 32.7473 99.6249 32.6526 99.5297 32.4947C99.4346 32.3368 99.4028 32.1789 99.4028 31.9578V31.0105C99.4028 30.821 99.4346 30.6315 99.5297 30.4736C99.6249 30.3157 99.7518 30.221 99.9105 30.1263C100.069 30.0315 100.259 29.9999 100.482 29.9999C100.704 29.9999 100.862 30.0315 101.053 30.1263C101.243 30.221 101.338 30.3157 101.433 30.4736C101.529 30.6315 101.56 30.7894 101.56 30.9789C101.56 31.0105 101.56 31.0105 101.497 31.0105L101.021 31.042C100.989 31.042 100.989 31.0105 100.989 31.0105C100.989 30.8526 100.957 30.7578 100.862 30.6631C100.767 30.5684 100.672 30.5368 100.513 30.5368C100.355 30.5368 100.259 30.5684 100.164 30.6631C100.069 30.7578 100.037 30.8841 100.037 31.0105V31.9894C100.037 32.1157 100.069 32.242 100.164 32.3368C100.259 32.4315 100.386 32.4631 100.513 32.4631C100.64 32.4631 100.767 32.4315 100.862 32.3368C100.957 32.242 100.989 32.1473 100.989 31.9894C100.989 31.9578 100.989 31.9578 101.053 31.9578L101.529 31.9894H101.56V32.021C101.56 32.2105 101.529 32.3684 101.433 32.5262C101.338 32.6841 101.211 32.7789 101.053 32.8736C100.894 32.9368 100.704 32.9999 100.482 32.9999C100.259 32.9999 100.069 32.9368 99.9105 32.842Z"
        fill="white" />
    <path
        d="M103.084 32.842C102.926 32.7473 102.799 32.621 102.704 32.4631C102.608 32.3052 102.577 32.1157 102.577 31.9262V31.042C102.577 30.8526 102.608 30.6631 102.704 30.5052C102.799 30.3473 102.926 30.221 103.084 30.1263C103.243 30.0315 103.433 29.9999 103.655 29.9999C103.878 29.9999 104.068 30.0315 104.227 30.1263C104.385 30.221 104.512 30.3473 104.607 30.5052C104.702 30.6631 104.734 30.8526 104.734 31.042V31.9262C104.734 32.1473 104.702 32.3052 104.607 32.4631C104.512 32.621 104.385 32.7473 104.227 32.842C104.068 32.9368 103.878 32.9683 103.655 32.9683C103.433 32.9683 103.275 32.9368 103.084 32.842ZM104.036 32.3368C104.131 32.242 104.163 32.1157 104.163 31.9578V31.042C104.163 30.8841 104.131 30.7578 104.036 30.6631C103.941 30.5684 103.814 30.5052 103.655 30.5052C103.497 30.5052 103.37 30.5684 103.306 30.6631C103.243 30.7578 103.179 30.8841 103.179 31.042V31.9578C103.179 32.1157 103.211 32.242 103.306 32.3368C103.402 32.4315 103.528 32.4947 103.655 32.4947C103.782 32.4947 103.941 32.4315 104.036 32.3368Z"
        fill="white" />
    <path
        d="M105.877 32.9052V32.8737V30.0947V30.0631H105.909H106.385H106.416V30.0947V32.4C106.416 32.4 106.416 32.4316 106.448 32.4316H107.781C107.781 32.4316 107.812 32.4316 107.812 32.4631C107.812 32.4947 107.812 32.4947 107.812 32.4947V32.9052V32.9368L107.781 32.9684H105.877C105.909 32.9368 105.877 32.9368 105.877 32.9052Z"
        fill="white" />
    <path
        d="M112.348 30.5367H112.317H110.984C110.984 30.5367 110.952 30.5367 110.952 30.5683V31.1998C110.952 31.1998 110.952 31.2314 110.984 31.2314H111.873H111.904V31.263V31.6735V31.7051L111.873 31.7367H110.984C110.984 31.7367 110.952 31.7367 110.952 31.7683V32.9051V32.9367L110.921 32.9682H110.445C110.445 32.9682 110.413 32.9683 110.413 32.9367V32.9051V30.1262V30.0946H110.445H112.348H112.38V30.1262V30.5367C112.38 30.5051 112.38 30.5367 112.348 30.5367Z"
        fill="white" />
    <path
        d="M113.808 32.842C113.649 32.7473 113.522 32.621 113.427 32.4631C113.332 32.3052 113.3 32.1157 113.3 31.9262V31.042C113.3 30.8526 113.332 30.6631 113.427 30.5052C113.522 30.3473 113.649 30.221 113.808 30.1263C113.967 30.0315 114.157 29.9999 114.379 29.9999C114.601 29.9999 114.792 30.0315 114.95 30.1263C115.109 30.221 115.236 30.3473 115.331 30.5052C115.426 30.6631 115.458 30.8526 115.458 31.042V31.9262C115.458 32.1473 115.426 32.3052 115.331 32.4631C115.236 32.621 115.109 32.7473 114.95 32.842C114.792 32.9368 114.601 32.9683 114.379 32.9683C114.157 32.9683 113.967 32.9368 113.808 32.842ZM114.728 32.3368C114.823 32.242 114.855 32.1157 114.855 31.9578V31.042C114.855 30.8841 114.823 30.7578 114.728 30.6631C114.633 30.5684 114.506 30.5052 114.347 30.5052C114.189 30.5052 114.062 30.5684 113.998 30.6631C113.935 30.7578 113.871 30.8841 113.871 31.042V31.9578C113.871 32.1157 113.903 32.242 113.998 32.3368C114.093 32.4315 114.22 32.4947 114.347 32.4947C114.474 32.4947 114.633 32.4315 114.728 32.3368Z"
        fill="white" />
    <path
        d="M118.092 32.9051L117.584 31.7683C117.584 31.7683 117.584 31.7367 117.552 31.7367H117.172C117.172 31.7367 117.14 31.7367 117.14 31.7683V32.9051V32.9367L117.108 32.9682H116.632C116.632 32.9682 116.601 32.9683 116.601 32.9367V32.9051V30.1262V30.0946H116.632H117.806C117.965 30.0946 118.124 30.1262 118.282 30.1893C118.409 30.2525 118.536 30.3788 118.599 30.5051C118.663 30.6314 118.695 30.7893 118.695 30.9472C118.695 31.1367 118.663 31.2946 118.568 31.4209C118.473 31.5472 118.346 31.6419 118.187 31.7051C118.187 31.7051 118.155 31.7367 118.187 31.7367L118.758 32.9051V32.9367C118.758 32.9683 118.758 32.9682 118.726 32.9682H118.219C118.124 32.9367 118.092 32.9051 118.092 32.9051ZM117.14 30.5683V31.263C117.14 31.263 117.14 31.2946 117.172 31.2946H117.711C117.838 31.2946 117.933 31.263 117.997 31.1998C118.06 31.1367 118.092 31.0419 118.092 30.9472C118.092 30.8525 118.06 30.7577 117.997 30.6946C117.933 30.6314 117.838 30.5998 117.711 30.5998L117.14 30.5683C117.172 30.5683 117.14 30.5683 117.14 30.5683Z"
        fill="white" />
</svg>