<svg width="22" height="22" viewBox="0 0 22 22" fill="none" xmlns="http://www.w3.org/2000/svg">
<path d="M19.2025 5.55503L11.258 1.88836C11.1776 1.85113 11.09 1.83185 11.0014 1.83185C10.9127 1.83185 10.8251 1.85113 10.7447 1.88836L2.80025 5.55503C2.69417 5.60412 2.6044 5.6826 2.54157 5.78117C2.47875 5.87974 2.44551 5.99425 2.4458 6.11114V16.5C2.44551 16.6169 2.47875 16.7314 2.54157 16.83C2.6044 16.9286 2.69417 17.007 2.80025 17.0561L10.7447 20.7228C10.8251 20.76 10.9127 20.7793 11.0014 20.7793C11.09 20.7793 11.1776 20.76 11.258 20.7228L19.2025 17.0561C19.3085 17.007 19.3983 16.9286 19.4611 16.83C19.524 16.7314 19.5572 16.6169 19.5569 16.5V6.11114C19.5572 5.99425 19.524 5.87974 19.4611 5.78117C19.3983 5.6826 19.3085 5.60412 19.2025 5.55503ZM11.0014 9.10558L4.51747 6.11114L11.0014 3.11669L17.4852 6.11114L11.0014 9.10558ZM18.3347 16.1089L11.6125 19.2134V10.1689L18.3347 7.06447V16.1089Z" fill="white" fill-opacity="0.4"/>
<path d="M11.6113 19.25V10.0833L18.3335 7.02776V16.1944L11.6113 19.25Z" fill="white" fill-opacity="0.12"/>
<path d="M17.4168 6.1111L11.0002 9.16665L4.5835 6.1111L11.0002 3.05554L17.4168 6.1111Z" fill="white" fill-opacity="0.12"/>
</svg>
