<svg width="20" height="20" viewBox="0 0 20 20" fill="none" xmlns="http://www.w3.org/2000/svg">
<mask id="mask0_1685_4535" style="mask-type:alpha" maskUnits="userSpaceOnUse" x="0" y="0" width="20" height="20">
<rect width="20" height="20" fill="#D9D9D9"/>
</mask>
<g mask="url(#mask0_1685_4535)">
<path d="M9.9987 17.4583C9.84592 17.4583 9.69675 17.4375 9.5512 17.3958C9.40509 17.3542 9.26953 17.2986 9.14453 17.2292C8.57509 16.8819 7.97786 16.6181 7.35286 16.4375C6.72786 16.2569 6.08203 16.1667 5.41536 16.1667C4.83203 16.1667 4.25925 16.2431 3.69703 16.3958C3.13425 16.5486 2.59592 16.7639 2.08203 17.0417C1.79036 17.1944 1.50925 17.1875 1.2387 17.0208C0.967587 16.8542 0.832031 16.6111 0.832031 16.2917V6.25C0.832031 6.09722 0.870365 5.95139 0.947031 5.8125C1.02314 5.67361 1.13759 5.56944 1.29036 5.5C1.92925 5.16667 2.59592 4.91667 3.29036 4.75C3.98481 4.58333 4.69314 4.5 5.41536 4.5C6.22092 4.5 7.00925 4.60417 7.78036 4.8125C8.55092 5.02083 9.29036 5.33333 9.9987 5.75V15.8333C10.707 15.3889 11.4501 15.0556 12.2279 14.8333C13.0056 14.6111 13.7904 14.5 14.582 14.5C15.082 14.5 15.5718 14.5417 16.0512 14.625C16.5301 14.7083 17.0126 14.8333 17.4987 15V5C17.707 5.06944 17.912 5.14222 18.1137 5.21833C18.3148 5.295 18.5126 5.38889 18.707 5.5C18.8598 5.56944 18.9745 5.67361 19.0512 5.8125C19.1273 5.95139 19.1654 6.09722 19.1654 6.25V16.2917C19.1654 16.6111 19.0301 16.8542 18.7595 17.0208C18.4884 17.1875 18.207 17.1944 17.9154 17.0417C17.4015 16.7639 16.8631 16.5486 16.3004 16.3958C15.7381 16.2431 15.1654 16.1667 14.582 16.1667C13.9154 16.1667 13.2695 16.2569 12.6445 16.4375C12.0195 16.6181 11.4223 16.8819 10.8529 17.2292C10.7279 17.2986 10.5926 17.3542 10.447 17.3958C10.3009 17.4375 10.1515 17.4583 9.9987 17.4583Z" fill="#FF9500"/>
</g>
<path fill-rule="evenodd" clip-rule="evenodd" d="M11.906 12.9614C12.0655 13.0381 12.2146 13.0139 12.3535 12.8889L15.6868 9.88889C15.7841 9.73611 15.8327 9.63194 15.8327 9.57639V2.43056C15.8327 2.23611 15.7493 2.10417 15.5827 2.03472C15.416 1.96528 15.2632 2 15.1243 2.13889L11.791 5.47222C11.7077 5.63889 11.666 5.73611 11.666 5.76389V12.5764C11.666 12.7569 11.746 12.8853 11.906 12.9614Z" fill="#FF9500" fill-opacity="0.4"/>
</svg>
