<svg width="22" height="22" viewBox="0 0 22 22" fill="none" xmlns="http://www.w3.org/2000/svg">
<mask id="mask0_14_5912" style="mask-type:alpha" maskUnits="userSpaceOnUse" x="0" y="0" width="22" height="22">
<rect width="22" height="22" fill="#D9D9D9"/>
</mask>
<g mask="url(#mask0_14_5912)">
<path d="M10.9998 17.9209C10.8318 17.9209 10.6677 17.8979 10.5076 17.8521C10.3469 17.8063 10.1978 17.7452 10.0603 17.6688C9.43386 17.2868 8.77692 16.9965 8.08942 16.7979C7.40192 16.5993 6.6915 16.5 5.95817 16.5C5.3165 16.5 4.68645 16.584 4.068 16.7521C3.44895 16.9202 2.85678 17.157 2.2915 17.4625C1.97067 17.6306 1.66145 17.6229 1.36384 17.4396C1.06562 17.2563 0.916504 16.9889 0.916504 16.6375V5.59169C0.916504 5.42363 0.958671 5.26321 1.043 5.11044C1.12673 4.95766 1.25261 4.84308 1.42067 4.76669C2.12345 4.40002 2.85678 4.12502 3.62067 3.94169C4.38456 3.75835 5.16373 3.66669 5.95817 3.66669C6.84428 3.66669 7.71145 3.78127 8.55967 4.01044C9.40728 4.2396 10.2207 4.58335 10.9998 5.04169V16.1334C11.779 15.6445 12.5964 15.2778 13.4519 15.0334C14.3075 14.7889 15.1707 14.6667 16.0415 14.6667C16.5915 14.6667 17.1302 14.7125 17.6576 14.8042C18.1844 14.8959 18.7151 15.0334 19.2498 15.2167V4.21669C19.479 4.29308 19.7045 4.37313 19.9263 4.45685C20.1476 4.54119 20.3651 4.64446 20.579 4.76669C20.7471 4.84308 20.8733 4.95766 20.9576 5.11044C21.0413 5.26321 21.0832 5.42363 21.0832 5.59169V16.6375C21.0832 16.9889 20.9344 17.2563 20.6368 17.4396C20.3385 17.6229 20.029 17.6306 19.7082 17.4625C19.1429 17.157 18.5507 16.9202 17.9317 16.7521C17.3132 16.584 16.6832 16.5 16.0415 16.5C15.3082 16.5 14.5978 16.5993 13.9103 16.7979C13.2228 16.9965 12.5658 17.2868 11.9394 17.6688C11.8019 17.7452 11.6531 17.8063 11.493 17.8521C11.3323 17.8979 11.1679 17.9209 10.9998 17.9209Z" fill="#004073" fill-opacity="0.4"/>
</g>
<path fill-rule="evenodd" clip-rule="evenodd" d="M13.0965 12.9742C13.2719 13.0585 13.436 13.032 13.5888 12.8945L17.2554 9.59446C17.3624 9.42641 17.4159 9.31183 17.4159 9.25071V1.3903C17.4159 1.17641 17.3242 1.03127 17.1409 0.954881C16.9575 0.878493 16.7895 0.916687 16.6367 1.06946L12.97 4.73613C12.8784 4.91946 12.8325 5.02641 12.8325 5.05696V12.5507C12.8325 12.7493 12.9205 12.8905 13.0965 12.9742Z" fill="#004073" fill-opacity="0.12"/>
</svg>
