<svg width="33" height="25" viewBox="0 0 33 25" fill="none" xmlns="http://www.w3.org/2000/svg">
<path d="M11.8666 24.3273L0 12.3585L11.9936 0.579193L14.7857 3.38981L13.1993 4.93723L11.9936 3.70561L3.14117 12.3901L11.8666 21.2009L13.0089 20.0956L14.5636 21.6746L11.8666 24.3273Z" fill="#004073"/>
<path d="M20.5913 17.0007L19.0366 15.4217L21.9874 12.5163L18.9414 9.4215L20.4961 7.87408L25.1286 12.5479L20.5913 17.0007Z" fill="#CECECE"/>
<path d="M20.4033 24.2007L8.56836 12.2635L17.5794 3.42107L20.5619 0.484131L32.3968 12.4529L20.4033 24.2007ZM11.7095 12.295L20.435 21.1059L29.2557 12.4214L20.5302 3.61055L11.7095 12.295Z" fill="#004073"/>
</svg>
