<svg width="119" height="34" viewBox="0 0 119 34" fill="none" xmlns="http://www.w3.org/2000/svg">
    <path
        d="M37.9473 13.2635V13.2003C37.9473 7.54753 42.4211 2.90527 48.6082 2.90527C54.7954 2.90527 59.2057 7.48437 59.2057 13.1372V13.2003C59.2057 18.8532 54.7319 23.4954 48.5448 23.4954C42.3576 23.4954 37.9473 18.9163 37.9473 13.2635ZM54.605 13.2635V13.2003C54.605 9.78971 52.0984 6.94751 48.5448 6.94751C44.9911 6.94751 42.548 9.72655 42.548 13.1372V13.2003C42.548 16.611 45.0546 19.4532 48.6082 19.4532C52.1619 19.4532 54.605 16.6741 54.605 13.2635Z"
        fill="#004073" />
    <path
        d="M63.1094 3.25269H67.5197V11.9372L75.6423 3.25269H80.9411L72.7867 11.6845L81.2901 23.1481H75.9913L69.8359 14.6846L67.5197 17.0847V23.1796H63.1094V3.25269Z"
        fill="#004073" />
    <path
        d="M83.9556 3.25269H92.1099C96.8693 3.25269 99.7566 6.0633 99.7566 10.1371V10.2003C99.7566 14.811 96.1712 17.1795 91.6657 17.1795H88.3342V23.1481H83.9238V3.25269H83.9556ZM91.8561 13.2951C94.0454 13.2951 95.3463 12.0003 95.3463 10.295V10.2319C95.3463 8.2739 93.9819 7.23176 91.7926 7.23176H88.3976V13.3267L91.8561 13.2951Z"
        fill="#004073" />
    <path
        d="M112.004 18.8531H102.231L101.533 15.7583L112.511 3.09473H116.224V15.2846H118.921V18.8531H116.224V23.148H112.036V18.8531H112.004ZM112.004 15.3162V9.1265L106.705 15.3162H112.004Z"
        fill="#004073" />
    <path
        d="M45.5966 19.2954L38.4258 26.4009L35.3164 23.306L58.7324 0L61.8419 3.09484L51.5934 13.2952L45.5966 19.2954Z"
        fill="#004073" />
    <path
        d="M11.8666 25.3273L0 13.3585L11.9936 1.57919L14.7857 4.38981L13.1993 5.93723L11.9936 4.70561L3.14117 13.3901L11.8666 22.2009L13.0089 21.0956L14.5636 22.6746L11.8666 25.3273Z"
        fill="#004073" />
    <path
        d="M20.5913 18.0007L19.0366 16.4217L21.9874 13.5163L18.9414 10.4215L20.4961 8.87408L25.1286 13.5479L20.5913 18.0007Z"
        fill="#CECECE" />
    <path
        d="M20.4033 25.2007L8.56836 13.2635L17.5794 4.42107L20.5619 1.48413L32.3968 13.4529L20.4033 25.2007ZM11.7095 13.295L20.435 22.1059L29.2557 13.4214L20.5302 4.61055L11.7095 13.295Z"
        fill="#004073" />
    <path
        d="M38.7401 32.8433C38.5814 32.7486 38.4545 32.6222 38.3593 32.4643C38.2642 32.3064 38.2324 32.117 38.2324 31.9275V31.0432C38.2324 30.8538 38.2642 30.6643 38.3593 30.5064C38.4545 30.3485 38.5814 30.2222 38.7401 30.1274C38.8987 30.0327 39.0891 30.0011 39.3112 30.0011C39.5333 30.0011 39.7237 30.0327 39.8823 30.1274C40.041 30.2222 40.1679 30.3485 40.2631 30.5064C40.3583 30.6643 40.39 30.8538 40.39 31.0432V31.9275C40.39 32.1485 40.3583 32.3064 40.2631 32.4643C40.1679 32.6222 40.041 32.7486 39.8823 32.8433C39.7237 32.938 39.5333 32.9696 39.3112 32.9696C39.0891 32.9696 38.8987 32.938 38.7401 32.8433ZM39.692 32.338C39.7871 32.2433 39.8189 32.117 39.8189 31.9591V31.0432C39.8189 30.8853 39.7871 30.759 39.692 30.6643C39.5968 30.5695 39.4699 30.5064 39.3112 30.5064C39.1526 30.5064 39.0256 30.5695 38.9622 30.6643C38.8987 30.759 38.8353 30.8853 38.8353 31.0432V31.9591C38.8353 32.117 38.867 32.2433 38.9622 32.338C39.0574 32.4328 39.1843 32.4959 39.3112 32.4959C39.4381 32.4959 39.5968 32.4328 39.692 32.338Z"
        fill="#004073" />
    <path
        d="M43.1816 30.1589C43.3086 30.2221 43.4355 30.3484 43.4989 30.4747C43.5624 30.601 43.6258 30.7589 43.6258 30.9484C43.6258 31.1379 43.5941 31.2642 43.4989 31.3905C43.4037 31.5169 43.3086 31.6116 43.1816 31.7063C43.0547 31.8011 42.8643 31.8011 42.7057 31.8011H42.1029C42.1029 31.8011 42.0711 31.8011 42.0711 31.8327V32.8748V32.9064L42.0394 32.9379H41.5635C41.5635 32.9379 41.5317 32.9379 41.5317 32.9064L41.5 32.8748V30.0958C41.5 30.0958 41.5 30.0642 41.5317 30.0642C41.5635 30.0642 41.5635 30.0326 41.5635 30.0326H42.7374C42.8961 30.0642 43.0547 30.0958 43.1816 30.1589ZM42.9278 31.2326C42.9913 31.1695 43.0547 31.0747 43.0547 30.9484C43.0547 30.8221 43.023 30.7274 42.9278 30.6642C42.8643 30.601 42.7374 30.5695 42.6105 30.5695H42.1029C42.1029 30.5695 42.0711 30.5695 42.0711 30.601V31.359C42.0711 31.359 42.0711 31.3905 42.1029 31.3905H42.6105C42.7374 31.359 42.8326 31.3274 42.9278 31.2326Z"
        fill="#004073" />
    <path
        d="M46.6415 30.5379H46.6098H45.2454C45.2454 30.5379 45.2137 30.5379 45.2137 30.5694V31.201C45.2137 31.201 45.2137 31.2326 45.2454 31.2326H46.1338H46.1656V31.2642V31.6747V31.7063L46.1338 31.7379H45.2454C45.2454 31.7379 45.2137 31.7379 45.2137 31.7695V32.4327C45.2137 32.4327 45.2137 32.4642 45.2454 32.4642H46.6098C46.6098 32.4642 46.6415 32.4642 46.6415 32.4958C46.6415 32.5274 46.6732 32.5274 46.6732 32.5274V32.9379C46.6732 32.9379 46.6732 32.9695 46.6415 32.9695C46.6098 32.9695 46.6098 33.0011 46.6098 33.0011H44.706C44.706 33.0011 44.6743 33.0011 44.6743 32.9695L44.6426 32.9379V30.1589C44.6426 30.1589 44.6426 30.1273 44.6743 30.1273H44.706H46.6098H46.6415L46.6732 30.1589V30.5694C46.6415 30.5063 46.6415 30.5379 46.6415 30.5379Z"
        fill="#004073" />
    <path
        d="M49.3701 30.0643H49.4018H49.8778H49.9095V30.0959V32.8749V32.9065L49.8778 32.9381H49.4018C49.3701 32.9381 49.3701 32.9381 49.3384 32.9065L48.2596 31.1381C48.2596 31.1381 48.2596 31.1381 48.2278 31.1381C48.2278 31.1381 48.2278 31.1381 48.2278 31.1696V32.9065C48.2278 32.9065 48.2279 32.9381 48.1961 32.9381C48.1644 32.9381 48.1644 32.9697 48.1644 32.9697H47.6885C47.6885 32.9697 47.6567 32.9697 47.6567 32.9381L47.625 32.9065V30.1275C47.625 30.1275 47.625 30.0959 47.6567 30.0959H47.6885H48.1644C48.1961 30.0959 48.1961 30.0959 48.2278 30.1275L49.3066 31.8644C49.3066 31.8644 49.3066 31.8644 49.3384 31.8644C49.3384 31.8644 49.3384 31.8644 49.3384 31.8328V30.0959C49.3701 30.1275 49.3701 30.0959 49.3701 30.0643Z"
        fill="#004073" />
    <path
        d="M52.6372 32.9064L52.6055 32.8748V30.0958C52.6055 30.0958 52.6055 30.0642 52.6372 30.0642H52.6689H53.1449H53.1766L53.2083 30.0958V31.2326C53.2083 31.2326 53.2083 31.2326 53.24 31.2326L54.1919 30.0642C54.2236 30.0326 54.2236 30.0326 54.2554 30.0326H54.7948C54.8265 30.0326 54.8265 30.0326 54.8265 30.0642C54.8265 30.0958 54.8265 30.0958 54.8265 30.0958L53.9064 31.2642V31.2958L54.89 32.8432C54.89 32.8748 54.89 32.8748 54.89 32.8748C54.89 32.9064 54.89 32.9064 54.8582 32.9064H54.2871C54.2554 32.9064 54.2554 32.9064 54.2236 32.8748L53.4939 31.7063C53.4939 31.7063 53.4939 31.7063 53.4622 31.7063L53.2083 32.0221V32.0537V32.8748C53.2083 32.8748 53.2083 32.9064 53.1766 32.9064C53.1449 32.9064 53.1449 32.9379 53.1449 32.9379H52.6689C52.6689 32.9379 52.6372 32.9379 52.6372 32.9064Z"
        fill="#004073" />
    <path
        d="M57.5244 30.0643H57.5561H58.0321H58.0638V30.0959V32.8749V32.9065L58.0321 32.9381H57.5561C57.5244 32.9381 57.5244 32.9381 57.4927 32.9065L56.4139 31.1381C56.4139 31.1381 56.4139 31.1381 56.3822 31.1381C56.3822 31.1381 56.3822 31.1381 56.3822 31.1696V32.9065C56.3822 32.9065 56.3821 32.9381 56.3504 32.9381C56.3187 32.9381 56.3187 32.9697 56.3187 32.9697H55.8428C55.8428 32.9697 55.811 32.9697 55.811 32.9381L55.7793 32.9065V30.1275C55.7793 30.1275 55.7793 30.0959 55.811 30.0959H55.8428H56.3187C56.3504 30.0959 56.3504 30.0959 56.3822 30.1275L57.4609 31.8644C57.4609 31.8644 57.4609 31.8644 57.4927 31.8644C57.4927 31.8644 57.4927 31.8644 57.4927 31.8328V30.0959C57.5244 30.1275 57.5244 30.0959 57.5244 30.0643Z"
        fill="#004073" />
    <path
        d="M59.7127 32.8433C59.5541 32.7486 59.4272 32.6222 59.332 32.4643C59.2368 32.3064 59.2051 32.117 59.2051 31.9275V31.0432C59.2051 30.8538 59.2368 30.6643 59.332 30.5064C59.4272 30.3485 59.5541 30.2222 59.7127 30.1274C59.8714 30.0327 60.0618 30.0011 60.2839 30.0011C60.506 30.0011 60.6963 30.0327 60.855 30.1274C61.0136 30.2222 61.1405 30.3485 61.2357 30.5064C61.3309 30.6643 61.3627 30.8538 61.3627 31.0432V31.9275C61.3627 32.1485 61.3309 32.3064 61.2357 32.4643C61.1405 32.6222 61.0136 32.7486 60.855 32.8433C60.6963 32.938 60.506 32.9696 60.2839 32.9696C60.0618 32.9696 59.8714 32.938 59.7127 32.8433ZM60.6646 32.338C60.7598 32.2433 60.7915 32.117 60.7915 31.9591V31.0432C60.7915 30.8853 60.7598 30.759 60.6646 30.6643C60.5694 30.5695 60.4425 30.5064 60.2839 30.5064C60.1252 30.5064 59.9983 30.5695 59.9348 30.6643C59.8714 30.759 59.8079 30.8853 59.8079 31.0432V31.9591C59.8079 32.117 59.8397 32.2433 59.9348 32.338C60.03 32.4328 60.1569 32.4959 60.2839 32.4959C60.4108 32.4959 60.5694 32.4328 60.6646 32.338Z"
        fill="#004073" />
    <path
        d="M63.013 32.9065L62.2832 30.1275V30.0959C62.2832 30.0643 62.2832 30.0643 62.3149 30.0643H62.8226C62.8543 30.0643 62.8543 30.0643 62.8861 30.0959L63.2668 31.7697V31.8012C63.2668 31.8012 63.2668 31.8012 63.2668 31.7697L63.6476 30.0959C63.6476 30.0643 63.6793 30.0643 63.711 30.0643H64.2187C64.2504 30.0643 64.2821 30.0643 64.2821 30.0959L64.6946 31.7697L65.0754 30.0959C65.0754 30.0643 65.1071 30.0643 65.1388 30.0643H65.6147C65.6465 30.0643 65.6782 30.0959 65.6465 30.1275L64.9802 32.9065C64.9802 32.9381 64.9484 32.9381 64.9167 32.9381H64.409C64.3773 32.9381 64.3773 32.9381 64.3456 32.9065L63.9331 31.1381V31.1065C63.9331 31.1065 63.9331 31.1065 63.9331 31.1381L63.5524 32.9065C63.5524 32.9381 63.5206 32.9381 63.4889 32.9381H63.0447L63.013 32.9065Z"
        fill="#004073" />
    <path
        d="M66.7251 32.9065L66.6934 32.8749V30.0959C66.6934 30.0959 66.6934 30.0643 66.7251 30.0643H66.7568H67.2328H67.2645L67.2962 30.0959V32.4012C67.2962 32.4012 67.2962 32.4328 67.3279 32.4328H68.6606C68.6606 32.4328 68.6923 32.4328 68.6923 32.4644C68.6923 32.496 68.6923 32.496 68.6923 32.496V32.9065V32.9381L68.6606 32.9697H66.7568C66.7568 32.9381 66.7251 32.9381 66.7251 32.9065Z"
        fill="#004073" />
    <path
        d="M71.706 30.5379H71.6742H70.3099C70.3099 30.5379 70.2781 30.5379 70.2781 30.5694V31.201C70.2781 31.201 70.2782 31.2326 70.3099 31.2326H71.1983H71.23V31.2642V31.6747V31.7063L71.1983 31.7379H70.3099C70.3099 31.7379 70.2781 31.7379 70.2781 31.7695V32.4327C70.2781 32.4327 70.2782 32.4642 70.3099 32.4642H71.6742C71.6742 32.4642 71.706 32.4642 71.706 32.4958C71.706 32.5274 71.7377 32.5274 71.7377 32.5274V32.9379C71.7377 32.9379 71.7377 32.9695 71.706 32.9695C71.6742 32.9695 71.6742 33.0011 71.6742 33.0011H69.7705C69.7705 33.0011 69.7388 33.0011 69.7388 32.9695L69.707 32.9379V30.1589C69.707 30.1589 69.707 30.1273 69.7388 30.1273H69.7705H71.6742H71.706L71.7377 30.1589V30.5694C71.7377 30.5063 71.7377 30.5379 71.706 30.5379Z"
        fill="#004073" />
    <path
        d="M72.8169 32.9065L72.7852 32.8749V30.0959C72.7852 30.0959 72.7852 30.0643 72.8169 30.0643H72.8486H73.8639C74.0543 30.0643 74.2447 30.0959 74.4033 30.1591C74.562 30.2222 74.6889 30.3486 74.7524 30.4749C74.8158 30.6012 74.8793 30.7591 74.8793 30.917V32.0539C74.8793 32.2434 74.8475 32.3697 74.7524 32.496C74.6572 32.6223 74.562 32.717 74.4033 32.8118C74.2447 32.9065 74.0543 32.9065 73.8639 32.9065H72.8486C72.8486 32.9381 72.8169 32.9381 72.8169 32.9065ZM73.388 32.4328H73.8957C74.0226 32.4328 74.1178 32.4012 74.213 32.3065C74.3081 32.2118 74.3399 32.117 74.3399 31.9591V31.0117C74.3399 30.8854 74.3081 30.7591 74.213 30.6644C74.1178 30.5696 74.0226 30.538 73.8957 30.538H73.388C73.388 30.538 73.3563 30.538 73.3563 30.5696L73.388 32.4328C73.388 32.4328 73.388 32.4012 73.388 32.4328Z"
        fill="#004073" />
    <path
        d="M76.4666 32.8432C76.308 32.7485 76.1811 32.6537 76.0859 32.4958C75.9907 32.3379 75.959 32.18 75.959 31.959V31.0432C75.959 30.8537 75.9907 30.6642 76.0859 30.5063C76.1811 30.3484 76.308 30.2221 76.4666 30.1589C76.6253 30.0642 76.8157 30.0326 77.0378 30.0326C77.2599 30.0326 77.4185 30.0642 77.6089 30.1589C77.7993 30.2537 77.8945 30.3484 77.9896 30.5063C78.0848 30.6642 78.1166 30.7905 78.1166 30.98V31.0116V31.0432L78.0848 31.0747H77.6089C77.6089 31.0747 77.5772 31.0747 77.5772 31.0432C77.5772 31.0116 77.5454 31.0116 77.5454 31.0116C77.5454 30.8853 77.5137 30.7905 77.4185 30.6958C77.3233 30.601 77.2281 30.5695 77.0695 30.5695C76.9109 30.5695 76.8157 30.6326 76.7205 30.6958C76.6253 30.7589 76.5936 30.9168 76.5936 31.0432V31.9906C76.5936 32.1484 76.6253 32.2432 76.7522 32.3379C76.8474 32.4327 76.9743 32.4642 77.133 32.4642C77.2916 32.4642 77.3868 32.4327 77.482 32.3379C77.5772 32.2432 77.6089 32.1484 77.6089 32.0221V31.8327C77.6089 31.8327 77.6089 31.8011 77.5772 31.8011H77.1012C77.1012 31.8011 77.0695 31.8011 77.0695 31.7695C77.0695 31.7379 77.0695 31.7379 77.0695 31.7379V31.359V31.3274H77.1012H78.1166H78.1483V31.359V31.8958C78.1483 32.1169 78.1166 32.2748 78.0214 32.4327C77.9262 32.5906 77.7993 32.7169 77.6406 32.78C77.482 32.8748 77.2916 32.9064 77.0695 32.9064C76.8474 32.9064 76.6253 32.938 76.4666 32.8432Z"
        fill="#004073" />
    <path
        d="M81.1938 30.5379H81.162H79.7977C79.7977 30.5379 79.7659 30.5379 79.7659 30.5694V31.201C79.7659 31.201 79.766 31.2326 79.7977 31.2326H80.6861H80.7178V31.2642V31.6747V31.7063L80.6861 31.7379H79.7977C79.7977 31.7379 79.7659 31.7379 79.7659 31.7695V32.4327C79.7659 32.4327 79.766 32.4642 79.7977 32.4642H81.162C81.162 32.4642 81.1938 32.4642 81.1938 32.4958C81.1938 32.5274 81.1938 32.5274 81.1938 32.5274V32.9379V32.9695L81.162 33.0011H79.2583C79.2583 33.0011 79.2266 33.0011 79.2266 32.9695V32.9379V30.1589V30.1273H79.2583H81.162H81.1938V30.1589V30.5694C81.1938 30.5063 81.1938 30.5379 81.1938 30.5379Z"
        fill="#004073" />
    <path
        d="M85.4453 30.1589C85.5722 30.2221 85.6991 30.3484 85.7626 30.4747C85.8261 30.601 85.8895 30.7589 85.8895 30.9484C85.8895 31.1379 85.8578 31.2642 85.7626 31.3905C85.6674 31.5169 85.5722 31.6116 85.4453 31.7063C85.3184 31.8011 85.128 31.8011 84.9694 31.8011H84.3665C84.3665 31.8011 84.3348 31.8011 84.3348 31.8327V32.8748V32.9064L84.3031 32.9379H83.7954C83.7954 32.9379 83.7637 32.9379 83.7637 32.9064V32.8748V30.0958V30.0642L83.7954 30.0326H84.9694C85.128 30.0642 85.2867 30.0958 85.4453 30.1589ZM85.1597 31.2326C85.2232 31.1695 85.2867 31.0747 85.2867 30.9484C85.2867 30.8221 85.2549 30.7274 85.1597 30.6642C85.0963 30.601 84.9694 30.5695 84.8425 30.5695H84.3348C84.3348 30.5695 84.3031 30.5695 84.3031 30.601V31.359C84.3031 31.359 84.3031 31.3905 84.3348 31.3905H84.8425C85.0011 31.359 85.0963 31.3274 85.1597 31.2326Z"
        fill="#004073" />
    <path
        d="M88.4268 32.9063L87.9191 31.7694C87.9191 31.7694 87.9191 31.7379 87.8874 31.7379H87.5067C87.5067 31.7379 87.4749 31.7379 87.4749 31.7694V32.9063V32.9379L87.4432 32.9695H86.9673C86.9673 32.9695 86.9355 32.9695 86.9355 32.9379V32.9063V30.1273V30.0957H86.9673H88.1413C88.2999 30.0957 88.4585 30.1273 88.6172 30.1904C88.7441 30.2536 88.871 30.3799 88.9345 30.5062C88.9979 30.6326 89.0297 30.7905 89.0297 30.9484C89.0297 31.1378 88.9979 31.2957 88.9027 31.4221C88.8076 31.5484 88.6806 31.6431 88.522 31.7063C88.522 31.7063 88.4903 31.7379 88.522 31.7379L89.0931 32.9063V32.9379C89.0931 32.9695 89.0931 32.9695 89.0614 32.9695H88.5537C88.4268 32.9379 88.4268 32.9063 88.4268 32.9063ZM87.4749 30.5694V31.2642C87.4749 31.2642 87.4749 31.2957 87.5067 31.2957H88.0461C88.173 31.2957 88.2682 31.2642 88.3316 31.201C88.3951 31.1378 88.4268 31.0431 88.4268 30.9484C88.4268 30.8536 88.3951 30.7589 88.3316 30.6957C88.2682 30.6326 88.173 30.601 88.0461 30.601L87.4749 30.5694Z"
        fill="#004073" />
    <path
        d="M90.5526 32.8433C90.3939 32.7486 90.267 32.6222 90.1718 32.4643C90.0766 32.3064 90.0449 32.117 90.0449 31.9275V31.0432C90.0449 30.8538 90.0766 30.6643 90.1718 30.5064C90.267 30.3485 90.3939 30.2222 90.5526 30.1274C90.7112 30.0327 90.9016 30.0011 91.1237 30.0011C91.3458 30.0011 91.5362 30.0327 91.6948 30.1274C91.8535 30.2222 91.9804 30.3485 92.0756 30.5064C92.1708 30.6643 92.2025 30.8538 92.2025 31.0432V31.9275C92.2025 32.1485 92.1708 32.3064 92.0756 32.4643C91.9804 32.6222 91.8535 32.7486 91.6948 32.8433C91.5362 32.938 91.3458 32.9696 91.1237 32.9696C90.9016 32.9696 90.7112 32.938 90.5526 32.8433ZM91.4727 32.338C91.5679 32.2433 91.5996 32.117 91.5996 31.9591V31.0432C91.5996 30.8853 91.5679 30.759 91.4727 30.6643C91.3775 30.5695 91.2506 30.5064 91.092 30.5064C90.9333 30.5064 90.8064 30.5695 90.743 30.6643C90.6795 30.759 90.616 30.8853 90.616 31.0432V31.9591C90.616 32.117 90.6478 32.2433 90.743 32.338C90.8381 32.4328 90.9651 32.4959 91.092 32.4959C91.2189 32.4959 91.3775 32.4328 91.4727 32.338Z"
        fill="#004073" />
    <path
        d="M95.3133 30.0643V30.0959V30.5065V30.538L95.2816 30.5696H94.5518C94.5518 30.5696 94.5201 30.5696 94.5201 30.6012V32.9065V32.9381L94.4884 32.9697H94.0125C94.0125 32.9697 93.9807 32.9697 93.9807 32.9381V32.9065V30.6012C93.9807 30.6012 93.9807 30.5696 93.949 30.5696H93.2192C93.2192 30.5696 93.1875 30.5696 93.1875 30.538C93.1875 30.5065 93.1875 30.5065 93.1875 30.5065V30.0959V30.0643H93.2192H95.2816H95.3133Z"
        fill="#004073" />
    <path
        d="M96.7088 32.8433C96.5502 32.7486 96.4233 32.6222 96.3281 32.4643C96.2329 32.3064 96.2012 32.117 96.2012 31.9275V31.0432C96.2012 30.8538 96.2329 30.6643 96.3281 30.5064C96.4233 30.3485 96.5502 30.2222 96.7088 30.1274C96.8675 30.0327 97.0579 30.0011 97.28 30.0011C97.5021 30.0011 97.6924 30.0327 97.8511 30.1274C98.0097 30.2222 98.1366 30.3485 98.2318 30.5064C98.327 30.6643 98.3587 30.8538 98.3587 31.0432V31.9275C98.3587 32.1485 98.327 32.3064 98.2318 32.4643C98.1366 32.6222 98.0097 32.7486 97.8511 32.8433C97.6924 32.938 97.5021 32.9696 97.28 32.9696C97.0579 32.9696 96.8675 32.938 96.7088 32.8433ZM97.629 32.338C97.7242 32.2433 97.7559 32.117 97.7559 31.9591V31.0432C97.7559 30.8853 97.7242 30.759 97.629 30.6643C97.5338 30.5695 97.4069 30.5064 97.2482 30.5064C97.0896 30.5064 96.9627 30.5695 96.8992 30.6643C96.8357 30.759 96.7723 30.8853 96.7723 31.0432V31.9591C96.7723 32.117 96.804 32.2433 96.8992 32.338C96.9944 32.4328 97.1213 32.4959 97.2482 32.4959C97.3751 32.4959 97.5338 32.4328 97.629 32.338Z"
        fill="#004073" />
    <path
        d="M99.912 32.8433C99.7533 32.7486 99.6264 32.6538 99.5312 32.4959C99.436 32.338 99.4043 32.1801 99.4043 31.9591V31.0117C99.4043 30.8222 99.436 30.6327 99.5312 30.4748C99.6264 30.3169 99.7533 30.2222 99.912 30.1274C100.071 30.0327 100.261 30.0011 100.483 30.0011C100.705 30.0011 100.864 30.0327 101.054 30.1274C101.245 30.2222 101.34 30.3169 101.435 30.4748C101.53 30.6327 101.562 30.7906 101.562 30.9801C101.562 31.0117 101.562 31.0117 101.498 31.0117L101.022 31.0432C100.991 31.0432 100.991 31.0117 100.991 31.0117C100.991 30.8538 100.959 30.759 100.864 30.6643C100.769 30.5695 100.673 30.538 100.515 30.538C100.356 30.538 100.261 30.5695 100.166 30.6643C100.071 30.759 100.039 30.8853 100.039 31.0117V31.9906C100.039 32.117 100.071 32.2433 100.166 32.338C100.261 32.4328 100.388 32.4643 100.515 32.4643C100.642 32.4643 100.769 32.4328 100.864 32.338C100.959 32.2433 100.991 32.1485 100.991 31.9906C100.991 31.9591 100.991 31.9591 101.054 31.9591L101.53 31.9906H101.562V32.0222C101.562 32.2117 101.53 32.3696 101.435 32.5275C101.34 32.6854 101.213 32.7801 101.054 32.8749C100.896 32.938 100.705 33.0012 100.483 33.0012C100.261 33.0012 100.071 32.938 99.912 32.8433Z"
        fill="#004073" />
    <path
        d="M103.086 32.8433C102.927 32.7486 102.8 32.6222 102.705 32.4643C102.61 32.3064 102.578 32.117 102.578 31.9275V31.0432C102.578 30.8538 102.61 30.6643 102.705 30.5064C102.8 30.3485 102.927 30.2222 103.086 30.1274C103.244 30.0327 103.435 30.0011 103.657 30.0011C103.879 30.0011 104.069 30.0327 104.228 30.1274C104.387 30.2222 104.514 30.3485 104.609 30.5064C104.704 30.6643 104.736 30.8538 104.736 31.0432V31.9275C104.736 32.1485 104.704 32.3064 104.609 32.4643C104.514 32.6222 104.387 32.7486 104.228 32.8433C104.069 32.938 103.879 32.9696 103.657 32.9696C103.435 32.9696 103.276 32.938 103.086 32.8433ZM104.038 32.338C104.133 32.2433 104.165 32.117 104.165 31.9591V31.0432C104.165 30.8853 104.133 30.759 104.038 30.6643C103.942 30.5695 103.816 30.5064 103.657 30.5064C103.498 30.5064 103.371 30.5695 103.308 30.6643C103.244 30.759 103.181 30.8853 103.181 31.0432V31.9591C103.181 32.117 103.213 32.2433 103.308 32.338C103.403 32.4328 103.53 32.4959 103.657 32.4959C103.784 32.4959 103.942 32.4328 104.038 32.338Z"
        fill="#004073" />
    <path
        d="M105.879 32.9065V32.8749V30.0959V30.0643H105.911H106.387H106.418V30.0959V32.4012C106.418 32.4012 106.418 32.4328 106.45 32.4328H107.783C107.783 32.4328 107.814 32.4328 107.814 32.4644C107.814 32.496 107.814 32.496 107.814 32.496V32.9065V32.9381L107.783 32.9697H105.879C105.911 32.9381 105.879 32.9381 105.879 32.9065Z"
        fill="#004073" />
    <path
        d="M112.351 30.5378H112.32H110.987C110.987 30.5378 110.955 30.5378 110.955 30.5694V31.201C110.955 31.201 110.955 31.2326 110.987 31.2326H111.876H111.907V31.2642V31.6747V31.7063L111.876 31.7379H110.987C110.987 31.7379 110.955 31.7379 110.955 31.7694V32.9063V32.9379L110.924 32.9695H110.448C110.448 32.9695 110.416 32.9695 110.416 32.9379V32.9063V30.1273V30.0957H110.448H112.351H112.383V30.1273V30.5378C112.383 30.5062 112.383 30.5378 112.351 30.5378Z"
        fill="#004073" />
    <path
        d="M113.81 32.8433C113.652 32.7486 113.525 32.6222 113.43 32.4643C113.334 32.3064 113.303 32.117 113.303 31.9275V31.0432C113.303 30.8538 113.334 30.6643 113.43 30.5064C113.525 30.3485 113.652 30.2222 113.81 30.1274C113.969 30.0327 114.159 30.0011 114.382 30.0011C114.604 30.0011 114.794 30.0327 114.953 30.1274C115.111 30.2222 115.238 30.3485 115.333 30.5064C115.429 30.6643 115.46 30.8538 115.46 31.0432V31.9275C115.46 32.1485 115.429 32.3064 115.333 32.4643C115.238 32.6222 115.111 32.7486 114.953 32.8433C114.794 32.938 114.604 32.9696 114.382 32.9696C114.159 32.9696 113.969 32.938 113.81 32.8433ZM114.731 32.338C114.826 32.2433 114.857 32.117 114.857 31.9591V31.0432C114.857 30.8853 114.826 30.759 114.731 30.6643C114.635 30.5695 114.508 30.5064 114.35 30.5064C114.191 30.5064 114.064 30.5695 114.001 30.6643C113.937 30.759 113.874 30.8853 113.874 31.0432V31.9591C113.874 32.117 113.906 32.2433 114.001 32.338C114.096 32.4328 114.223 32.4959 114.35 32.4959C114.477 32.4959 114.635 32.4328 114.731 32.338Z"
        fill="#004073" />
    <path
        d="M118.095 32.9063L117.587 31.7694C117.587 31.7694 117.587 31.7379 117.555 31.7379H117.175C117.175 31.7379 117.143 31.7379 117.143 31.7694V32.9063V32.9379L117.111 32.9695H116.635C116.635 32.9695 116.604 32.9695 116.604 32.9379V32.9063V30.1273V30.0957H116.635H117.809C117.968 30.0957 118.127 30.1273 118.285 30.1904C118.412 30.2536 118.539 30.3799 118.602 30.5062C118.666 30.6326 118.698 30.7905 118.698 30.9484C118.698 31.1378 118.666 31.2957 118.571 31.4221C118.476 31.5484 118.349 31.6431 118.19 31.7063C118.19 31.7063 118.158 31.7379 118.19 31.7379L118.761 32.9063V32.9379C118.761 32.9695 118.761 32.9695 118.729 32.9695H118.222C118.127 32.9379 118.095 32.9063 118.095 32.9063ZM117.143 30.5694V31.2642C117.143 31.2642 117.143 31.2957 117.175 31.2957H117.714C117.841 31.2957 117.936 31.2642 118 31.201C118.063 31.1378 118.095 31.0431 118.095 30.9484C118.095 30.8536 118.063 30.7589 118 30.6957C117.936 30.6326 117.841 30.601 117.714 30.601L117.143 30.5694C117.175 30.5694 117.143 30.5694 117.143 30.5694Z"
        fill="#004073" />
</svg>