<svg width="33" height="25" viewBox="0 0 33 25" fill="none" xmlns="http://www.w3.org/2000/svg">
<path d="M11.8662 24.3264L0 12.358L11.9931 0.579132L14.7852 3.38965L13.1988 4.93701L11.9931 3.70544L3.14106 12.3896L11.8662 21.2001L13.0084 20.0949L14.5631 21.6738L11.8662 24.3264Z" fill="white"/>
<path d="M20.5908 17.0001L19.0361 15.4211L21.9868 12.5159L18.9409 9.42113L20.4956 7.87376L25.1279 12.5474L20.5908 17.0001Z" fill="#CECECE"/>
<path d="M20.4014 24.1999L8.56689 12.263L17.5776 3.42096L20.56 0.484131L32.3945 12.4525L20.4014 24.1999ZM11.708 12.2946L20.4331 21.1051L29.2535 12.4209L20.5283 3.61044L11.708 12.2946Z" fill="white"/>
</svg>
