<svg width="12" height="12" viewBox="0 0 12 12" fill="none" xmlns="http://www.w3.org/2000/svg">
    <g clip-path="url(#clip0_14_5557)">
        <path
            d="M6.00021 2.99442C4.3429 2.99442 2.99463 4.34295 2.99463 6.00026C2.99463 7.65757 4.3429 9.00611 6.00021 9.00611C7.65725 9.00611 9.00579 7.65783 9.00579 6.00026C9.00579 4.34269 7.65725 2.99442 6.00021 2.99442Z"
            fill="#FF9500" />
        <path
            d="M6.00002 2.11089C5.67611 2.11089 5.41357 1.84836 5.41357 1.52471V0.586448C5.41357 0.262533 5.67611 0 6.00002 0C6.32394 0 6.58647 0.262533 6.58647 0.586448V1.52471C6.58647 1.84836 6.32367 2.11089 6.00002 2.11089Z"
            fill="#FF9500" />
        <path
            d="M6.00002 9.88884C5.67611 9.88884 5.41357 10.1514 5.41357 10.4753V11.4133C5.41357 11.7375 5.67611 12 6.00002 12C6.32394 12 6.58647 11.7375 6.58647 11.4133V10.4753C6.58647 10.1514 6.32367 9.88884 6.00002 9.88884Z"
            fill="#FF9500" />
        <path
            d="M8.74971 3.25005C8.52093 3.021 8.52093 2.64978 8.74971 2.42073L9.41322 1.75722C9.64201 1.52844 10.0135 1.52844 10.2425 1.75722C10.4716 1.98627 10.4716 2.35775 10.2425 2.58654L9.57903 3.25005C9.35025 3.4791 8.97903 3.4791 8.74971 3.25005Z"
            fill="#FF9500" />
        <path
            d="M3.24996 8.75022C3.02091 8.5209 2.6497 8.5209 2.42065 8.75022L1.75714 9.41346C1.52835 9.64225 1.52809 10.014 1.75714 10.2428C1.98619 10.4716 2.35767 10.4716 2.58646 10.2428L3.24996 9.57901C3.47902 9.35022 3.47902 8.97874 3.24996 8.75022Z"
            fill="#FF9500" />
        <path
            d="M9.88867 6.00001C9.88867 5.67609 10.1512 5.41356 10.4751 5.41356H11.4134C11.7373 5.41356 11.9998 5.67609 11.9998 6.00001C11.9998 6.32392 11.7373 6.58619 11.4134 6.58619H10.4751C10.1512 6.58619 9.88867 6.32392 9.88867 6.00001Z"
            fill="#FF9500" />
        <path
            d="M2.11089 6.00001C2.11089 5.67609 1.84836 5.41356 1.52445 5.41356H0.586448C0.262533 5.41356 0 5.67609 0 6.00001C0 6.32392 0.262533 6.58619 0.586448 6.58619H1.52471C1.84836 6.58619 2.11089 6.32392 2.11089 6.00001Z"
            fill="#FF9500" />
        <path
            d="M8.74991 8.75022C8.97897 8.52143 9.35045 8.52143 9.57923 8.75022L10.2427 9.41373C10.4718 9.64225 10.4718 10.014 10.2427 10.2428C10.0137 10.4716 9.64247 10.4716 9.41342 10.2428L8.74991 9.57927C8.52086 9.35022 8.52086 8.979 8.74991 8.75022Z"
            fill="#FF9500" />
        <path
            d="M3.25006 3.25004C3.47912 3.02099 3.47912 2.64978 3.25006 2.42072L2.58656 1.75748C2.3575 1.52843 1.98629 1.52843 1.75724 1.75748C1.52819 1.98627 1.52819 2.35775 1.75724 2.58653L2.42075 3.25004C2.6498 3.47936 3.02101 3.47936 3.25006 3.25004Z"
            fill="#FF9500" />
    </g>
    <defs>
        <clipPath id="clip0_14_5557">
            <rect width="12" height="12" fill="white" />
        </clipPath>
    </defs>
</svg>