<?xml version="1.0" encoding="UTF-8"?>
<svg id="Calque_2" xmlns="http://www.w3.org/2000/svg" xmlns:xlink="http://www.w3.org/1999/xlink"
    viewBox="0 0 59.85 59.85">
    <defs>
        <style>
            .cls-1{fill:none;}.cls-2{fill:#004073;}.cls-3{fill:#008fad;}.cls-4{fill:#ff9500;}.cls-5{fill:url(#Dégradé_sans_nom_40);}.cls-6{fill:url(#Dégradé_sans_nom_41);}.cls-7{fill:url(#Dégradé_sans_nom_45);}.cls-8{fill:url(#Dégradé_sans_nom_15);}.cls-9{fill:url(#Dégradé_sans_nom_60);}.cls-10{fill:url(#Dégradé_sans_nom_50);}.cls-11{fill:url(#Dégradé_sans_nom_56);}.cls-12{opacity:.2;}.cls-13{fill:url(#Dégradé_sans_nom_56-2);}.cls-14{fill:url(#Dégradé_sans_nom_15-2);}.cls-15{fill:url(#Dégradé_sans_nom_41-2);}.cls-16{fill:url(#Dégradé_sans_nom_41-3);}</style>
        <linearGradient id="Dégradé_sans_nom_15" x1="37.33" y1="47.25" x2="38.54" y2="15.95"
            gradientUnits="userSpaceOnUse">
            <stop offset="0" stop-color="#004073" />
            <stop offset="1" stop-color="#00b6b7" />
        </linearGradient>
        <linearGradient id="Dégradé_sans_nom_41" x1="23.92" y1="14.53" x2="27.02" y2="14.53"
            gradientUnits="userSpaceOnUse">
            <stop offset="0" stop-color="#fff" stop-opacity="0" />
            <stop offset="1" stop-color="#fff" stop-opacity=".4" />
        </linearGradient>
        <linearGradient id="Dégradé_sans_nom_41-2" x1="1.2" y1="21.64" x2="23.92" y2="21.64"
            xlink:href="#Dégradé_sans_nom_41" />
        <linearGradient id="Dégradé_sans_nom_40" x1="16.49" y1="11.28" x2="28.31" y2="11.28"
            gradientUnits="userSpaceOnUse">
            <stop offset="0" stop-color="#fff" stop-opacity="0" />
            <stop offset="1" stop-color="#fff" stop-opacity=".2" />
        </linearGradient>
        <linearGradient id="Dégradé_sans_nom_45" x1="15.49" y1="48.06" x2="27.45" y2="48.06"
            gradientUnits="userSpaceOnUse">
            <stop offset=".2" stop-color="#fff" stop-opacity="0" />
            <stop offset="1" stop-color="#fff" stop-opacity=".4" />
        </linearGradient>
        <linearGradient id="Dégradé_sans_nom_41-3" x1="17.38" y1="22.43" x2="40.11" y2="22.43"
            xlink:href="#Dégradé_sans_nom_41" />
        <linearGradient id="Dégradé_sans_nom_15-2" x1="44.16" y1="10.64" x2="46.1" y2="46.06"
            xlink:href="#Dégradé_sans_nom_15" />
        <linearGradient id="Dégradé_sans_nom_56" x1="35.68" y1="13.48" x2="60.19" y2="13.48"
            gradientTransform="translate(-3.07 5.12)" gradientUnits="userSpaceOnUse">
            <stop offset="0" stop-color="#fff" stop-opacity="0" />
            <stop offset=".49" stop-color="#fff" stop-opacity=".2" />
            <stop offset=".53" stop-color="#fff" stop-opacity=".17" />
            <stop offset=".71" stop-color="#fff" stop-opacity=".08" />
            <stop offset=".87" stop-color="#fff" stop-opacity=".02" />
            <stop offset="1" stop-color="#fff" stop-opacity="0" />
        </linearGradient>
        <linearGradient id="Dégradé_sans_nom_50" x1="31.65" y1="48.06" x2="43.61" y2="48.06"
            gradientUnits="userSpaceOnUse">
            <stop offset="0" stop-color="#004073" />
            <stop offset=".71" stop-color="#00b6b7" />
        </linearGradient>
        <linearGradient id="Dégradé_sans_nom_56-2" y1="-281.17" y2="-281.17"
            gradientTransform="translate(-3.07 -239.09) scale(1 -1)"
            xlink:href="#Dégradé_sans_nom_56" />
        <linearGradient id="Dégradé_sans_nom_60" x1="38.25" y1="30.32" x2="47.89" y2="30.32"
            gradientUnits="userSpaceOnUse">
            <stop offset="0" stop-color="#fff" stop-opacity="0" />
            <stop offset="1" stop-color="#fff" stop-opacity=".4" />
        </linearGradient>
    </defs>
    <g id="Calque_1-2">
        <g>
            <g>
                <path class="cls-8"
                    d="m37.99,51c-1.78,0-3.56-.68-4.91-2.03l-13.72-13.72c-2.71-2.71-2.71-7.11,0-9.82l13.72-13.73c2.71-2.71,7.11-2.71,9.82,0l13.72,13.73c2.71,2.71,2.71,7.11,0,9.82l-13.72,13.72c-1.35,1.35-3.13,2.03-4.91,2.03Zm0-36.74c-.6,0-1.21.23-1.67.69l-13.72,13.73c-.92.92-.92,2.41,0,3.33l13.72,13.72c.92.92,2.41.92,3.33,0l13.72-13.72c.92-.92.92-2.41,0-3.33l-13.72-13.73c-.46-.46-1.06-.69-1.66-.69Z" />
                <path class="cls-3"
                    d="m21.86,50.15c-1.78,0-3.56-.68-4.91-2.03l-13.72-13.72c-2.71-2.71-2.71-7.11,0-9.82l13.72-13.72c2.71-2.71,7.11-2.71,9.82,0l1.54,1.54-3.25,3.25-1.54-1.54c-.91-.91-2.4-.92-3.33,0l-13.72,13.72c-.92.92-.92,2.41,0,3.33l13.72,13.72c.92.92,2.41.92,3.33,0l.68-.68,3.25,3.25-.68.68c-1.35,1.35-3.13,2.03-4.91,2.03Z" />
                <path class="cls-4"
                    d="m36.45,36.33l5.99-5.99-5.99-5.99,3.25-3.25,7.53,7.53c.9.9.9,2.52,0,3.42l-7.53,7.53c-1.08-1.08-2.16-2.16-3.25-3.25Z" />
                <g>
                    <path class="cls-6"
                        d="m25.07,15.63l1.95-1.95c-.88-.44-1.97-.32-2.71.41l-.39.39,1.15,1.15Z" />
                    <path class="cls-15"
                        d="m4.2,26.93c1.47-1.39,12.78-12.14,13.46-12.81.14-.14.59-.6,1.33-.95,0,0,.39-.18.75-.27,1.27-.31,2.64.47,2.97.67.4-1.45.8-2.9,1.2-4.35-2.39-.74-5.08-.25-6.97,1.63L3.23,24.57c-2.71,2.71-2.71,7.11,0,9.82-.2-.27-1.52-2.12-.96-4.48.35-1.49,1.33-2.42,1.93-2.98Z" />
                </g>
                <path class="cls-2"
                    d="m16.95,10.85c2.71-2.71,7.11-2.71,9.82,0l1.54,1.54c-1.08,1.08-2.16,2.16-3.25,3.25-.17-.17-.44-.43-.77-.76-.34-.36-.45-.49-.67-.67-.38-.33-.72-.52-.98-.66-2.63-1.39-3.98-2.09-5.89-2.22-.11,0-.21-.01-.27-.01.15-.15.31-.31.46-.46Z" />
                <path class="cls-5"
                    d="m16.95,11.35c2.67-1.65,6.17-1.44,8.49.88l1.51,1.51c.45-.45.91-.91,1.36-1.36l-1.54-1.54c-2.71-2.71-7.11-2.71-9.82,0l-.46.46c.06,0,.15,0,.27.01.07,0,.12.03.19.03Z" />
                <path class="cls-12"
                    d="m16.08,47.24c.43.44,1.26,1.15,2.5,1.61.38.14,1.54.53,3.07.38.43-.04,1.6-.16,2.77-.87.77-.46,1.51-1.16,1.71-1.35.19-.18.34-.34.45-.45-.79-.79-1.58-1.58-2.37-2.37-.1.14-.98,1.38-2.38,1.36-.47,0-.86-.15-1.11-.29-.86.48-2.83,1.39-5.06.85-.38-.09-.72-.21-1.04-.35.21.23.43.46.66.7.27.27.54.53.8.78Z" />
                <path class="cls-4"
                    d="m16.95,48.12c.43.44,1.26,1.15,2.5,1.61.38.14,1.54.53,3.07.38.43-.04,1.6-.16,2.77-.87.77-.46,1.51-1.16,1.71-1.35.19-.18.34-.34.45-.45-1.07-1.08-2.15-2.16-3.22-3.24-.21.23-.41.42-.55.56,0,0-.31.28-.66.53-3.44,2.44-6.49,1.71-6.49,1.71-.22-.05-.59-.16-1.04-.35.21.23.43.46.66.7.27.27.54.53.8.78Z" />
                <path class="cls-7"
                    d="m26,46c-.37.45-.97,1.06-1.84,1.61-1.33.84-2.55,1.03-2.79,1.06-2.58.38-4.65-1.04-5.18-1.44-.19-.18-.37-.36-.56-.54-.06-.02-.08-.02-.14-.05.71.69,1.43,1.38,2.14,2.07.4.31,1.01.71,1.83,1.01,1.56.58,3.24.37,3.24.37,1.48-.18,2.5-.79,2.72-.93.59-.36,1.12-.84,1.29-.99.32-.29.57-.55.75-.74-.49-.48-.97-.96-1.46-1.44Z" />
                <path class="cls-16"
                    d="m20.38,27.72c1.47-1.39,12.78-12.14,13.46-12.81.14-.14.59-.6,1.33-.95,0,0,.39-.18.75-.27,1.27-.31,2.64.47,2.97.67.4-1.45.8-2.9,1.2-4.35-2.39-.74-5.08-.25-6.97,1.63l-13.72,13.72c-2.71,2.71-2.71,7.11,0,9.82-.2-.27-1.52-2.12-.96-4.48.35-1.49,1.33-2.42,1.93-2.98Z" />
                <path class="cls-14"
                    d="m56.62,35.29l-13.72,13.72c-1.33,1.33-3.12,2.02-4.91,2.02-.66,0-1.21-.1-1.39-.14-1.73-.36-2.89-1.33-3.44-1.87-.1-.1-.21-.19-.31-.29.53.11,2.16.4,3.96-.42,1.71-.78,2.56-2.08,2.84-2.56l13.72-13.72c.92-.92.92-2.43,0-3.35l-.18-.23h-.05l-11.93-11.98c-.18-.14-.46-.41-.78-.73-.32-.37-.46-.5-.64-.69-.37-.32-.73-.5-1.01-.64-2.62-1.42-3.95-2.11-5.87-2.2-.09-.05-.18-.05-.28-.05.18-.14.32-.28.46-.46,2.71-2.71,7.11-2.71,9.82,0l13.49,13.49c.32.3,2.41,2.36,2.24,5.53-.13,2.53-1.61,4.15-2.01,4.57Z" />
                <path class="cls-11"
                    d="m33.07,12.21c2.67-1.65,6.17-1.44,8.49.88,4.66,4.81,9.32,9.62,13.98,14.44.53-.53,1.05-1.05,1.58-1.58-4.74-4.75-9.49-9.49-14.23-14.24-2.71-2.71-7.11-2.71-9.82,0l-.46.46c.15.02.3.03.45.05Z" />
                <polygon class="cls-2" points="53.36 28.68 53.13 28.45 53.18 28.45 53.36 28.68" />
                <path class="cls-12"
                    d="m32.44,48.24c.95.79,1.44,1.19,2.22,1.51,1.32.54,2.51.43,3.07.38.43-.04,1.6-.16,2.77-.87.77-.46,1.51-1.16,1.71-1.35.19-.18.34-.34.45-.45-.87-.71-1.74-1.42-2.61-2.13-.1.14-.74,1-1.86,1.08-.58.04-1.03-.15-1.26-.26-.73.43-2.89,1.57-5.2.86-.38-.12-.72-.27-1.03-.44.39.42.97,1.02,1.74,1.66Z" />
                <path class="cls-10"
                    d="m33.11,49.01c.43.44,1.26,1.15,2.5,1.61.38.14,1.54.53,3.07.38.43-.04,1.6-.16,2.77-.87.77-.46,1.51-1.16,1.71-1.35.19-.18.34-.34.45-.45-1.07-1.08-2.15-2.16-3.22-3.24-.21.23-.41.42-.55.56,0,0-.31.28-.66.53-3.44,2.44-6.49,1.71-6.49,1.71-.22-.05-.59-.16-1.04-.35.21.23.43.46.66.7.27.27.54.53.8.78Z" />
                <path class="cls-13"
                    d="m33.07,48.47c2.67,1.65,6.17,1.44,8.49-.88,4.66-4.81,9.32-9.62,13.98-14.44.53.53,1.05,1.05,1.58,1.58-4.74,4.75-9.49,9.49-14.23,14.24-2.71,2.71-7.11,2.71-9.82,0l-.46-.46c.15-.02.3-.03.45-.05Z" />
                <path class="cls-9"
                    d="m47.22,28.63l-7.53-7.53s0,0,0,0l-1.43,1.43c3.14,2.69,5.43,4.87,6.41,5.98.28.32.75.88.79,1.66.04.69-.26,1.26-.48,1.59-2.16,2.18-4.32,4.36-6.49,6.55l1.24,1.24,7.49-7.49c.9-.9.9-2.52,0-3.42Z" />
            </g>
            <rect class="cls-1" width="59.85" height="59.85" />
        </g>
    </g>
</svg>