<svg width="20" height="20" viewBox="0 0 20 20" fill="none" xmlns="http://www.w3.org/2000/svg">
<path d="M12.1538 8.30751C11.6923 8.30751 11.3077 7.92289 11.3077 7.46135V2.1152C11.3077 1.65366 11.6923 1.26904 12.1538 1.26904H17.6154C18.0769 1.26904 18.4615 1.65366 18.4615 2.1152V7.46135C18.4615 7.92289 18.0769 8.30751 17.6154 8.30751H12.1538Z" fill="white"/>
<path d="M14.5 11.4617L11.3461 14.8847C11.1538 15.077 11.1538 15.3847 11.3461 15.6155L14.5 19.0386C14.6923 19.2693 15.0769 19.2693 15.2692 19.0386L18.4231 15.6155C18.6154 15.4232 18.6154 15.1155 18.4231 14.8847L15.2692 11.4617C15.0769 11.2309 14.7308 11.2309 14.5 11.4617Z" fill="white"/>
<path d="M5.00002 18.731C6.9755 18.731 8.57694 17.1296 8.57694 15.1541C8.57694 13.1786 6.9755 11.5771 5.00002 11.5771C3.02454 11.5771 1.4231 13.1786 1.4231 15.1541C1.4231 17.1296 3.02454 18.731 5.00002 18.731Z" fill="white"/>
<path d="M1.84617 2.49992L4.6154 0.923002C4.88463 0.769156 5.19233 0.769156 5.4231 0.923002L8.15386 2.49992C8.4231 2.65377 8.57694 2.923 8.57694 3.23069V6.38454C8.57694 6.69223 8.4231 6.96146 8.15386 7.11531L5.4231 8.69223C5.15387 8.84608 4.84617 8.84608 4.6154 8.69223L1.84617 7.11531C1.57694 6.96146 1.4231 6.69223 1.4231 6.38454V3.23069C1.4231 2.923 1.57694 2.65377 1.84617 2.49992Z" fill="white"/>
</svg>
