<svg width="27" height="20" viewBox="0 0 27 20" fill="none" xmlns="http://www.w3.org/2000/svg">
<path d="M10.8334 18.7913C11.1667 18.458 11.3267 18.0552 11.3134 17.583C11.2989 17.1108 11.125 16.708 10.7917 16.3747L6.08338 11.6663H24.6667C25.1389 11.6663 25.535 11.5063 25.855 11.1863C26.1739 10.8675 26.3334 10.4719 26.3334 9.99967C26.3334 9.52745 26.1739 9.13134 25.855 8.81134C25.535 8.49245 25.1389 8.33301 24.6667 8.33301H6.08338L10.8334 3.58301C11.1667 3.24967 11.3334 2.85356 11.3334 2.39467C11.3334 1.9369 11.1667 1.54134 10.8334 1.20801C10.5 0.874674 10.1039 0.708008 9.64504 0.708008C9.18726 0.708008 8.79171 0.874674 8.45837 1.20801L0.833376 8.83301C0.66671 8.99967 0.548374 9.18023 0.478374 9.37467C0.409485 9.56912 0.37504 9.77745 0.37504 9.99967C0.37504 10.2219 0.409485 10.4302 0.478374 10.6247C0.548374 10.8191 0.66671 10.9997 0.833376 11.1663L8.50004 18.833C8.8056 19.1386 9.18726 19.2913 9.64504 19.2913C10.1039 19.2913 10.5 19.1247 10.8334 18.7913Z" fill="#004073"/>
</svg>
