<svg width="20" height="20" viewBox="0 0 20 20" fill="none" xmlns="http://www.w3.org/2000/svg">
    <g clip-path="url(#clip0_14_5936)">
        <path opacity="0.12"
            d="M9.99992 5.66998C7.60992 5.66998 5.66992 7.60998 5.66992 9.99998C5.66992 12.39 7.60992 14.33 9.99992 14.33C12.3899 14.33 14.3299 12.39 14.3299 9.99998C14.3299 7.60998 12.3899 5.66998 9.99992 5.66998Z"
            fill="#004073" />
        <path opacity="0.4"
            d="M13.25 0.809989C13.25 1.15999 13.47 1.46999 13.78 1.60999C15.82 2.52999 17.47 4.17999 18.39 6.21999C18.53 6.53999 18.84 6.74999 19.19 6.74999C19.76 6.74999 20.16 6.19999 19.93 5.67999C18.84 3.16999 16.83 1.15999 14.32 0.0599886C13.8 -0.170011 13.25 0.239989 13.25 0.799989V0.809989ZM5.68 0.0599886C6.2 -0.170011 6.75 0.239989 6.75 0.799989C6.75 1.14999 6.53 1.45999 6.22 1.59999C4.18 2.51999 2.53 4.16999 1.61 6.20999C1.47 6.52999 1.16 6.73999 0.810004 6.73999C0.240004 6.73999 -0.159996 6.18999 0.0700043 5.66999C1.16 3.16999 3.17 1.15999 5.68 0.0599886ZM1.61 13.78C1.47 13.46 1.16 13.25 0.810004 13.25C0.240004 13.25 -0.159996 13.8 0.0700043 14.32C1.16 16.83 3.18 18.85 5.69 19.94C6.21 20.17 6.76 19.76 6.76 19.2C6.76 18.85 6.54 18.54 6.23 18.4C4.19 17.48 2.54 15.83 1.62 13.79L1.61 13.78Z"
            fill="#004073" />
        <path opacity="0.4"
            d="M10.08 4.03998C9.86996 4.03998 9.65996 4.04998 9.45996 4.06998C9.00996 4.11998 8.60996 3.78998 8.56996 3.34998C8.51996 2.89998 8.84996 2.49998 9.28996 2.45998C9.54996 2.42998 9.80996 2.41998 10.08 2.41998C13.69 2.41998 16.71 4.93998 17.47 8.31998C17.57 8.75998 17.3 9.18998 16.86 9.28998C16.42 9.38998 15.99 9.11998 15.89 8.67998C15.29 6.02998 12.91 4.04998 10.08 4.04998V4.03998Z"
            fill="#004073" />
        <path opacity="0.4"
            d="M6.97 3.93998C7.22 4.30998 7.12 4.81998 6.75 5.06998C5.17 6.13998 4.13 7.94998 4.13 10.01C4.13 11.25 4.51 12.39 5.15 13.35C5.4 13.72 5.3 14.23 4.93 14.48C4.56 14.73 4.05 14.63 3.8 14.26C2.98 13.05 2.5 11.59 2.5 10.01C2.5 7.39998 3.82 5.08998 5.84 3.72998C6.21 3.47998 6.72 3.57998 6.97 3.94998V3.93998Z"
            fill="#004073" />
        <path opacity="0.4" fill-rule="evenodd" clip-rule="evenodd"
            d="M17.3998 11.98C17.5198 11.54 17.2598 11.1 16.8298 10.98V11C16.3898 10.88 15.9498 11.14 15.8298 11.57C15.7896 11.7196 15.7436 11.8669 15.6922 12.0117C15.7938 12.0039 15.8964 12 16 12C16.4659 12 16.9132 12.0797 17.329 12.2261C17.354 12.1446 17.3776 12.0626 17.3998 11.98ZM12.211 17.2855C12.0742 16.882 12 16.4497 12 16C12 15.8813 12.0052 15.7639 12.0153 15.6478C11.4083 15.8566 10.7571 15.97 10.0798 15.97C9.0898 15.97 8.14981 15.72 7.31981 15.29C6.91981 15.08 6.4298 15.23 6.2198 15.63C6.0098 16.03 6.15981 16.52 6.55981 16.73C7.6098 17.28 8.8098 17.59 10.0798 17.59C10.8196 17.59 11.5348 17.4837 12.211 17.2855Z"
            fill="#004073" />
        <path fill-rule="evenodd" clip-rule="evenodd"
            d="M16.5 20C18.433 20 20 18.433 20 16.5C20 14.567 18.433 13 16.5 13C14.567 13 13 14.567 13 16.5C13 18.433 14.567 20 16.5 20ZM16.235 18.723C16.3083 18.7966 16.3967 18.8333 16.5 18.8333C16.6033 18.8333 16.6917 18.7966 16.765 18.723C16.8385 18.6497 16.8753 18.5614 16.8753 18.458V16.8753H18.458C18.5614 16.8753 18.6497 16.8385 18.723 16.765C18.7966 16.6917 18.8333 16.6033 18.8333 16.5C18.8333 16.3967 18.7966 16.3083 18.723 16.235C18.6497 16.1615 18.5614 16.1247 18.458 16.1247H16.8753V14.542C16.8753 14.4386 16.8385 14.3502 16.765 14.2766C16.6917 14.2033 16.6033 14.1667 16.5 14.1667C16.3967 14.1667 16.3083 14.2033 16.235 14.2766C16.1615 14.3502 16.1247 14.4386 16.1247 14.542V16.1247H14.542C14.4386 16.1247 14.3503 16.1615 14.277 16.235C14.2034 16.3083 14.1667 16.3967 14.1667 16.5C14.1667 16.6033 14.2034 16.6917 14.277 16.765C14.3503 16.8385 14.4386 16.8753 14.542 16.8753H16.1247V18.458C16.1247 18.5614 16.1615 18.6497 16.235 18.723Z"
            fill="#004073" fill-opacity="0.4" />
    </g>
    <defs>
        <clipPath id="clip0_14_5936">
            <rect width="20" height="20" fill="white" />
        </clipPath>
    </defs>
</svg>