<svg width="20" height="20" viewBox="0 0 20 20" fill="none" xmlns="http://www.w3.org/2000/svg">
    <g clip-path="url(#clip0_14_5843)">
        <path
            d="M0.952452 7.23157H7.57789C7.74528 7.23157 7.88092 7.09587 7.88092 6.92853V0.303038C7.88092 0.1357 7.74528 0 7.57789 0H0.952452C0.784993 0 0.649414 0.1357 0.649414 0.303038V6.92853C0.649414 7.09593 0.784993 7.23157 0.952452 7.23157Z"
            fill="#004073" fill-opacity="0.4" />
        <path
            d="M4.47922 11.6037C4.36098 11.4854 4.16897 11.4854 4.05073 11.6037L0.111236 15.5432C-0.00713069 15.6615 -0.00713069 15.8534 0.111236 15.9717L4.05073 19.9112C4.10988 19.9704 4.18746 19.9999 4.26497 19.9999C4.34249 19.9999 4.42013 19.9704 4.47922 19.9112L8.41871 15.9717C8.53708 15.8534 8.53708 15.6615 8.41871 15.5432L4.47922 11.6037Z"
            fill="#004073" fill-opacity="0.4" />
        <path
            d="M13.9522 7.22284H17.7674C17.8757 7.22284 17.9757 7.16508 18.0298 7.07132L19.9373 3.76736C19.9915 3.67361 19.9915 3.55809 19.9373 3.46433L18.0298 0.160308C17.9757 0.066548 17.8757 0.00878906 17.7674 0.00878906H13.9522C13.8439 0.00878906 13.7439 0.066548 13.6898 0.160308L11.7823 3.46433C11.7282 3.55809 11.7282 3.67361 11.7823 3.76736L13.6898 7.07132C13.744 7.16508 13.8439 7.22284 13.9522 7.22284Z"
            fill="#004073" fill-opacity="0.12" />
        <path
            d="M16.1253 11.9053C14.0011 11.9053 12.2729 13.6334 12.2729 15.7575C12.2729 17.8817 14.0011 19.6099 16.1253 19.6099C18.2496 19.6099 19.9777 17.8818 19.9777 15.7575C19.9777 13.6334 18.2495 11.9053 16.1253 11.9053Z"
            fill="#004073" fill-opacity="0.4" />
        <path
            d="M3.96213 7.66663C3.84497 7.66663 3.75 7.7616 3.75 7.87875V10.6667C3.75 10.7839 3.84497 10.8788 3.96213 10.8788H4.44699C4.56414 10.8788 4.65911 10.7839 4.65911 10.6667V7.87875C4.65911 7.7616 4.56414 7.66663 4.44699 7.66663H3.96213Z"
            fill="#004073" fill-opacity="0.4" />
        <path
            d="M15.8225 7.7677C15.7053 7.7677 15.6104 7.86267 15.6104 7.97983V10.7678C15.6104 10.8849 15.7053 10.9799 15.8225 10.9799H16.3073C16.4245 10.9799 16.5195 10.8849 16.5195 10.7678V7.97983C16.5195 7.86267 16.4245 7.7677 16.3073 7.7677H15.8225Z"
            fill="#004073" fill-opacity="0.4" />
        <path
            d="M10.9852 3.23254H8.86886C8.75165 3.23254 8.65674 3.32752 8.65674 3.44467V3.92953C8.65674 4.04668 8.75165 4.14166 8.86886 4.14166H10.9852C11.1023 4.14166 11.1973 4.04668 11.1973 3.92953V3.44467C11.1973 3.32752 11.1023 3.23254 10.9852 3.23254Z"
            fill="#004073" fill-opacity="0.4" />
    </g>
    <defs>
        <clipPath id="clip0_14_5843">
            <rect width="20" height="20" fill="white" />
        </clipPath>
    </defs>
</svg>