<svg width="20" height="21" viewBox="0 0 20 21" fill="none" xmlns="http://www.w3.org/2000/svg">
<path opacity="0.4" d="M9.99602 6.66699C7.60602 6.66699 5.66602 8.60599 5.66602 10.9948C5.66602 13.3835 7.60602 15.3225 9.99602 15.3225C12.386 15.3225 14.326 13.3835 14.326 10.9948C14.326 8.60599 12.386 6.66699 9.99602 6.66699Z" fill="#FF9500"/>
<path d="M13.2461 1.80938C13.2461 2.1592 13.4661 2.46904 13.7761 2.60897C15.8161 3.52849 17.4661 5.17764 18.3861 7.21658C18.5261 7.53642 18.8361 7.74631 19.1861 7.74631C19.7561 7.74631 20.1561 7.19659 19.9261 6.67686C18.8361 4.16816 16.8261 2.1592 14.3161 1.05977C13.7961 0.829891 13.2461 1.23968 13.2461 1.79939V1.80938ZM5.6761 1.05977C6.1961 0.829891 6.7461 1.23968 6.7461 1.79939C6.7461 2.14921 6.5261 2.45905 6.2161 2.59898C4.1761 3.5185 2.5261 5.16765 1.6061 7.20659C1.4661 7.52642 1.1561 7.73632 0.806098 7.73632C0.236098 7.73632 -0.163902 7.1866 0.066098 6.66687C1.1561 4.16816 3.1661 2.1592 5.6761 1.05977ZM1.6061 14.7727C1.4661 14.4528 1.1561 14.2429 0.806098 14.2429C0.236098 14.2429 -0.163902 14.7927 0.066098 15.3124C1.1561 17.8211 3.1761 19.8401 5.6861 20.9295C6.2061 21.1594 6.7561 20.7496 6.7561 20.1899C6.7561 19.8401 6.5361 19.5302 6.2261 19.3903C4.1861 18.4708 2.5361 16.8216 1.6161 14.7827L1.6061 14.7727Z" fill="#FF9500"/>
<path d="M10.0756 5.03762C9.86556 5.03762 9.65556 5.04761 9.45556 5.0676C9.00556 5.11758 8.60556 4.78775 8.56556 4.34798C8.51556 3.89821 8.84556 3.49842 9.28556 3.45844C9.54556 3.42845 9.80556 3.41846 10.0756 3.41846C13.6856 3.41846 16.7056 5.93715 17.4656 9.3154C17.5656 9.75518 17.2956 10.185 16.8556 10.2849C16.4156 10.3849 15.9856 10.115 15.8856 9.67522C15.2856 7.02659 12.9056 5.04761 10.0756 5.04761V5.03762Z" fill="#FF9500"/>
<path d="M6.96609 4.93797C7.21609 5.30778 7.11609 5.81751 6.74609 6.06738C5.16609 7.13683 4.12609 8.94589 4.12609 11.0048C4.12609 12.2442 4.50609 13.3836 5.14609 14.3431C5.39609 14.7129 5.29609 15.2226 4.92609 15.4725C4.55609 15.7224 4.04609 15.6224 3.79609 15.2526C2.97609 14.0433 2.49609 12.584 2.49609 11.0048C2.49609 8.39618 3.81609 6.08737 5.83609 4.72808C6.20609 4.47821 6.71609 4.57815 6.96609 4.94796V4.93797Z" fill="#FF9500"/>
<path fill-rule="evenodd" clip-rule="evenodd" d="M17.3959 12.9736C17.5159 12.5339 17.2559 12.0941 16.8259 11.9741V11.9941C16.3859 11.8742 15.9459 12.1341 15.8259 12.5638C15.7857 12.7134 15.7397 12.8607 15.6882 13.0055C15.7898 12.9977 15.8925 12.9938 15.9961 12.9938C16.462 12.9938 16.9093 13.0734 17.3251 13.2197C17.35 13.1383 17.3736 13.0562 17.3959 12.9736ZM12.2071 18.2764C12.0703 17.8732 11.9961 17.4411 11.9961 16.9917C11.9961 16.873 12.0013 16.7556 12.0114 16.6395C11.4044 16.8482 10.7532 16.9616 10.0759 16.9616C9.0859 16.9616 8.1459 16.7117 7.3159 16.2819C6.9159 16.072 6.4259 16.2219 6.2159 16.6217C6.0059 17.0215 6.1559 17.5113 6.5559 17.7212C7.6059 18.2709 8.8059 18.5807 10.0759 18.5807C10.8157 18.5807 11.5309 18.4745 12.2071 18.2764Z" fill="#FF9500"/>
<path fill-rule="evenodd" clip-rule="evenodd" d="M16.4961 20.9895C18.4291 20.9895 19.9961 19.4233 19.9961 17.4914C19.9961 15.5594 18.4291 13.9932 16.4961 13.9932C14.5631 13.9932 12.9961 15.5594 12.9961 17.4914C12.9961 19.4233 14.5631 20.9895 16.4961 20.9895ZM16.2305 19.7132C16.3038 19.7867 16.3921 19.8234 16.4954 19.8234C16.5988 19.8234 16.6871 19.7867 16.7604 19.7132C16.834 19.6399 16.8707 19.5516 16.8707 19.4483V17.8664H18.4535C18.5568 17.8664 18.6452 17.8296 18.7185 17.7561C18.792 17.6829 18.8288 17.5946 18.8288 17.4913C18.8288 17.388 18.792 17.2997 18.7185 17.2264C18.6452 17.1529 18.5568 17.1162 18.4535 17.1162H16.8707V15.5343C16.8707 15.431 16.834 15.3426 16.7604 15.2691C16.6871 15.1958 16.5988 15.1592 16.4954 15.1592C16.3921 15.1592 16.3038 15.1958 16.2305 15.2691C16.1569 15.3426 16.1202 15.431 16.1202 15.5343V17.1162H14.5374C14.4341 17.1162 14.3457 17.1529 14.2724 17.2264C14.1989 17.2997 14.1621 17.388 14.1621 17.4913C14.1621 17.5946 14.1989 17.6829 14.2724 17.7561C14.3457 17.8296 14.4341 17.8664 14.5374 17.8664H16.1202V19.4483C16.1202 19.5516 16.1569 19.6399 16.2305 19.7132Z" fill="#FF9500"/>
</svg>
