<svg width="29" height="30" viewBox="0 0 29 30" fill="none" xmlns="http://www.w3.org/2000/svg">
<path d="M18.9405 1.53592C18.9405 2.03982 19.2502 2.48625 19.7025 2.69357C22.6144 4.02821 24.9606 6.41032 26.2751 9.36679C26.4793 9.82605 26.919 10.1405 27.4153 10.1405C28.2207 10.1405 28.7932 9.34543 28.4718 8.5956C26.915 4.96184 24.0411 2.04396 20.4621 0.463107C19.7235 0.136899 18.9405 0.718202 18.9405 1.53592ZM8.15636 0.463107C8.89486 0.136899 9.67796 0.718202 9.67796 1.53592C9.67796 2.03982 9.36826 2.48625 8.9159 2.69357C6.00404 4.02821 3.65789 6.41032 2.34337 9.36679C2.13918 9.82605 1.69948 10.1405 1.20318 10.1405C0.397822 10.1405 -0.174726 9.34543 0.14656 8.5956C1.70356 4.96184 4.57741 2.04396 8.15636 0.463107ZM18.9405 28.1496C18.9405 27.6456 19.2502 27.1992 19.7025 26.9919C22.6144 25.6572 24.9606 23.2751 26.2751 20.3187C26.4793 19.8594 26.919 19.545 27.4153 19.545C28.2207 19.545 28.7932 20.34 28.4718 21.0898C26.915 24.7237 24.0411 27.6416 20.4621 29.2223C19.7235 29.5486 18.9405 28.9673 18.9405 28.1496ZM2.34337 20.3187C2.13918 19.8594 1.69948 19.545 1.20318 19.545C0.397806 19.545 -0.174726 20.34 0.14656 21.0898C1.70356 24.7237 4.57741 27.6416 8.15635 29.2223C8.89486 29.5486 9.67796 28.9673 9.67796 28.1496C9.67796 27.6456 9.36826 27.1992 8.9159 26.9919C6.00404 25.6572 3.65788 23.2751 2.34337 20.3187ZM14.3093 6.22208C14.0107 6.22208 13.7162 6.23767 13.4261 6.26805C12.7901 6.33468 12.2212 5.86516 12.1556 5.21935C12.09 4.57354 12.5525 3.99599 13.1885 3.92936C13.5573 3.89072 13.9312 3.87097 14.3093 3.87097C19.4523 3.87097 23.7538 7.51774 24.8469 12.4023C24.9887 13.0354 24.5981 13.6652 23.9746 13.8091C23.351 13.953 22.7306 13.5564 22.5889 12.9233C21.7301 9.08574 18.3476 6.22208 14.3093 6.22208ZM9.86484 6.06634C10.2234 6.60393 10.0848 7.33482 9.55533 7.69885C7.29816 9.25071 5.81864 11.8715 5.81864 14.8428C5.81864 16.6332 6.35491 18.2928 7.27313 19.6696C7.63167 20.2072 7.49309 20.9381 6.96363 21.3021C6.43415 21.6662 5.71427 21.5254 5.35574 20.9878C4.18618 19.2342 3.50301 17.1177 3.50301 14.8428C3.50301 11.0587 5.39077 7.72266 8.25697 5.75209C8.78643 5.38806 9.50631 5.52875 9.86484 6.06634ZM23.9278 16.2613C24.5451 16.4301 24.911 17.0751 24.7447 17.702C23.5056 22.3743 19.3046 25.8146 14.3093 25.8146C12.5008 25.8146 10.7928 25.3626 9.29232 24.5627C8.72616 24.261 8.50817 23.5503 8.80542 22.9754C9.10265 22.4006 9.80259 22.1793 10.3687 22.481C11.5452 23.1082 12.8847 23.4635 14.3093 23.4635C18.2313 23.4635 21.535 20.7626 22.5086 17.0908C22.6749 16.4638 23.3103 16.0925 23.9278 16.2613ZM14.3093 8.57318C10.8989 8.57318 8.13427 11.3802 8.13427 14.8428C8.13427 18.3053 10.8989 21.1124 14.3093 21.1124C17.7196 21.1124 20.4843 18.3053 20.4843 14.8428C20.4843 11.3802 17.7196 8.57318 14.3093 8.57318Z" fill="white"/>
</svg>
