<svg width="20" height="20" viewBox="0 0 20 20" fill="none" xmlns="http://www.w3.org/2000/svg">
    <g clip-path="url(#clip0_14_5966)">
        <path opacity="0.12"
            d="M9.99992 5.67001C7.60992 5.67001 5.66992 7.61001 5.66992 10C5.66992 12.39 7.60992 14.33 9.99992 14.33C12.3899 14.33 14.3299 12.39 14.3299 10C14.3299 7.61001 12.3899 5.67001 9.99992 5.67001Z"
            fill="#004073" />
        <path opacity="0.4"
            d="M13.25 0.809989C13.25 1.15999 13.47 1.46999 13.78 1.60999C15.82 2.52999 17.47 4.17999 18.39 6.21999C18.53 6.53999 18.84 6.74999 19.19 6.74999C19.76 6.74999 20.16 6.19999 19.93 5.67999C18.84 3.16999 16.83 1.15999 14.32 0.0599886C13.8 -0.170011 13.25 0.239989 13.25 0.799989V0.809989ZM5.68 0.0599886C6.2 -0.170011 6.75 0.239989 6.75 0.799989C6.75 1.14999 6.53 1.45999 6.22 1.59999C4.18 2.51999 2.53 4.16999 1.61 6.20999C1.47 6.52999 1.16 6.73999 0.810004 6.73999C0.240004 6.73999 -0.159996 6.18999 0.0700043 5.66999C1.16 3.16999 3.17 1.15999 5.68 0.0599886ZM13.25 19.19C13.25 18.84 13.47 18.53 13.78 18.39C15.82 17.47 17.47 15.82 18.39 13.78C18.53 13.46 18.84 13.25 19.19 13.25C19.76 13.25 20.16 13.8 19.93 14.32C18.84 16.83 16.82 18.85 14.31 19.94C13.79 20.17 13.24 19.76 13.24 19.2L13.25 19.19ZM1.61 13.78C1.47 13.46 1.16 13.25 0.810004 13.25C0.240004 13.25 -0.159996 13.8 0.0700043 14.32C1.16 16.83 3.18 18.85 5.69 19.94C6.21 20.17 6.76 19.76 6.76 19.2C6.76 18.85 6.54 18.54 6.23 18.4C4.19 17.48 2.54 15.83 1.62 13.79L1.61 13.78Z"
            fill="#004073" />
        <path opacity="0.4"
            d="M10.08 4.04001C9.86996 4.04001 9.65996 4.05001 9.45996 4.07001C9.00996 4.12001 8.60996 3.79001 8.56996 3.35001C8.51996 2.90001 8.84996 2.50001 9.28996 2.46001C9.54996 2.43001 9.80996 2.42001 10.08 2.42001C13.69 2.42001 16.71 4.94001 17.47 8.32001C17.57 8.76001 17.3 9.19001 16.86 9.29001C16.42 9.39001 15.99 9.12001 15.89 8.68001C15.29 6.03001 12.91 4.05001 10.08 4.05001V4.04001Z"
            fill="#004073" />
        <path opacity="0.4"
            d="M6.97 3.94001C7.22 4.31001 7.12 4.82001 6.75 5.07001C5.17 6.14001 4.13 7.95001 4.13 10.01C4.13 11.25 4.51 12.39 5.15 13.35C5.4 13.72 5.3 14.23 4.93 14.48C4.56 14.73 4.05 14.63 3.8 14.26C2.98 13.05 2.5 11.59 2.5 10.01C2.5 7.40001 3.82 5.09001 5.84 3.73001C6.21 3.48001 6.72 3.58001 6.97 3.95001V3.94001Z"
            fill="#004073" />
        <path opacity="0.4"
            d="M16.8298 10.98C17.2598 11.1 17.5198 11.54 17.3998 11.98C16.5298 15.21 13.5798 17.59 10.0798 17.59C8.8098 17.59 7.6098 17.28 6.55981 16.73C6.15981 16.52 6.0098 16.03 6.2198 15.63C6.4298 15.23 6.91981 15.08 7.31981 15.29C8.14981 15.72 9.0898 15.97 10.0798 15.97C12.8298 15.97 15.1498 14.1 15.8298 11.57C15.9498 11.14 16.3898 10.88 16.8298 11V10.98Z"
            fill="#004073" />
    </g>
    <defs>
        <clipPath id="clip0_14_5966">
            <rect width="20" height="20" fill="white" />
        </clipPath>
    </defs>
</svg>