<svg width="20" height="21" viewBox="0 0 20 21" fill="none" xmlns="http://www.w3.org/2000/svg">
    <path opacity="0.4"
        d="M9.99992 5.67529C7.60992 5.67529 5.66992 7.61529 5.66992 10.0053C5.66992 12.3953 7.60992 14.3353 9.99992 14.3353C12.3899 14.3353 14.3299 12.3953 14.3299 10.0053C14.3299 7.61529 12.3899 5.67529 9.99992 5.67529Z"
        fill="#FF9500" />
    <path
        d="M13.25 0.815177C13.25 1.16518 13.47 1.47518 13.78 1.61518C15.82 2.53518 17.47 4.18518 18.39 6.22518C18.53 6.54518 18.84 6.75518 19.19 6.75518C19.76 6.75518 20.16 6.20518 19.93 5.68518C18.84 3.17518 16.83 1.16518 14.32 0.0651766C13.8 -0.164823 13.25 0.245177 13.25 0.805177V0.815177ZM5.68 0.0651766C6.2 -0.164823 6.75 0.245177 6.75 0.805177C6.75 1.15518 6.53 1.46518 6.22 1.60518C4.18 2.52518 2.53 4.17518 1.61 6.21518C1.47 6.53518 1.16 6.74518 0.810004 6.74518C0.240004 6.74518 -0.159996 6.19518 0.0700043 5.67518C1.16 3.17518 3.17 1.16518 5.68 0.0651766ZM13.25 19.1952C13.25 18.8452 13.47 18.5352 13.78 18.3952C15.82 17.4752 17.47 15.8252 18.39 13.7852C18.53 13.4652 18.84 13.2552 19.19 13.2552C19.76 13.2552 20.16 13.8052 19.93 14.3252C18.84 16.8352 16.82 18.8552 14.31 19.9452C13.79 20.1752 13.24 19.7652 13.24 19.2052L13.25 19.1952ZM1.61 13.7852C1.47 13.4652 1.16 13.2552 0.810004 13.2552C0.240004 13.2552 -0.159996 13.8052 0.0700043 14.3252C1.16 16.8352 3.18 18.8552 5.69 19.9452C6.21 20.1752 6.76 19.7652 6.76 19.2052C6.76 18.8552 6.54 18.5452 6.23 18.4052C4.19 17.4852 2.54 15.8352 1.62 13.7952L1.61 13.7852Z"
        fill="#FF9500" />
    <path
        d="M10.0795 4.04529C9.86947 4.04529 9.65947 4.05529 9.45947 4.07529C9.00947 4.12529 8.60947 3.79529 8.56947 3.35529C8.51947 2.90529 8.84947 2.50529 9.28947 2.46529C9.54947 2.43529 9.80947 2.42529 10.0795 2.42529C13.6895 2.42529 16.7095 4.94529 17.4695 8.32529C17.5695 8.76529 17.2995 9.19529 16.8595 9.29529C16.4195 9.39529 15.9895 9.12529 15.8895 8.68529C15.2895 6.03529 12.9095 4.05529 10.0795 4.05529V4.04529Z"
        fill="#FF9500" />
    <path
        d="M6.97 3.94547C7.22 4.31547 7.12 4.82547 6.75 5.07547C5.17 6.14547 4.13 7.95547 4.13 10.0155C4.13 11.2555 4.51 12.3955 5.15 13.3555C5.4 13.7255 5.3 14.2355 4.93 14.4855C4.56 14.7355 4.05 14.6355 3.8 14.2655C2.98 13.0555 2.5 11.5955 2.5 10.0155C2.5 7.40547 3.82 5.09547 5.84 3.73547C6.21 3.48547 6.72 3.58547 6.97 3.95547V3.94547Z"
        fill="#FF9500" />
    <path
        d="M16.8298 10.9854C17.2598 11.1054 17.5198 11.5454 17.3998 11.9854C16.5298 15.2154 13.5798 17.5954 10.0798 17.5954C8.8098 17.5954 7.6098 17.2854 6.55981 16.7354C6.15981 16.5254 6.0098 16.0354 6.2198 15.6354C6.4298 15.2354 6.91981 15.0854 7.31981 15.2954C8.14981 15.7254 9.0898 15.9754 10.0798 15.9754C12.8298 15.9754 15.1498 14.1054 15.8298 11.5754C15.9498 11.1454 16.3898 10.8854 16.8298 11.0054V10.9854Z"
        fill="#FF9500" />
</svg>