<svg width="29" height="30" viewBox="0 0 29 30" fill="none" xmlns="http://www.w3.org/2000/svg">
<path d="M19.1623 1.53592C19.1623 2.03982 19.4732 2.48625 19.9274 2.69357C22.851 4.02821 25.2066 6.41032 26.5264 9.36679C26.7315 9.82605 27.1729 10.1405 27.6713 10.1405C28.4799 10.1405 29.0548 9.34543 28.7321 8.5956C27.1689 4.96184 24.2835 2.04396 20.69 0.463107C19.9485 0.136899 19.1623 0.718202 19.1623 1.53592ZM8.33458 0.463107C9.07606 0.136899 9.86232 0.718202 9.86232 1.53592C9.86232 2.03982 9.55136 2.48625 9.09719 2.69357C6.17357 4.02821 3.81794 6.41032 2.49811 9.36679C2.2931 9.82605 1.85163 10.1405 1.35332 10.1405C0.544711 10.1405 -0.0301489 9.34543 0.292435 8.5956C1.85572 4.96184 4.74118 2.04396 8.33458 0.463107ZM19.1623 28.1496C19.1623 27.6456 19.4732 27.1992 19.9274 26.9919C22.851 25.6572 25.2066 23.2751 26.5264 20.3187C26.7315 19.8594 27.1729 19.545 27.6713 19.545C28.4799 19.545 29.0548 20.34 28.7321 21.0898C27.1689 24.7237 24.2835 27.6416 20.69 29.2223C19.9485 29.5486 19.1623 28.9673 19.1623 28.1496ZM2.49811 20.3187C2.2931 19.8594 1.85163 19.545 1.35332 19.545C0.544695 19.545 -0.0301489 20.34 0.292435 21.0898C1.85572 24.7237 4.74118 27.6416 8.33456 29.2223C9.07606 29.5486 9.86232 28.9673 9.86232 28.1496C9.86232 27.6456 9.55136 27.1992 9.09719 26.9919C6.17357 25.6572 3.81793 23.2751 2.49811 20.3187ZM14.5123 6.22208C14.2126 6.22208 13.9168 6.23767 13.6256 6.26805C12.987 6.33468 12.4158 5.86516 12.3499 5.21935C12.2841 4.57354 12.7484 3.99599 13.387 3.92936C13.7573 3.89072 14.1327 3.87097 14.5123 3.87097C19.6761 3.87097 23.995 7.51774 25.0926 12.4023C25.2348 13.0354 24.8427 13.6652 24.2167 13.8091C23.5906 13.953 22.9677 13.5564 22.8254 12.9233C21.9631 9.08574 18.5669 6.22208 14.5123 6.22208ZM10.05 6.06634C10.4099 6.60393 10.2708 7.33482 9.73919 7.69885C7.47291 9.25071 5.98742 11.8715 5.98742 14.8428C5.98742 16.6332 6.52585 18.2928 7.44778 19.6696C7.80777 20.2072 7.66863 20.9381 7.13703 21.302C6.60541 21.6662 5.88262 21.5254 5.52265 20.9878C4.34837 19.2342 3.66243 17.1177 3.66243 14.8428C3.66243 11.0587 5.55782 7.72266 8.43559 5.75209C8.96719 5.38806 9.68998 5.52875 10.05 6.06634ZM24.1697 16.2613C24.7895 16.4301 25.1569 17.0751 24.9899 17.702C23.7458 22.3743 19.5278 25.8146 14.5123 25.8146C12.6965 25.8146 10.9816 25.3626 9.47512 24.5627C8.90668 24.261 8.68781 23.5503 8.98626 22.9754C9.28469 22.4006 9.98745 22.1793 10.5559 22.4811C11.7371 23.1082 13.082 23.4635 14.5123 23.4635C18.4502 23.4635 21.7672 20.7626 22.7448 17.0908C22.9117 16.4638 23.5497 16.0925 24.1697 16.2613ZM14.5123 8.57318C11.0882 8.57318 8.3124 11.3802 8.3124 14.8428C8.3124 18.3053 11.0882 21.1124 14.5123 21.1124C17.9364 21.1124 20.7123 18.3053 20.7123 14.8428C20.7123 11.3802 17.9364 8.57318 14.5123 8.57318Z" fill="#004073"/>
</svg>
