<svg width="20" height="20" viewBox="0 0 20 20" fill="none" xmlns="http://www.w3.org/2000/svg">
<path fill-rule="evenodd" clip-rule="evenodd" d="M8.74805 5.59679V16.2034L16.7669 8.18455C17.2746 7.67687 17.2746 6.85375 16.7669 6.34607L13.3021 2.88125C12.7944 2.37357 11.9713 2.37357 11.4636 2.88125L8.74805 5.59679Z" fill="#FF9500" fill-opacity="0.4"/>
<path d="M20 14.1667V18.3333C20 19.2667 19.2667 20 18.3333 20H7.93333L15.4333 12.5H18.3333C19.2667 12.5 20 13.2667 20 14.1667ZM0 16.2667V1.66667C0 0.733333 0.733333 0 1.66667 0H5.83333C6.76667 0 7.5 0.733333 7.5 1.66667V16.2667C7.5 18.3333 5.83333 20 3.76667 20C1.7 20 0 18.3333 0 16.2667ZM3.73333 17.9333C4.66667 17.9333 5.4 17.2 5.4 16.2667C5.4 15.3333 4.66667 14.6 3.73333 14.6C2.8 14.6 2.06667 15.3333 2.06667 16.2667C2.06667 17.2 2.83333 17.9333 3.73333 17.9333Z" fill="#FF9500"/>
</svg>
