<svg width="18" height="18" viewBox="0 0 18 18" fill="none" xmlns="http://www.w3.org/2000/svg">
    <g clip-path="url(#clip0_14_5683)">
        <path
            d="M1.45822 12L2.13206 11.8431L1.45822 12ZM1.45822 6.55385L2.13206 6.71077L1.45822 6.55385ZM16.5321 6.55385L15.8582 6.71077L16.5321 6.55385ZM16.5321 12L15.8582 11.8431L16.5321 12ZM11.649 16.9938L11.8151 17.6677L11.649 16.9938ZM6.33206 16.9938L6.49822 16.32L6.33206 16.9938ZM6.33206 1.56L6.49822 2.23385L6.33206 1.56ZM11.649 1.56L11.8151 0.886154L11.649 1.56ZM6.06437 0.692308C6.06437 0.313846 5.75052 0 5.37206 0C4.9936 0 4.67975 0.313846 4.67975 0.692308H6.06437ZM4.67975 3.00923C4.67975 3.38769 4.9936 3.70154 5.37206 3.70154C5.75052 3.70154 6.06437 3.38769 6.06437 3.00923H4.67975ZM13.3198 0.692308C13.3198 0.313846 13.0059 0 12.6274 0C12.249 0 11.9351 0.313846 11.9351 0.692308H13.3198ZM11.9351 3.00923C11.9351 3.38769 12.249 3.70154 12.6274 3.70154C13.0059 3.70154 13.3198 3.38769 13.3198 3.00923H11.9351ZM2.13206 11.8431C1.74437 10.1538 1.74437 8.4 2.13206 6.71077L0.784369 6.39692C0.350523 8.28923 0.350523 10.2646 0.784369 12.1569L2.13206 11.8431ZM15.8582 6.71077C16.2459 8.4 16.2459 10.1538 15.8582 11.8431L17.2059 12.1569C17.6398 10.2646 17.6398 8.29846 17.2059 6.40615L15.8582 6.72V6.71077ZM11.4921 16.32C9.84898 16.7169 8.14129 16.7169 6.49822 16.32L6.17514 17.6677C8.03052 18.1108 9.95975 18.1108 11.8151 17.6677L11.4921 16.32ZM6.49822 2.23385C8.14129 1.83692 9.84898 1.83692 11.4921 2.23385L11.8151 0.886154C9.95975 0.443077 8.03052 0.443077 6.17514 0.886154L6.49822 2.23385ZM6.49822 16.32C4.33822 15.8031 2.63975 14.0769 2.13206 11.8431L0.784369 12.1569C1.41206 14.88 3.49822 17.0215 6.17514 17.6677L6.49822 16.32ZM11.8151 17.6677C14.5013 17.0215 16.5874 14.88 17.2059 12.1569L15.8582 11.8431C15.3505 14.0677 13.6521 15.8031 11.4921 16.32L11.8151 17.6677ZM11.4921 2.23385C13.6521 2.75077 15.3505 4.47692 15.8582 6.71077L17.2059 6.39692C16.5782 3.67385 14.4921 1.53231 11.8151 0.886154L11.4921 2.23385ZM6.17514 0.886154C3.49822 1.53231 1.41206 3.67385 0.784369 6.40615L2.13206 6.72C2.63975 4.49538 4.33822 2.76 6.49822 2.24308L6.17514 0.895385V0.886154ZM4.67975 0.692308V3.00923H6.06437V0.692308H4.67975ZM11.9351 0.692308V3.00923H13.3198V0.692308H11.9351Z"
            fill="#FF9500" />
        <path
            d="M11.7693 13.3846H6.23088C5.85242 13.3846 5.53857 13.0708 5.53857 12.6923C5.53857 12.3139 5.85242 12 6.23088 12H11.7693C12.1478 12 12.4617 12.3139 12.4617 12.6923C12.4617 13.0708 12.1478 13.3846 11.7693 13.3846ZM11.7693 10.6154H9.00011C8.62165 10.6154 8.30781 10.3015 8.30781 9.92308C8.30781 9.54462 8.62165 9.23077 9.00011 9.23077H11.7693C12.1478 9.23077 12.4617 9.54462 12.4617 9.92308C12.4617 10.3015 12.1478 10.6154 11.7693 10.6154Z"
            fill="#FF9500" />
    </g>
    <defs>
        <clipPath id="clip0_14_5683">
            <rect width="17.0769" height="18" fill="white" transform="translate(0.461426)" />
        </clipPath>
    </defs>
</svg>