<svg width="28" height="28" viewBox="0 0 28 28" fill="none" xmlns="http://www.w3.org/2000/svg">
<path fill-rule="evenodd" clip-rule="evenodd" d="M14 28C21.732 28 28 21.732 28 14C28 6.26801 21.732 0 14 0C6.26801 0 0 6.26801 0 14C0 21.732 6.26801 28 14 28ZM15.025 13.981C15.025 11.4718 13.0048 9.4375 10.5126 9.4375C8.02033 9.4375 6 11.4718 6 13.981C6 16.4903 8.02049 18.5244 10.5126 18.5244C13.0046 18.5244 15.025 16.4903 15.025 13.981ZM19.9751 13.981C19.9751 11.6185 18.9649 9.70365 17.7188 9.70365C16.4727 9.70365 15.4627 11.6191 15.4627 13.981C15.4627 16.3429 16.4728 18.2584 17.7189 18.2584C18.9651 18.2584 19.9752 16.3429 19.9752 13.981H19.9751ZM22 13.981C22 11.8647 21.6446 10.1492 21.2065 10.1492C20.7683 10.1492 20.4131 11.8649 20.4131 13.981C20.4131 16.0972 20.7681 17.8129 21.2065 17.8129C21.6448 17.8129 22 16.0967 22 13.981Z" fill="white"/>
</svg>
