<svg width="29" height="30" viewBox="0 0 29 30" fill="none" xmlns="http://www.w3.org/2000/svg">
<g clip-path="url(#clip0_2_3686)">
<path fill-rule="evenodd" clip-rule="evenodd" d="M28.3729 9.72618C28.0442 9.34084 27.5755 9.10905 27.0759 9.08144V5.18725C27.0759 3.29011 25.5495 1.7467 23.6736 1.7467H18.149C16.3109 1.7467 15.3352 2.53101 14.6225 3.10387L14.6215 3.10464L14.6204 3.10555C14.0479 3.56583 13.7021 3.84395 12.9611 3.84395H4.97666C3.30497 3.84395 1.94472 5.1842 1.94472 6.83196V9.08144C1.4453 9.10913 0.976364 9.34084 0.647828 9.72618C0.297091 10.137 0.14052 10.6823 0.219115 11.2195L2.43524 26.3448C2.5693 27.2605 3.34643 27.9387 4.2618 27.9387H24.7586C25.6741 27.9387 26.4512 27.2605 26.5853 26.3448L28.8014 11.2195C28.8801 10.6823 28.7239 10.137 28.3729 9.72618ZM24.8523 9.07886H4.1682V6.83196C4.1682 6.36886 4.57927 6.09202 4.97666 6.09202H12.9612C14.4792 6.09202 15.3256 5.41153 16.0055 4.86473C16.6327 4.35946 17.0867 3.99493 18.149 3.99493H23.6736C24.3234 3.99493 24.8523 4.52968 24.8523 5.18725V9.07886ZM16.8662 13.5918C16.989 13.2357 16.8151 12.842 16.4777 12.7124C16.1404 12.5827 15.7674 12.7663 15.6446 13.1225L12.5322 22.1497C12.4094 22.5058 12.5834 22.8996 12.9207 23.0292C13.258 23.1588 13.631 22.9752 13.7538 22.6191L16.8662 13.5918ZM12.0666 20.4633L9.76846 18.0373L12.0666 15.6112C12.3204 15.3433 12.3204 14.9088 12.0666 14.6408C11.8127 14.3729 11.4012 14.3729 11.1473 14.6408L8.3896 17.5521C8.13576 17.82 8.13576 18.2545 8.3896 18.5225L11.1473 21.4337C11.4012 21.7017 11.8127 21.7017 12.0666 21.4337C12.3204 21.1658 12.3204 20.7313 12.0666 20.4633ZM17.3319 15.6112L19.63 18.0373L17.3319 20.4633C17.078 20.7313 17.078 21.1658 17.3319 21.4337C17.5857 21.7017 17.9973 21.7017 18.2511 21.4337L21.0088 18.5225C21.2627 18.2545 21.2627 17.82 21.0088 17.5521L18.2511 14.6408C17.9973 14.3729 17.5857 14.3729 17.3319 14.6408C17.078 14.9088 17.078 15.3433 17.3319 15.6112Z" fill="#004073"/>
</g>
<defs>
<clipPath id="clip0_2_3686">
<rect width="28.6222" height="28.9438" fill="white" transform="translate(0.199219 0.370789)"/>
</clipPath>
</defs>
</svg>
