<svg width="21" height="20" viewBox="0 0 21 20" fill="none" xmlns="http://www.w3.org/2000/svg">
    <g clip-path="url(#clip0_14_5838)">
        <path opacity="0.12"
            d="M13.8675 3.1665L10.9012 0.200238C10.8271 0.126081 10.7529 0.0519247 10.6788 0.0519247C10.5305 -0.0222317 10.308 -0.0222317 10.0855 0.0519247C10.0114 0.126081 9.9372 0.126081 9.86304 0.200238L6.89679 3.1665C6.60016 3.46312 6.60016 3.90806 6.89679 4.20469C7.19341 4.50131 7.63835 4.50131 7.93498 4.20469L9.64058 2.49909V12.5844C9.64058 13.0293 9.9372 13.3259 10.3821 13.3259C10.8271 13.3259 11.1237 13.0293 11.1237 12.5844V2.49909L12.8293 4.20469C12.9776 4.353 13.1259 4.42716 13.3484 4.42716C13.5709 4.42716 13.7192 4.353 13.8675 4.20469C14.1641 3.90806 14.1641 3.46312 13.8675 3.1665Z"
            fill="#004073" />
        <path opacity="0.4"
            d="M20.393 9.32889L15.9436 6.73341C15.8695 6.73341 15.7953 6.65926 15.7953 6.65926L14.0897 5.76938C13.5706 5.91769 13.0515 5.99185 12.6066 5.76938V12.5918C12.6066 13.8524 11.6426 14.8165 10.3819 14.8165C9.12125 14.8165 8.15721 13.8524 8.15721 12.5918V5.76196C7.63812 5.91028 7.11902 5.91028 6.67408 5.76196L5.04264 6.726C4.96848 6.726 4.89433 6.80015 4.89433 6.80015L0.444939 9.40305C0.148313 9.4772 0 9.69967 0 9.9963V13.7041C0 14.0007 0.148313 14.2232 0.370782 14.3715L4.82017 16.967C4.89433 16.967 4.96848 17.0412 4.96848 17.0412L10.0111 19.9333C10.1594 20.0074 10.2336 20.0074 10.3819 20.0074C10.5302 20.0074 10.6044 20.0074 10.7527 19.9333L15.7953 17.0412C15.8695 17.0412 15.9436 16.967 15.9436 16.967L20.393 14.3715C20.6155 14.2232 20.7638 14.0007 20.7638 13.7041V9.9963C20.7638 9.69967 20.6155 9.4772 20.393 9.32889Z"
            fill="#004073" />
    </g>
    <defs>
        <clipPath id="clip0_14_5838">
            <rect width="20.7638" height="20" fill="white" />
        </clipPath>
    </defs>
</svg>