<svg width="22" height="22" viewBox="0 0 22 22" fill="none" xmlns="http://www.w3.org/2000/svg">
    <path
        d="M20.8528 9.58204V8.73236C20.8528 7.1786 19.7866 5.87251 18.3484 5.49827L18.3458 4.09732C18.3458 2.73011 17.2332 1.61748 15.8654 1.61748H15.7342L4.12586 5.2186C3.86148 5.23388 3.61064 5.295 3.37508 5.38698H3.3448C1.50071 5.38698 0 6.88769 0 8.73236V17.0371C0 18.8815 1.50042 20.3825 3.3448 20.3825H17.508C19.3521 20.3825 20.8528 18.8818 20.8528 17.0371V15.9326C21.5225 15.6734 22 15.0241 22 14.2635V11.2506C21.9997 10.4905 21.5225 9.84124 20.8528 9.58204ZM20.2698 14.2632C20.2698 14.2972 20.243 14.324 20.209 14.324H15.5263C15.4923 14.324 15.4658 14.2972 15.4658 14.2632V11.2506C15.4658 11.2174 15.4929 11.1903 15.5263 11.1903H20.209C20.2424 11.1903 20.2698 11.2174 20.2698 11.2506V14.2632ZM15.9724 3.35518C16.3359 3.40708 16.6159 3.7202 16.6159 4.09876L16.6182 5.38727H9.42202L15.9724 3.35518ZM17.508 18.6523H3.34509C2.45332 18.6523 1.73021 17.9289 1.73021 17.0369V8.73236C1.73021 7.84001 2.45332 7.1169 3.34509 7.1169H17.508C18.4 7.1169 19.1228 7.84001 19.1228 8.73236V9.46037H15.5263C14.5391 9.46037 13.7359 10.2633 13.7359 11.2506V14.2632C13.7359 15.2507 14.5391 16.054 15.5263 16.054H19.1228V17.0371C19.1228 17.9289 18.4 18.6523 17.508 18.6523Z"
        fill="#FF9500" />
</svg>