<svg width="15" height="14" viewBox="0 0 15 14" fill="none" xmlns="http://www.w3.org/2000/svg">
<path d="M7.35829 13.6917C7.19024 13.5236 7.10224 13.3097 7.09429 13.05C7.08696 12.7903 7.16732 12.5764 7.33538 12.4084L11.827 7.91669H1.58329C1.32357 7.91669 1.10571 7.82869 0.929709 7.65269C0.754321 7.4773 0.666626 7.25975 0.666626 7.00002C0.666626 6.7403 0.754321 6.52244 0.929709 6.34644C1.10571 6.17105 1.32357 6.08336 1.58329 6.08336H11.827L7.33538 1.59169C7.16732 1.42364 7.08696 1.20975 7.09429 0.950024C7.10224 0.690302 7.19024 0.476413 7.35829 0.308357C7.52635 0.140302 7.74024 0.0562744 7.99996 0.0562744C8.25968 0.0562744 8.47357 0.140302 8.64163 0.308357L14.6916 6.35836C14.7833 6.43475 14.8484 6.53008 14.8869 6.64436C14.9248 6.75925 14.9437 6.8778 14.9437 7.00002C14.9437 7.12225 14.9248 7.23683 14.8869 7.34377C14.8484 7.45072 14.7833 7.55002 14.6916 7.64169L8.64163 13.6917C8.47357 13.8597 8.25968 13.9438 7.99996 13.9438C7.74024 13.9438 7.52635 13.8597 7.35829 13.6917Z" fill="white"/>
</svg>
