<svg width="16" height="18" viewBox="0 0 16 18" fill="none" xmlns="http://www.w3.org/2000/svg">
<path d="M3.41699 17.25C2.91283 17.25 2.48138 17.0706 2.12266 16.7119C1.76333 16.3526 1.58366 15.9208 1.58366 15.4167V3.5C1.32394 3.5 1.10608 3.41231 0.930076 3.23692C0.754687 3.06092 0.666992 2.84306 0.666992 2.58333C0.666992 2.32361 0.754687 2.10575 0.930076 1.92975C1.10608 1.75436 1.32394 1.66667 1.58366 1.66667H5.25033C5.25033 1.40694 5.33833 1.18908 5.51433 1.01308C5.68971 0.837694 5.90727 0.75 6.16699 0.75H9.83366C10.0934 0.75 10.3112 0.837694 10.4872 1.01308C10.6626 1.18908 10.7503 1.40694 10.7503 1.66667H14.417C14.6767 1.66667 14.8943 1.75436 15.0697 1.92975C15.2457 2.10575 15.3337 2.32361 15.3337 2.58333C15.3337 2.84306 15.2457 3.06092 15.0697 3.23692C14.8943 3.41231 14.6767 3.5 14.417 3.5V15.4167C14.417 15.9208 14.2376 16.3526 13.8789 16.7119C13.5196 17.0706 13.0878 17.25 12.5837 17.25H3.41699ZM5.25033 12.6667C5.25033 12.9264 5.33833 13.1439 5.51433 13.3193C5.68971 13.4953 5.90727 13.5833 6.16699 13.5833C6.42671 13.5833 6.64458 13.4953 6.82058 13.3193C6.99597 13.1439 7.08366 12.9264 7.08366 12.6667V6.25C7.08366 5.99028 6.99597 5.77242 6.82058 5.59642C6.64458 5.42103 6.42671 5.33333 6.16699 5.33333C5.90727 5.33333 5.68971 5.42103 5.51433 5.59642C5.33833 5.77242 5.25033 5.99028 5.25033 6.25V12.6667ZM8.91699 12.6667C8.91699 12.9264 9.00499 13.1439 9.18099 13.3193C9.35638 13.4953 9.57394 13.5833 9.83366 13.5833C10.0934 13.5833 10.3112 13.4953 10.4872 13.3193C10.6626 13.1439 10.7503 12.9264 10.7503 12.6667V6.25C10.7503 5.99028 10.6626 5.77242 10.4872 5.59642C10.3112 5.42103 10.0934 5.33333 9.83366 5.33333C9.57394 5.33333 9.35638 5.42103 9.18099 5.59642C9.00499 5.77242 8.91699 5.99028 8.91699 6.25V12.6667Z" fill="#006796"/>
</svg>
