<svg width="20" height="20" viewBox="0 0 20 20" fill="none" xmlns="http://www.w3.org/2000/svg">
<path d="M19.6064 3.93L10.785 0.0596523C10.6957 0.0203548 10.5984 0 10.5 0C10.4016 0 10.3043 0.0203548 10.215 0.0596523L1.39357 3.93C1.27579 3.98182 1.1761 4.06466 1.10635 4.16871C1.03659 4.27275 0.999681 4.39363 1 4.517V15.483C0.999681 15.6064 1.03659 15.7273 1.10635 15.8313C1.1761 15.9353 1.27579 16.0182 1.39357 16.07L10.215 19.9403C10.3043 19.9796 10.4016 20 10.5 20C10.5984 20 10.6957 19.9796 10.785 19.9403L19.6064 16.07C19.7242 16.0182 19.8239 15.9353 19.8937 15.8313C19.9634 15.7273 20.0003 15.6064 20 15.483V4.517C20.0003 4.39363 19.9634 4.27275 19.8937 4.16871C19.8239 4.06466 19.7242 3.98182 19.6064 3.93ZM10.5 7.67779L3.30036 4.517L10.5 1.35622L17.6996 4.517L10.5 7.67779ZM18.6429 15.0702L11.1786 18.3471V8.80019L18.6429 5.5233V15.0702Z" fill="#FF9500"/>
<path d="M11.1778 19V8.81132L19 5.41509V15.6038L11.1778 19Z" fill="#FF9500" fill-opacity="0.4"/>
<path d="M17.9333 4.39623L10.4667 7.79245L3 4.39623L10.4667 1L17.9333 4.39623Z" fill="#FF9500" fill-opacity="0.4"/>
</svg>
