<svg width="20" height="20" viewBox="0 0 20 20" fill="none" xmlns="http://www.w3.org/2000/svg">
<path d="M8.71634 11.65L6.72259 9.65629C6.55454 9.48824 6.34829 9.40421 6.10384 9.40421C5.8594 9.40421 5.64551 9.49587 5.46217 9.67921C5.29412 9.84726 5.21009 10.0612 5.21009 10.3209C5.21009 10.5806 5.29412 10.7945 5.46217 10.9625L8.07467 13.575C8.24273 13.7431 8.45662 13.8271 8.71634 13.8271C8.97606 13.8271 9.18995 13.7431 9.35801 13.575L14.5601 8.37296C14.7281 8.2049 14.8122 7.99865 14.8122 7.75421C14.8122 7.50976 14.7205 7.29587 14.5372 7.11254C14.3691 6.94449 14.1552 6.86046 13.8955 6.86046C13.6358 6.86046 13.4219 6.94449 13.2538 7.11254L8.71634 11.65ZM9.99967 19.1667C8.73162 19.1667 7.53995 18.9259 6.42467 18.4444C5.3094 17.9634 4.33926 17.3105 3.51426 16.4855C2.68926 15.6605 2.03629 14.6903 1.55534 13.575C1.07379 12.4598 0.833008 11.2681 0.833008 10C0.833008 8.73199 1.07379 7.54032 1.55534 6.42504C2.03629 5.30976 2.68926 4.33962 3.51426 3.51462C4.33926 2.68962 5.3094 2.03635 6.42467 1.55479C7.53995 1.07385 8.73162 0.833374 9.99967 0.833374C11.2677 0.833374 12.4594 1.07385 13.5747 1.55479C14.69 2.03635 15.6601 2.68962 16.4851 3.51462C17.3101 4.33962 17.9631 5.30976 18.444 6.42504C18.9256 7.54032 19.1663 8.73199 19.1663 10C19.1663 11.2681 18.9256 12.4598 18.444 13.575C17.9631 14.6903 17.3101 15.6605 16.4851 16.4855C15.6601 17.3105 14.69 17.9634 13.5747 18.4444C12.4594 18.9259 11.2677 19.1667 9.99967 19.1667Z" fill="#4AD377"/>
</svg>
