<svg width="24" height="24" viewBox="0 0 24 24" fill="none" xmlns="http://www.w3.org/2000/svg">
    <mask id="mask0_2_2552" style="mask-type:alpha" maskUnits="userSpaceOnUse" x="0" y="0"
        width="24" height="24">
        <rect x="24" width="24" height="24" transform="rotate(90 24 0)" fill="#D9D9D9" />
    </mask>
    <g mask="url(#mask0_2_2552)">
        <path
            d="M9.05002 12C9.05002 11.8667 9.07102 11.7417 9.11302 11.625C9.15436 11.5083 9.22502 11.4 9.32502 11.3L13.95 6.675C14.1334 6.49167 14.3627 6.40433 14.638 6.413C14.9127 6.421 15.1417 6.51667 15.325 6.7C15.5084 6.88333 15.6 7.11667 15.6 7.4C15.6 7.68333 15.5084 7.91667 15.325 8.1L11.425 12L15.35 15.925C15.5334 16.1083 15.621 16.3377 15.613 16.613C15.6044 16.8877 15.5084 17.1167 15.325 17.3C15.1417 17.4833 14.9084 17.575 14.625 17.575C14.3417 17.575 14.1084 17.4833 13.925 17.3L9.32502 12.7C9.22502 12.6 9.15436 12.4917 9.11302 12.375C9.07102 12.2583 9.05002 12.1333 9.05002 12Z"
            fill="#FF9500" />
    </g>
</svg>