<svg width="22" height="18" viewBox="0 0 22 18" fill="none" xmlns="http://www.w3.org/2000/svg">
<path d="M3.66797 14.5C3.1638 14.5 2.73236 14.3206 2.37364 13.9619C2.0143 13.6026 1.83464 13.1708 1.83464 12.6667V2.58333C1.83464 2.07917 2.0143 1.64742 2.37364 1.28808C2.73236 0.929361 3.1638 0.75 3.66797 0.75H18.3346C18.8388 0.75 19.2706 0.929361 19.6299 1.28808C19.9886 1.64742 20.168 2.07917 20.168 2.58333V12.6667C20.168 13.1708 19.9886 13.6026 19.6299 13.9619C19.2706 14.3206 18.8388 14.5 18.3346 14.5H3.66797ZM1.83464 17.25C1.57491 17.25 1.35736 17.162 1.18197 16.986C1.00597 16.8106 0.917969 16.5931 0.917969 16.3333C0.917969 16.0736 1.00597 15.8561 1.18197 15.6807C1.35736 15.5047 1.57491 15.4167 1.83464 15.4167H20.168C20.4277 15.4167 20.6452 15.5047 20.8206 15.6807C20.9966 15.8561 21.0846 16.0736 21.0846 16.3333C21.0846 16.5931 20.9966 16.8106 20.8206 16.986C20.6452 17.162 20.4277 17.25 20.168 17.25H1.83464Z" fill="white"/>
</svg>
