<svg width="22" height="22" viewBox="0 0 22 22" fill="none" xmlns="http://www.w3.org/2000/svg">
<mask id="mask0_1864_13235" style="mask-type:alpha" maskUnits="userSpaceOnUse" x="0" y="0" width="22" height="22">
<rect width="22" height="22" fill="#D9D9D9"/>
</mask>
<g mask="url(#mask0_1864_13235)">
<path d="M3.66797 16.5C3.1638 16.5 2.73236 16.3206 2.37364 15.9619C2.0143 15.6026 1.83464 15.1708 1.83464 14.6667V4.58333C1.83464 4.07917 2.0143 3.64742 2.37364 3.28808C2.73236 2.92936 3.1638 2.75 3.66797 2.75H18.3346C18.8388 2.75 19.2706 2.92936 19.6299 3.28808C19.9886 3.64742 20.168 4.07917 20.168 4.58333V14.6667C20.168 15.1708 19.9886 15.6026 19.6299 15.9619C19.2706 16.3206 18.8388 16.5 18.3346 16.5H3.66797ZM1.83464 19.25C1.57491 19.25 1.35736 19.162 1.18197 18.986C1.00597 18.8106 0.917969 18.5931 0.917969 18.3333C0.917969 18.0736 1.00597 17.8561 1.18197 17.6807C1.35736 17.5047 1.57491 17.4167 1.83464 17.4167H20.168C20.4277 17.4167 20.6452 17.5047 20.8206 17.6807C20.9966 17.8561 21.0846 18.0736 21.0846 18.3333C21.0846 18.5931 20.9966 18.8106 20.8206 18.986C20.6452 19.162 20.4277 19.25 20.168 19.25H1.83464Z" fill="#004073"/>
</g>
</svg>
