<svg width="14" height="15" viewBox="0 0 14 15" fill="none" xmlns="http://www.w3.org/2000/svg">
<g clip-path="url(#clip0_970_9394)">
<path d="M11.2282 0.241211H5.34642C4.49206 0.241211 3.79694 0.936323 3.79694 1.79069V1.98086H2.77213C1.91777 1.98086 1.22266 2.67597 1.22266 3.53034V12.6918C1.22266 13.5462 1.91777 14.2413 2.77213 14.2413H8.65387C9.50823 14.2413 10.2033 13.5462 10.2033 12.6918V12.5016H11.2281C12.0825 12.5016 12.7776 11.8065 12.7776 10.9522V1.79069C12.7776 0.936323 12.0825 0.241211 11.2282 0.241211ZM9.20386 12.6918C9.20386 12.995 8.95712 13.2418 8.65394 13.2418H2.77213C2.46889 13.2418 2.22215 12.995 2.22215 12.6918V3.53027C2.22215 3.22702 2.46889 2.98028 2.77213 2.98028H8.65387C8.95712 2.98028 9.20379 3.22702 9.20379 3.53027V12.6918H9.20386ZM11.7781 10.9522C11.7781 11.2554 11.5314 11.5021 11.2282 11.5021H10.2033V3.53027C10.2033 2.6759 9.50824 1.98079 8.65394 1.98079H4.79644V1.79062C4.79644 1.48738 5.04318 1.24064 5.34642 1.24064H11.2282C11.5314 1.24064 11.7781 1.48738 11.7781 1.79062V10.9522Z" fill="#004073"/>
</g>
<defs>
<clipPath id="clip0_970_9394">
<rect width="14" height="14" fill="white" transform="translate(0 0.241211)"/>
</clipPath>
</defs>
</svg>
