<svg width="14" height="14" viewBox="0 0 14 14" fill="none" xmlns="http://www.w3.org/2000/svg">
<path fill-rule="evenodd" clip-rule="evenodd" d="M14 7C14 10.866 10.866 14 7 14C3.13401 14 0 10.866 0 7C0 3.13401 3.13401 0 7 0C10.866 0 14 3.13401 14 7ZM10.7198 5.45292C11.1032 5.05537 11.0917 4.42231 10.6941 4.03894C10.2966 3.65558 9.66352 3.66709 9.28016 4.06465L6.14286 7.31815L4.71984 5.84243C4.33648 5.44487 3.70342 5.43336 3.30586 5.81672C2.90831 6.20008 2.8968 6.83314 3.28016 7.2307L5.42301 9.45292C5.61149 9.64838 5.87134 9.75879 6.14286 9.75879C6.41438 9.75879 6.67423 9.64838 6.8627 9.45292L10.7198 5.45292Z" fill="white"/>
</svg>
