<svg width="14" height="14" viewBox="0 0 14 14" fill="none" xmlns="http://www.w3.org/2000/svg">
    <path fill-rule="evenodd" clip-rule="evenodd" d="M7 14C10.866 14 14 10.866 14 7C14 3.13401 10.866 0 7 0C3.13401 0 0 3.13401 0 7C0 10.866 3.13401 14 7 14ZM5.11189 9.56998L7 7.68187L8.88811 9.56998C9.01399 9.69585 9.16783 9.75879 9.34965 9.75879C9.53147 9.75879 9.68531 9.69585 9.81119 9.56998C9.93706 9.4441 10 9.29026 10 9.10844C10 8.92662 9.93706 8.77277 9.81119 8.6469L7.92308 6.75879L9.81119 4.87068C9.93706 4.7448 10 4.59096 10 4.40914C10 4.22732 9.93706 4.07347 9.81119 3.9476C9.68531 3.82173 9.53147 3.75879 9.34965 3.75879C9.16783 3.75879 9.01399 3.82173 8.88811 3.9476L7 5.83571L5.11189 3.9476C4.98601 3.82173 4.83217 3.75879 4.65035 3.75879C4.46853 3.75879 4.31469 3.82173 4.18881 3.9476C4.06294 4.07347 4 4.22732 4 4.40914C4 4.59096 4.06294 4.7448 4.18881 4.87068L6.07692 6.75879L4.18881 8.6469C4.06294 8.77277 4 8.92662 4 9.10844C4 9.29026 4.06294 9.4441 4.18881 9.56998C4.31469 9.69585 4.46853 9.75879 4.65035 9.75879C4.83217 9.75879 4.98601 9.69585 5.11189 9.56998Z" fill="white"/>
</svg>
