<svg width="21" height="20" viewBox="0 0 21 20" fill="none" xmlns="http://www.w3.org/2000/svg">
<path d="M0.954107 7.23157H7.59438C7.76215 7.23157 7.89809 7.09587 7.89809 6.92853V0.303038C7.89809 0.1357 7.76215 0 7.59438 0H0.954107C0.786273 0 0.650391 0.1357 0.650391 0.303038V6.92853C0.650391 7.09593 0.786273 7.23157 0.954107 7.23157Z" fill="#FF9500"/>
<path d="M4.48822 11.6039C4.36971 11.4856 4.17728 11.4856 4.05877 11.6039L0.110458 15.5434C-0.00817351 15.6617 -0.00817351 15.8536 0.110458 15.9719L4.05877 19.9114C4.11805 19.9706 4.19581 20.0001 4.2735 20.0001C4.35119 20.0001 4.429 19.9706 4.48822 19.9114L8.43653 15.9719C8.55517 15.8535 8.55517 15.6617 8.43653 15.5434L4.48822 11.6039Z" fill="#FF9500"/>
<path d="M13.9811 7.22284H17.8048C17.9133 7.22284 18.0135 7.16508 18.0678 7.07132L19.9796 3.76737C20.0339 3.67361 20.0339 3.55809 19.9796 3.46433L18.0678 0.160308C18.0136 0.066548 17.9133 0.00878906 17.8048 0.00878906H13.9811C13.8726 0.00878906 13.7723 0.066548 13.7181 0.160308L11.8063 3.46433C11.7521 3.55809 11.7521 3.67361 11.8063 3.76737L13.7181 7.07132C13.7724 7.16508 13.8726 7.22284 13.9811 7.22284Z" fill="#FF9500" fill-opacity="0.4"/>
<path d="M16.1599 11.9053C14.0309 11.9053 12.2988 13.6334 12.2988 15.7575C12.2988 17.8817 14.0309 19.6099 16.1599 19.6099C18.2888 19.6099 20.0209 17.8818 20.0209 15.7575C20.0208 13.6334 18.2888 11.9053 16.1599 11.9053Z" fill="#FF9500"/>
<path d="M3.96846 7.6665C3.85104 7.6665 3.75586 7.76148 3.75586 7.87863V10.6666C3.75586 10.7837 3.85104 10.8787 3.96846 10.8787H4.45441C4.57182 10.8787 4.66701 10.7837 4.66701 10.6666V7.87863C4.66701 7.76148 4.57182 7.6665 4.45441 7.6665H3.96846V7.6665Z" fill="#FF9500"/>
<path d="M15.8571 7.76758C15.7397 7.76758 15.6445 7.86255 15.6445 7.9797V10.7677C15.6445 10.8848 15.7397 10.9798 15.8571 10.9798H16.3431C16.4605 10.9798 16.5557 10.8848 16.5557 10.7677V7.9797C16.5557 7.86255 16.4605 7.76758 16.3431 7.76758H15.8571Z" fill="#FF9500"/>
<path d="M11.0094 3.23242H8.88838C8.77091 3.23242 8.67578 3.32739 8.67578 3.44455V3.92941C8.67578 4.04656 8.77091 4.14153 8.88838 4.14153H11.0094C11.1268 4.14153 11.222 4.04656 11.222 3.92941V3.44455C11.222 3.32739 11.1268 3.23242 11.0094 3.23242Z" fill="#FF9500"/>
</svg>
