<svg width="29" height="30" viewBox="0 0 29 30" fill="none" xmlns="http://www.w3.org/2000/svg">
<g clip-path="url(#clip0_2_1983)">
<path d="M28.3729 9.72618C28.0442 9.34084 27.5755 9.10905 27.0759 9.08144V5.18725C27.0759 3.29011 25.5495 1.7467 23.6736 1.7467H18.149C16.3101 1.7467 15.3343 2.53171 14.6215 3.10464C14.0484 3.56547 13.7025 3.84395 12.9611 3.84395H4.97666C3.30497 3.84395 1.94472 5.1842 1.94472 6.83196V9.08144C1.4453 9.10913 0.976364 9.34084 0.647828 9.72618C0.297091 10.137 0.14052 10.6823 0.219115 11.2195L2.43524 26.3448C2.5693 27.2605 3.34643 27.9387 4.2618 27.9387H24.7586C25.6741 27.9387 26.4512 27.2605 26.5853 26.3448L28.8014 11.2195C28.8801 10.6823 28.7239 10.137 28.3729 9.72618ZM20.5856 18.0485C20.2285 18.0485 19.8932 17.9525 19.603 17.7856L17.8808 19.2605C18.0349 19.5464 18.1227 19.8741 18.1227 20.2221C18.1227 21.3337 17.2283 22.2381 16.1291 22.2381C15.0298 22.2381 14.1355 21.3337 14.1355 20.2221C14.1355 19.6259 14.393 19.0896 14.8012 18.7202L14.0896 17.1521C13.9594 17.1793 13.8245 17.1936 13.6864 17.1936C13.2276 17.1936 12.8048 17.0357 12.4675 16.7712L10.3661 17.9367C10.4068 18.097 10.4286 18.265 10.4286 18.438C10.4286 19.5496 9.53431 20.454 8.43506 20.454C7.33582 20.454 6.44149 19.5496 6.44149 18.438C6.44149 17.3264 7.3359 16.4221 8.43506 16.4221C8.98206 16.4221 9.47822 16.6462 9.83886 17.0082L11.8277 15.9052C11.7409 15.6794 11.6928 15.4341 11.6928 15.1776C11.6928 14.0659 12.5871 13.1616 13.6864 13.1616C14.7857 13.1616 15.6799 14.066 15.6799 15.1776C15.6799 15.7649 15.4301 16.2942 15.0325 16.6631L15.7495 18.2432C15.8725 18.2191 15.9993 18.2061 16.1291 18.2061C16.4997 18.2061 16.8468 18.3092 17.1444 18.4881L18.8517 17.0259C18.6867 16.7324 18.5919 16.3935 18.5919 16.0324C18.5919 14.9208 19.4863 14.0165 20.5855 14.0165C21.6847 14.0165 22.579 14.9209 22.579 16.0324C22.5791 17.1441 21.6848 18.0485 20.5856 18.0485ZM24.8523 9.07886H4.1682V6.83196C4.1682 6.36886 4.57927 6.09202 4.97666 6.09202H12.9612C14.4792 6.09202 15.3256 5.41153 16.0055 4.86473C16.6327 4.35946 17.0867 3.99493 18.149 3.99493H23.6736C24.3234 3.99493 24.8523 4.52968 24.8523 5.18725V9.07886H24.8523Z" fill="white"/>
</g>
<defs>
<clipPath id="clip0_2_1983">
<rect width="28.6222" height="28.9438" fill="white" transform="translate(0.199219 0.370789)"/>
</clipPath>
</defs>
</svg>
