<svg width="16" height="20" viewBox="0 0 16 20" fill="none" xmlns="http://www.w3.org/2000/svg">
<path d="M5.24935 15.5002H10.7493C11.0091 15.5002 11.2269 15.4122 11.4029 15.2362C11.5783 15.0608 11.666 14.8432 11.666 14.5835C11.666 14.3238 11.5783 14.1062 11.4029 13.9308C11.2269 13.7548 11.0091 13.6668 10.7493 13.6668H5.24935C4.98963 13.6668 4.77207 13.7548 4.59668 13.9308C4.42068 14.1062 4.33268 14.3238 4.33268 14.5835C4.33268 14.8432 4.42068 15.0608 4.59668 15.2362C4.77207 15.4122 4.98963 15.5002 5.24935 15.5002ZM5.24935 11.8335H10.7493C11.0091 11.8335 11.2269 11.7455 11.4029 11.5695C11.5783 11.3941 11.666 11.1766 11.666 10.9168C11.666 10.6571 11.5783 10.4392 11.4029 10.2632C11.2269 10.0879 11.0091 10.0002 10.7493 10.0002H5.24935C4.98963 10.0002 4.77207 10.0879 4.59668 10.2632C4.42068 10.4392 4.33268 10.6571 4.33268 10.9168C4.33268 11.1766 4.42068 11.3941 4.59668 11.5695C4.77207 11.7455 4.98963 11.8335 5.24935 11.8335ZM2.49935 19.1668C1.99518 19.1668 1.56374 18.9875 1.20502 18.6287C0.845682 18.2694 0.666016 17.8377 0.666016 17.3335V2.66683C0.666016 2.16266 0.845682 1.73091 1.20502 1.37158C1.56374 1.01286 1.99518 0.833496 2.49935 0.833496H9.07643C9.32088 0.833496 9.55402 0.87933 9.77585 0.970996C9.99707 1.06266 10.1917 1.19252 10.3598 1.36058L14.8056 5.80641C14.9737 5.97447 15.1035 6.16911 15.1952 6.39033C15.2868 6.61216 15.3327 6.8453 15.3327 7.08975V17.3335C15.3327 17.8377 15.1533 18.2694 14.7946 18.6287C14.4353 18.9875 14.0035 19.1668 13.4993 19.1668H2.49935ZM8.91602 6.3335C8.91602 6.59322 9.00402 6.81077 9.18002 6.98616C9.3554 7.16216 9.57296 7.25016 9.83268 7.25016H13.4993L8.91602 2.66683V6.3335Z" fill="#004073"/>
</svg>
