<svg width="28" height="28" viewBox="0 0 28 28" fill="none" xmlns="http://www.w3.org/2000/svg">
    <path fill-rule="evenodd" clip-rule="evenodd"
        d="M28 14C28 21.732 21.732 28 14 28C6.26801 28 0 21.732 0 14C0 6.26801 6.26801 0 14 0C21.732 0 28 6.26801 28 14ZM16.0018 8.65922C16.986 8.8293 17.9439 9.12636 18.8516 9.54297C18.8592 9.5465 18.8653 9.5526 18.8688 9.56019C20.4498 11.8855 21.2308 14.5089 20.9388 17.5287C20.9382 17.5351 20.9362 17.5413 20.9331 17.5468C20.9299 17.5524 20.9256 17.5572 20.9204 17.561C19.8628 18.3449 18.6791 18.9425 17.4204 19.3282C17.4115 19.331 17.402 19.3308 17.3931 19.3278C17.3843 19.3248 17.3766 19.3191 17.3712 19.3115C17.1049 18.942 16.8661 18.5534 16.6567 18.1489C16.6538 18.1433 16.6521 18.1371 16.6517 18.1308C16.6514 18.1245 16.6523 18.1182 16.6546 18.1123C16.6568 18.1064 16.6603 18.1011 16.6648 18.0966C16.6692 18.0922 16.6746 18.0887 16.6805 18.0865C17.0591 17.9445 17.425 17.7707 17.7743 17.567C17.7806 17.5632 17.7859 17.5579 17.7896 17.5516C17.7934 17.5453 17.7956 17.5382 17.796 17.5308C17.7964 17.5235 17.7949 17.5161 17.7918 17.5095C17.7887 17.5028 17.784 17.497 17.7781 17.4926C17.7029 17.4377 17.6293 17.3797 17.5593 17.322C17.553 17.3168 17.5453 17.3136 17.5372 17.3126C17.529 17.3116 17.5208 17.313 17.5134 17.3165C15.2493 18.3627 12.7687 18.3627 10.4776 17.3165C10.4702 17.3132 10.4621 17.312 10.4542 17.3131C10.4462 17.3142 10.4387 17.3174 10.4325 17.3225C10.3625 17.3805 10.2889 17.4379 10.2156 17.4926C10.2098 17.4971 10.2051 17.5029 10.202 17.5096C10.1989 17.5163 10.1975 17.5236 10.198 17.531C10.1984 17.5383 10.2006 17.5455 10.2045 17.5517C10.2083 17.558 10.2137 17.5633 10.22 17.567C10.5697 17.7687 10.9349 17.9425 11.3121 18.0865C11.318 18.0887 11.3233 18.092 11.3278 18.0964C11.3323 18.1008 11.3358 18.106 11.3381 18.1118C11.3404 18.1176 11.3414 18.1239 11.3411 18.1301C11.3409 18.1364 11.3393 18.1425 11.3364 18.148C11.1305 18.5548 10.8913 18.9438 10.6214 19.3112C10.6158 19.3186 10.6081 19.3241 10.5993 19.327C10.5905 19.3299 10.5811 19.33 10.5722 19.3274C9.3152 18.9406 8.13308 18.343 7.07629 17.5602C7.07119 17.5562 7.06694 17.5512 7.06379 17.5456C7.06065 17.54 7.05867 17.5338 7.05797 17.5273C6.81406 14.9157 7.31117 12.2708 9.12598 9.5591C9.13043 9.55189 9.13703 9.54625 9.14484 9.54297C10.0521 9.1261 11.0097 8.82902 11.9935 8.65922C12.0025 8.65776 12.0116 8.65904 12.0198 8.66289C12.028 8.66675 12.0349 8.673 12.0395 8.68082C12.1729 8.917 12.2932 9.16037 12.3998 9.4098C13.4606 9.2487 14.5397 9.2487 15.6004 9.4098C15.7066 9.16099 15.8252 8.91768 15.9559 8.68082C15.9603 8.67283 15.9671 8.66644 15.9754 8.66256C15.9836 8.65868 15.9929 8.65751 16.0018 8.65922ZM10.4204 14.5264C10.4204 15.304 10.9884 15.9373 11.6782 15.9373C12.3791 15.9373 12.9366 15.304 12.9361 14.5264C12.9475 13.7542 12.3845 13.1154 11.6782 13.1154C10.9777 13.1154 10.4204 13.7487 10.4204 14.5264ZM15.0724 14.5264C15.0724 15.304 15.6404 15.9373 16.3302 15.9373C17.0365 15.9373 17.5883 15.304 17.588 14.5264C17.5995 13.7542 17.0365 13.1154 16.3302 13.1154C15.6297 13.1154 15.0724 13.7487 15.0724 14.5264Z"
        fill="#006796" />
</svg>