<svg width="20" height="20" viewBox="0 0 20 20" fill="none" xmlns="http://www.w3.org/2000/svg">
<path d="M9.94435 19.1663C8.68274 19.1663 7.49712 18.9256 6.3875 18.444C5.27788 17.9631 4.31267 17.3101 3.49186 16.4851C2.67105 15.6601 2.02139 14.69 1.54289 13.5747C1.06377 12.4594 0.824219 11.2677 0.824219 9.99967C0.824219 8.73162 1.06377 7.53995 1.54289 6.42467C2.02139 5.3094 2.67105 4.33926 3.49186 3.51426C4.31267 2.68926 5.27788 2.03598 6.3875 1.55442C7.49712 1.07348 8.68274 0.833008 9.94435 0.833008C11.206 0.833008 12.3916 1.07348 13.5012 1.55442C14.6108 2.03598 15.576 2.68926 16.3969 3.51426C17.2177 4.33926 17.8673 5.3094 18.3458 6.42467C18.8249 7.53995 19.0645 8.73162 19.0645 9.99967C19.0645 11.2677 18.8249 12.4594 18.3458 13.5747C17.8673 14.69 17.2177 15.6601 16.3969 16.4851C15.576 17.3101 14.6108 17.9631 13.5012 18.444C12.3916 18.9256 11.206 19.1663 9.94435 19.1663ZM9.03234 17.2872V15.4997C8.53073 15.4997 8.10148 15.3203 7.74458 14.9616C7.38707 14.6023 7.20831 14.1705 7.20831 13.6663V12.7497L2.83065 8.34967C2.78505 8.62467 2.7431 8.89968 2.70479 9.17467C2.66709 9.44967 2.64825 9.72467 2.64825 9.99967C2.64825 11.8483 3.25261 13.4677 4.46133 14.858C5.66944 16.2483 7.19311 17.058 9.03234 17.2872ZM15.3252 14.9497C15.6292 14.6136 15.9028 14.2506 16.146 13.8607C16.3892 13.4714 16.5908 13.0665 16.7507 12.6461C16.91 12.2263 17.0316 11.7948 17.1155 11.3518C17.1988 10.9087 17.2405 10.458 17.2405 9.99967C17.2405 8.50245 16.8264 7.13509 15.9983 5.89759C15.1696 4.66009 14.0636 3.76634 12.6804 3.21634V3.58301C12.6804 4.08717 12.5019 4.51862 12.145 4.87734C11.7875 5.23667 11.358 5.41634 10.8564 5.41634H9.03234V7.24967C9.03234 7.5094 8.94509 7.72695 8.77059 7.90234C8.59549 8.07834 8.37873 8.16634 8.12033 8.16634H6.2963V9.99967H11.7684C12.0268 9.99967 12.2435 10.0874 12.4186 10.2628C12.5931 10.4388 12.6804 10.6566 12.6804 10.9163V13.6663H13.5924C13.9876 13.6663 14.3448 13.7846 14.664 14.0211C14.9832 14.2582 15.2036 14.5677 15.3252 14.9497Z" fill="white"/>
</svg>
