<svg xmlns="http://www.w3.org/2000/svg" width="24" height="25" fill="none">
    <path fill="#006796" d="M12 22.24a10.1 10.1 0 0 1-9.21-6.1 9.73 9.73 0 0 1-.79-3.9 10.1 10.1 0 0 1 6.1-9.21 9.74 9.74 0 0 1 3.9-.79 10.1 10.1 0 0 1 9.21 6.1c.53 1.22.79 2.52.79 3.9s-.26 2.68-.79 3.9a10.1 10.1 0 0 1-5.31 5.31 9.73 9.73 0 0 1-3.9.8Zm-1-2.05v-1.95c-.55 0-1.02-.2-1.41-.59-.4-.39-.59-.86-.59-1.4v-1l-4.8-4.8-.14.9A7.8 7.8 0 0 0 6 17.54 7.7 7.7 0 0 0 11 20.18Zm6.9-2.55a8.39 8.39 0 0 0 1.56-2.51 8.32 8.32 0 0 0 .54-2.89c0-1.63-.45-3.12-1.36-4.47A7.7 7.7 0 0 0 15 4.84v.4c0 .55-.2 1.02-.59 1.41-.39.4-.86.6-1.41.6h-2v2c0 .27-.1.51-.29.7-.19.2-.43.3-.71.3H8v2h6a.97.97 0 0 1 1 1v3h1a1.98 1.98 0 0 1 1.9 1.4Z"/>
</svg>
