<svg width="20" height="20" viewBox="0 0 20 20" fill="none" xmlns="http://www.w3.org/2000/svg">
<path d="M6.05801 13.9416C6.22606 14.1097 6.43995 14.1937 6.69967 14.1937C6.9594 14.1937 7.17329 14.1097 7.34134 13.9416L9.99967 11.2833L12.6809 13.9646C12.849 14.1326 13.0592 14.2127 13.3116 14.2047C13.5634 14.1974 13.7733 14.1097 13.9413 13.9416C14.1094 13.7736 14.1934 13.5597 14.1934 13.3C14.1934 13.0403 14.1094 12.8264 13.9413 12.6583L11.283 9.99998L13.9643 7.31873C14.1323 7.15067 14.2124 6.94045 14.2044 6.68806C14.1971 6.43629 14.1094 6.22637 13.9413 6.05831C13.7733 5.89026 13.5594 5.80623 13.2997 5.80623C13.04 5.80623 12.8261 5.89026 12.658 6.05831L9.99967 8.71665L7.31842 6.0354C7.15037 5.86734 6.94045 5.78698 6.68867 5.79431C6.43629 5.80226 6.22606 5.89026 6.05801 6.05831C5.88995 6.22637 5.80592 6.44026 5.80592 6.69998C5.80592 6.9597 5.88995 7.17359 6.05801 7.34165L8.71634 9.99998L6.03509 12.6812C5.86704 12.8493 5.78698 13.0592 5.79492 13.311C5.80226 13.5634 5.88995 13.7736 6.05801 13.9416ZM9.99967 19.1666C8.73162 19.1666 7.53995 18.9259 6.42467 18.4443C5.3094 17.9634 4.33926 17.3104 3.51426 16.4854C2.68926 15.6604 2.03629 14.6903 1.55534 13.575C1.07379 12.4597 0.833008 11.268 0.833008 9.99998C0.833008 8.73192 1.07379 7.54026 1.55534 6.42498C2.03629 5.3097 2.68926 4.33956 3.51426 3.51456C4.33926 2.68956 5.3094 2.03629 6.42467 1.55473C7.53995 1.07379 8.73162 0.833313 9.99967 0.833313C11.2677 0.833313 12.4594 1.07379 13.5747 1.55473C14.69 2.03629 15.6601 2.68956 16.4851 3.51456C17.3101 4.33956 17.9631 5.3097 18.444 6.42498C18.9256 7.54026 19.1663 8.73192 19.1663 9.99998C19.1663 11.268 18.9256 12.4597 18.444 13.575C17.9631 14.6903 17.3101 15.6604 16.4851 16.4854C15.6601 17.3104 14.69 17.9634 13.5747 18.4443C12.4594 18.9259 11.2677 19.1666 9.99967 19.1666Z" fill="#FF3648"/>
</svg>
