<svg width="24" height="25" viewBox="0 0 24 25" fill="none" xmlns="http://www.w3.org/2000/svg">
    <path d="M14.5 18.2412C13.8 18.2412 13.2083 17.9995 12.725 17.5162C12.2417 17.0329 12 16.4412 12 15.7412C12 15.0412 12.2417 14.4495 12.725 13.9662C13.2083 13.4829 13.8 13.2412 14.5 13.2412C15.2 13.2412 15.7917 13.4829 16.275 13.9662C16.7583 14.4495 17 15.0412 17 15.7412C17 16.4412 16.7583 17.0329 16.275 17.5162C15.7917 17.9995 15.2 18.2412 14.5 18.2412ZM5 22.2412C4.45 22.2412 3.979 22.0455 3.587 21.6542C3.19567 21.2622 3 20.7912 3 20.2412V6.24121C3 5.69121 3.19567 5.22054 3.587 4.82921C3.979 4.43721 4.45 4.24121 5 4.24121H6V3.24121C6 2.95788 6.09567 2.72021 6.287 2.52821C6.479 2.33688 6.71667 2.24121 7 2.24121C7.28333 2.24121 7.521 2.33688 7.713 2.52821C7.90433 2.72021 8 2.95788 8 3.24121V4.24121H16V3.24121C16 2.95788 16.096 2.72021 16.288 2.52821C16.4793 2.33688 16.7167 2.24121 17 2.24121C17.2833 2.24121 17.5207 2.33688 17.712 2.52821C17.904 2.72021 18 2.95788 18 3.24121V4.24121H19C19.55 4.24121 20.021 4.43721 20.413 4.82921C20.8043 5.22054 21 5.69121 21 6.24121V20.2412C21 20.7912 20.8043 21.2622 20.413 21.6542C20.021 22.0455 19.55 22.2412 19 22.2412H5ZM5 20.2412H19V10.2412H5V20.2412Z" fill="#006796"/>
</svg>
