<svg width="12" height="7" viewBox="0 0 12 7" fill="none" xmlns="http://www.w3.org/2000/svg">
<path d="M6 6.94998C5.86667 6.94998 5.74167 6.92898 5.625 6.88698C5.50833 6.84564 5.4 6.77498 5.3 6.67498L0.675001 2.04998C0.491668 1.86664 0.404335 1.63731 0.413001 1.36198C0.421001 1.08731 0.516668 0.85831 0.700001 0.674976C0.883334 0.491643 1.11667 0.399976 1.4 0.399976C1.68333 0.399976 1.91667 0.491643 2.1 0.674976L6 4.57498L9.925 0.649976C10.1083 0.466643 10.3377 0.378976 10.613 0.386976C10.8877 0.395643 11.1167 0.491643 11.3 0.674976C11.4833 0.85831 11.575 1.09164 11.575 1.37498C11.575 1.65831 11.4833 1.89164 11.3 2.07498L6.7 6.67498C6.6 6.77498 6.49167 6.84564 6.375 6.88698C6.25833 6.92898 6.13333 6.94998 6 6.94998Z" fill="white"/>
</svg>
