<svg width="24" height="24" viewBox="0 0 24 24" fill="none" xmlns="http://www.w3.org/2000/svg">
    <mask id="mask0_14_5580" style="mask-type:alpha" maskUnits="userSpaceOnUse" x="0" y="0"
        width="24" height="24">
        <rect width="24" height="24" transform="matrix(4.37114e-08 1 1 -4.37114e-08 0 0)"
            fill="#D9D9D9" />
    </mask>
    <g mask="url(#mask0_14_5580)">
        <path
            d="M14.9502 12C14.9502 11.8667 14.9292 11.7417 14.8872 11.625C14.8459 11.5083 14.7752 11.4 14.6752 11.3L10.0502 6.675C9.86689 6.49167 9.63755 6.40433 9.36222 6.413C9.08755 6.421 8.85855 6.51667 8.67522 6.7C8.49189 6.88333 8.40022 7.11667 8.40022 7.4C8.40022 7.68333 8.49189 7.91667 8.67522 8.1L12.5752 12L8.65022 15.925C8.46689 16.1083 8.37922 16.3377 8.38722 16.613C8.39589 16.8877 8.49189 17.1167 8.67522 17.3C8.85855 17.4833 9.09189 17.575 9.37522 17.575C9.65855 17.575 9.89189 17.4833 10.0752 17.3L14.6752 12.7C14.7752 12.6 14.8459 12.4917 14.8872 12.375C14.9292 12.2583 14.9502 12.1333 14.9502 12Z"
            fill="#FF9500" />
    </g>
</svg>