<svg width="20" height="20" viewBox="0 0 20 20" fill="none" xmlns="http://www.w3.org/2000/svg">
    <mask id="mask0_3358_10680" style="mask-type:alpha" maskUnits="userSpaceOnUse" x="0" y="0" width="20" height="20">
        <rect width="20" height="20" fill="currentcolor"/>
    </mask>
    <g mask="url(#mask0_3358_10680)">
        <path d="M7.50016 14.9993H12.5002C12.7363 14.9993 12.9342 14.9195 13.0939 14.7598C13.2536 14.6 13.3335 14.4021 13.3335 14.166C13.3335 13.9299 13.2536 13.732 13.0939 13.5723C12.9342 13.4125 12.7363 13.3327 12.5002 13.3327H7.50016C7.26405 13.3327 7.06613 13.4125 6.90641 13.5723C6.74669 13.732 6.66683 13.9299 6.66683 14.166C6.66683 14.4021 6.74669 14.6 6.90641 14.7598C7.06613 14.9195 7.26405 14.9993 7.50016 14.9993ZM7.50016 11.666H12.5002C12.7363 11.666 12.9342 11.5862 13.0939 11.4264C13.2536 11.2667 13.3335 11.0688 13.3335 10.8327C13.3335 10.5966 13.2536 10.3987 13.0939 10.2389C12.9342 10.0792 12.7363 9.99935 12.5002 9.99935H7.50016C7.26405 9.99935 7.06613 10.0792 6.90641 10.2389C6.74669 10.3987 6.66683 10.5966 6.66683 10.8327C6.66683 11.0688 6.74669 11.2667 6.90641 11.4264C7.06613 11.5862 7.26405 11.666 7.50016 11.666ZM5.00016 18.3327C4.54183 18.3327 4.14947 18.1695 3.82308 17.8431C3.49669 17.5167 3.3335 17.1243 3.3335 16.666V3.33268C3.3335 2.87435 3.49669 2.48199 3.82308 2.1556C4.14947 1.82921 4.54183 1.66602 5.00016 1.66602H10.9793C11.2016 1.66602 11.4134 1.70768 11.6147 1.79102C11.8161 1.87435 11.9932 1.9924 12.146 2.14518L16.1877 6.18685C16.3404 6.33963 16.4585 6.51671 16.5418 6.7181C16.6252 6.91949 16.6668 7.13129 16.6668 7.35352V16.666C16.6668 17.1243 16.5036 17.5167 16.1772 17.8431C15.8509 18.1695 15.4585 18.3327 15.0002 18.3327H5.00016ZM10.8335 6.66602V3.33268H5.00016V16.666H15.0002V7.49935H11.6668C11.4307 7.49935 11.2328 7.41949 11.0731 7.25977C10.9134 7.10004 10.8335 6.90213 10.8335 6.66602Z" fill="currentcolor"/>
    </g>
</svg>