<svg width="62" height="61" viewBox="0 0 62 61" fill="none" xmlns="http://www.w3.org/2000/svg">
    <g clip-path="url(#clip0_2921_21341)">
        <path opacity="0.15" d="M12.5398 46.7369L28.2763 60.9977H61.4983V32.1442L49.4607 19.7718L35.0788 19.0623C35.0788 19.0623 31.5653 18.913 30.444 16.2964C29.3226 13.6798 19.8244 13.673 19.8244 13.673C19.8244 13.673 11.0788 12.8571 10.8543 18.7636C10.6298 24.6702 12.5359 46.7369 12.5359 46.7369" fill="url(#paint0_linear_2921_21341)"/>
        <path d="M45.1135 18.1636H35.2611C34.1084 18.1629 33.0031 17.7047 32.1879 16.8897C31.3727 16.0746 30.9142 14.9694 30.9132 13.8167C30.9138 13.6633 30.8841 13.5114 30.8257 13.3696C30.7673 13.2278 30.6815 13.099 30.573 12.9906C30.4646 12.8821 30.3358 12.7962 30.194 12.7379C30.0522 12.6795 29.9002 12.6498 29.7469 12.6504H16.8866C15.1157 12.6532 13.4181 13.358 12.1659 14.6102C10.9136 15.8624 10.2089 17.56 10.2061 19.3309V41.6747C10.2089 43.4456 10.9136 45.1432 12.1659 46.3954C13.4181 47.6477 15.1157 48.3524 16.8866 48.3552H45.1135C46.8844 48.3524 48.582 47.6477 49.8342 46.3954C51.0864 45.1432 51.7912 43.4456 51.794 41.6747V24.8363C51.7912 23.0662 51.0862 21.3694 49.8337 20.1184C48.5813 18.8674 46.8837 18.1644 45.1135 18.1636V18.1636ZM49.4605 41.663C49.4595 42.8156 49.0011 43.9207 48.1862 44.7356C47.3712 45.5506 46.2661 46.009 45.1135 46.01H16.8866C15.7339 46.0092 14.6287 45.551 13.8137 44.7359C12.9986 43.9209 12.5404 42.8157 12.5396 41.663V19.3309C12.5406 18.1783 12.9989 17.0733 13.8139 16.2583C14.6289 15.4433 15.734 14.985 16.8866 14.9839H28.6841C28.9606 16.5278 29.7707 17.9256 30.9728 18.933C32.1749 19.9405 33.6927 20.4938 35.2611 20.4962H45.1135C46.2661 20.4972 47.3712 20.9556 48.1862 21.7706C49.0011 22.5855 49.4595 23.6906 49.4605 24.8432V41.663Z" fill="#006796"/>
    </g>
    <defs>
        <linearGradient id="paint0_linear_2921_21341" x1="52.4755" y1="66.2104" x2="20.4247" y2="10.6953" gradientUnits="userSpaceOnUse">
            <stop stop-color="#006796" stop-opacity="0"/>
            <stop offset="1" stop-color="#006796"/>
        </linearGradient>
        <clipPath id="clip0_2921_21341">
            <rect width="61" height="61" fill="white" transform="translate(0.5)"/>
        </clipPath>
    </defs>
</svg>