<svg width="20" height="20" viewBox="0 0 20 20" fill="none" xmlns="http://www.w3.org/2000/svg">
    <mask id="mask0_3358_10675" style="mask-type:alpha" maskUnits="userSpaceOnUse" x="0" y="0" width="20" height="20">
        <rect width="20" height="20" fill="currentcolor"/>
    </mask>
    <g mask="url(#mask0_3358_10675)">
        <path d="M3.33317 16.6673C2.87484 16.6673 2.48248 16.5041 2.15609 16.1777C1.8297 15.8513 1.6665 15.459 1.6665 15.0007V5.00065C1.6665 4.54232 1.8297 4.14996 2.15609 3.82357C2.48248 3.49718 2.87484 3.33398 3.33317 3.33398H7.64567C7.86789 3.33398 8.0797 3.37565 8.28109 3.45898C8.48248 3.54232 8.65956 3.66037 8.81234 3.81315L9.99984 5.00065H16.6665C17.1248 5.00065 17.5172 5.16385 17.8436 5.49023C18.17 5.81662 18.3332 6.20898 18.3332 6.66732H9.31234L7.64567 5.00065H3.33317V15.0007L4.979 9.52148C5.09012 9.16037 5.29498 8.87218 5.59359 8.6569C5.8922 8.44162 6.22206 8.33398 6.58317 8.33398H17.3332C17.9026 8.33398 18.3505 8.55968 18.6769 9.01107C19.0033 9.46246 19.0901 9.95204 18.9373 10.4798L17.4373 15.4798C17.3262 15.8409 17.1214 16.1291 16.8228 16.3444C16.5241 16.5597 16.1943 16.6673 15.8332 16.6673H3.33317ZM5.08317 15.0007H15.8332L17.3332 10.0007H6.58317L5.08317 15.0007Z" fill="currentcolor"/>
    </g>
</svg>