<svg width="20" height="20" viewBox="0 0 20 20" fill="none" xmlns="http://www.w3.org/2000/svg">
    <mask id="mask0_1685_4544" style="mask-type:alpha" maskUnits="userSpaceOnUse" x="0" y="0"
        width="20" height="20">
        <rect width="20" height="20" fill="#D9D9D9" />
    </mask>
    <g mask="url(#mask0_1685_4544)">
        <path
            d="M1 13.5806V2.83917C1 2.60141 1.0896 2.40196 1.2688 2.24084C1.44738 2.08028 1.66889 2 1.93333 2H14.0667C14.3311 2 14.5526 2.08028 14.7312 2.24084C14.9104 2.40196 15 2.60141 15 2.83917V10.3917C15 10.6295 14.9104 10.8287 14.7312 10.9892C14.5526 11.1504 14.3311 11.2309 14.0667 11.2309H4.73333L1.79333 13.8743C1.65333 14.0002 1.48596 14.0315 1.2912 13.9683C1.09707 13.9056 1 13.7764 1 13.5806Z"
            fill="#FF9500" />
    </g>
    <path
        d="M5.25113 14.9515C5.41913 15.1147 5.62708 15.1962 5.875 15.1962H15.5L18.2563 17.8727C18.3875 18.0002 18.5444 18.0319 18.727 17.9679C18.909 17.9045 19 17.7736 19 17.5753V5.84969C19 5.60894 18.916 5.407 18.748 5.24386C18.5806 5.08129 18.3729 5 18.125 5H16.375V12.6472H5V14.3465C5 14.5873 5.08371 14.7889 5.25113 14.9515Z"
        fill="#FF9500" fill-opacity="0.4" />
</svg>