<svg width="22" height="22" viewBox="0 0 22 22" fill="none" xmlns="http://www.w3.org/2000/svg">
    <mask id="mask0_14_5923" style="mask-type:alpha" maskUnits="userSpaceOnUse" x="0" y="0"
        width="22" height="22">
        <rect width="22" height="22" fill="#D9D9D9" />
    </mask>
    <g mask="url(#mask0_14_5923)">
        <path
            d="M1.8335 14.4833V2.74998C1.8335 2.49026 1.9215 2.2724 2.0975 2.0964C2.27289 1.92101 2.49044 1.83331 2.75016 1.83331H14.6668C14.9266 1.83331 15.1441 1.92101 15.3195 2.0964C15.4955 2.2724 15.5835 2.49026 15.5835 2.74998V11C15.5835 11.2597 15.4955 11.4773 15.3195 11.6526C15.1441 11.8286 14.9266 11.9166 14.6668 11.9166H5.50016L2.61266 14.8041C2.47516 14.9416 2.31077 14.9759 2.1195 14.9068C1.92883 14.8384 1.8335 14.6972 1.8335 14.4833Z"
            fill="#004073" fill-opacity="0.4" />
    </g>
    <path
        d="M5.76308 15.7862C5.93908 15.9622 6.15694 16.0502 6.41667 16.0502H16.5L19.3875 18.9377C19.525 19.0752 19.6894 19.1094 19.8807 19.0403C20.0713 18.9719 20.1667 18.8307 20.1667 18.6168V5.96684C20.1667 5.70712 20.0787 5.48925 19.9027 5.31325C19.7273 5.13787 19.5097 5.05017 19.25 5.05017H17.4167V13.3002H5.5V15.1335C5.5 15.3932 5.5877 15.6108 5.76308 15.7862Z"
        fill="#004073" fill-opacity="0.12" />
</svg>