<svg width="22" height="22" viewBox="0 0 22 22" fill="none" xmlns="http://www.w3.org/2000/svg">
<mask id="mask0_14_5712" style="mask-type:alpha" maskUnits="userSpaceOnUse" x="0" y="0" width="22" height="22">
<rect width="22" height="22" fill="#D9D9D9"/>
</mask>
<g mask="url(#mask0_14_5712)">
<path d="M4.58333 19.25C4.07917 19.25 3.64742 19.0706 3.28808 18.7119C2.92936 18.3526 2.75 17.9208 2.75 17.4167V4.58333C2.75 4.07917 2.92936 3.64742 3.28808 3.28808C3.64742 2.92936 4.07917 2.75 4.58333 2.75H8.25C8.75417 2.75 9.18592 2.92936 9.54525 3.28808C9.90397 3.64742 10.0833 4.07917 10.0833 4.58333V17.4167C10.0833 17.9208 9.90397 18.3526 9.54525 18.7119C9.18592 19.0706 8.75417 19.25 8.25 19.25H4.58333ZM13.75 19.25C13.2458 19.25 12.8144 19.0706 12.4557 18.7119C12.0963 18.3526 11.9167 17.9208 11.9167 17.4167V12.8333C11.9167 12.3292 12.0963 11.8974 12.4557 11.5381C12.8144 11.1794 13.2458 11 13.75 11H17.4167C17.9208 11 18.3526 11.1794 18.7119 11.5381C19.0706 11.8974 19.25 12.3292 19.25 12.8333V17.4167C19.25 17.9208 19.0706 18.3526 18.7119 18.7119C18.3526 19.0706 17.9208 19.25 17.4167 19.25H13.75Z" fill="#FF9500"/>
</g>
<rect x="11.9165" y="2.75" width="7.33333" height="6.41667" rx="2" fill="#FF9500" fill-opacity="0.4"/>
</svg>
