<svg xmlns="http://www.w3.org/2000/svg" width="20" height="20" viewBox="0 0 20 20">
    <path fill="#004073" d="M10 14.17a.8.8 0 0 0 .6-.24.8.8 0 0 0 .23-.6V10a.8.8 0 0 0-.24-.6.8.8 0 0 0-.6-.23.8.8 0 0 0-.58.24.8.8 0 0 0-.24.6v3.32c0 .24.08.44.24.6a.8.8 0 0 0 .59.24Zm0-6.67a.8.8 0 0 0 .6-.24.8.8 0 0 0 .23-.6.8.8 0 0 0-.24-.59.8.8 0 0 0-.6-.24.8.8 0 0 0-.58.24.8.8 0 0 0-.24.6c0 .23.08.43.24.6a.8.8 0 0 0 .59.23Zm0 10.83a8.42 8.42 0 0 1-7.68-5.08A8.11 8.11 0 0 1 1.67 10a8.42 8.42 0 0 1 5.08-7.68A8.11 8.11 0 0 1 10 1.67a8.42 8.42 0 0 1 7.68 5.08c.43 1.02.65 2.1.65 3.25s-.22 2.24-.65 3.25a8.42 8.42 0 0 1-4.43 4.43c-1.01.44-2.1.65-3.25.65Zm0-1.66c1.86 0 3.44-.65 4.73-1.94A6.43 6.43 0 0 0 16.67 10c0-1.86-.65-3.44-1.94-4.73A6.43 6.43 0 0 0 10 3.33c-1.86 0-3.44.65-4.73 1.94A6.43 6.43 0 0 0 3.33 10c0 1.86.65 3.44 1.94 4.73A6.43 6.43 0 0 0 10 16.67Z"/>
</svg>
