<svg width="20" height="20" viewBox="0 0 20 20" fill="none" xmlns="http://www.w3.org/2000/svg">
<path d="M9.99967 14.5833C10.2594 14.5833 10.4773 14.4953 10.6533 14.3193C10.8286 14.1439 10.9163 13.9264 10.9163 13.6666V9.97706C10.9163 9.71734 10.8286 9.50345 10.6533 9.3354C10.4773 9.16734 10.2594 9.08331 9.99967 9.08331C9.73995 9.08331 9.5224 9.17101 9.34701 9.3464C9.17101 9.5224 9.08301 9.74026 9.08301 9.99998V13.6896C9.08301 13.9493 9.17101 14.1632 9.34701 14.3312C9.5224 14.4993 9.73995 14.5833 9.99967 14.5833ZM9.99967 7.24998C10.2594 7.24998 10.4773 7.16198 10.6533 6.98598C10.8286 6.81059 10.9163 6.59304 10.9163 6.33331C10.9163 6.07359 10.8286 5.85573 10.6533 5.67973C10.4773 5.50434 10.2594 5.41665 9.99967 5.41665C9.73995 5.41665 9.5224 5.50434 9.34701 5.67973C9.17101 5.85573 9.08301 6.07359 9.08301 6.33331C9.08301 6.59304 9.17101 6.81059 9.34701 6.98598C9.5224 7.16198 9.73995 7.24998 9.99967 7.24998ZM9.99967 19.1666C8.73162 19.1666 7.53995 18.9259 6.42467 18.4443C5.3094 17.9634 4.33926 17.3104 3.51426 16.4854C2.68926 15.6604 2.03629 14.6903 1.55534 13.575C1.07379 12.4597 0.833008 11.268 0.833008 9.99998C0.833008 8.73192 1.07379 7.54026 1.55534 6.42498C2.03629 5.3097 2.68926 4.33956 3.51426 3.51456C4.33926 2.68956 5.3094 2.03629 6.42467 1.55473C7.53995 1.07379 8.73162 0.833313 9.99967 0.833313C11.2677 0.833313 12.4594 1.07379 13.5747 1.55473C14.69 2.03629 15.6601 2.68956 16.4851 3.51456C17.3101 4.33956 17.9631 5.3097 18.444 6.42498C18.9256 7.54026 19.1663 8.73192 19.1663 9.99998C19.1663 11.268 18.9256 12.4597 18.444 13.575C17.9631 14.6903 17.3101 15.6604 16.4851 16.4854C15.6601 17.3104 14.69 17.9634 13.5747 18.4443C12.4594 18.9259 11.2677 19.1666 9.99967 19.1666Z" fill="#004073"/>
</svg>
