<svg width="24" height="24" viewBox="0 0 24 24" fill="none" xmlns="http://www.w3.org/2000/svg">
<g clip-path="url(#clip0_3016_9539)">
<path d="M0 10.275C0 6.51053 7.21266e-08 4.62834 0.89159 3.24563C1.39048 2.47194 2.07496 1.82144 2.88908 1.34731C4.34403 0.5 6.32456 0.5 10.2857 0.5H13.916C17.8771 0.5 19.8577 0.5 21.3126 1.34731C22.1267 1.82144 22.8112 2.47194 23.31 3.24563C24.2017 4.62834 24.2017 6.51053 24.2017 10.275V13.725C24.2017 17.4895 24.2017 19.3717 23.31 20.7544C22.8112 21.5281 22.1267 22.1786 21.3126 22.6527C19.8577 23.5 17.8771 23.5 13.916 23.5H10.2857C6.32456 23.5 4.34403 23.5 2.88908 22.6527C2.07496 22.1786 1.39048 21.5281 0.89159 20.7544C7.21266e-08 19.3717 0 17.4895 0 13.725V10.275Z" fill="url(#paint0_linear_3016_9539)"/>
<path d="M0 10.275C0 6.51053 7.21266e-08 4.62834 0.89159 3.24563C1.39048 2.47194 2.07496 1.82144 2.88908 1.34731C4.34403 0.5 6.32456 0.5 10.2857 0.5H13.916C17.8771 0.5 19.8577 0.5 21.3126 1.34731C22.1267 1.82144 22.8112 2.47194 23.31 3.24563C24.2017 4.62834 24.2017 6.51053 24.2017 10.275V13.725C24.2017 17.4895 24.2017 19.3717 23.31 20.7544C22.8112 21.5281 22.1267 22.1786 21.3126 22.6527C19.8577 23.5 17.8771 23.5 13.916 23.5H10.2857C6.32456 23.5 4.34403 23.5 2.88908 22.6527C2.07496 22.1786 1.39048 21.5281 0.89159 20.7544C7.21266e-08 19.3717 0 17.4895 0 13.725V10.275Z" fill="url(#paint1_radial_3016_9539)"/>
<path d="M0 10.275C0 6.51053 7.21266e-08 4.62834 0.89159 3.24563C1.39048 2.47194 2.07496 1.82144 2.88908 1.34731C4.34403 0.5 6.32456 0.5 10.2857 0.5H13.916C17.8771 0.5 19.8577 0.5 21.3126 1.34731C22.1267 1.82144 22.8112 2.47194 23.31 3.24563C24.2017 4.62834 24.2017 6.51053 24.2017 10.275V13.725C24.2017 17.4895 24.2017 19.3717 23.31 20.7544C22.8112 21.5281 22.1267 22.1786 21.3126 22.6527C19.8577 23.5 17.8771 23.5 13.916 23.5H10.2857C6.32456 23.5 4.34403 23.5 2.88908 22.6527C2.07496 22.1786 1.39048 21.5281 0.89159 20.7544C7.21266e-08 19.3717 0 17.4895 0 13.725V10.275Z" fill="url(#paint2_radial_3016_9539)"/>
<path d="M0 10.275C0 6.51053 5.96046e-08 4.62834 0.89159 3.24563C1.39048 2.47194 2.07496 1.82144 2.88908 1.34731C4.34403 0.5 6.32457 0.5 10.2857 0.5H13.916C17.8771 0.5 19.8577 0.5 21.3126 1.34731C22.1267 1.82144 22.8112 2.47194 23.31 3.24563C24.2017 4.62834 24.2017 6.51053 24.2017 10.275V13.725C24.2017 17.4895 24.2017 19.3717 23.31 20.7544C22.8112 21.5281 22.1267 22.1786 21.3126 22.6527C19.8577 23.5 17.8771 23.5 13.916 23.5H10.2857C6.32457 23.5 4.34403 23.5 2.88908 22.6527C2.07496 22.1786 1.39048 21.5281 0.89159 20.7544C5.96046e-08 19.3717 0 17.4895 0 13.725V10.275Z" fill="url(#paint3_radial_3016_9539)"/>
<path d="M9.237 18.3258V12.7231L14.9656 18.3258H18.152V18.1804L11.5636 11.8017L17.6438 5.74848V5.67578H14.4368L9.237 11.0247V5.67578H6.65625V18.3258H9.237Z" fill="white"/>
</g>
<defs>
<linearGradient id="paint0_linear_3016_9539" x1="12.1008" y1="0.5" x2="12.1008" y2="23.5" gradientUnits="userSpaceOnUse">
<stop stop-color="#1FD1FF"/>
<stop offset="1" stop-color="#1BB8FF"/>
</linearGradient>
<radialGradient id="paint1_radial_3016_9539" cx="0" cy="0" r="1" gradientUnits="userSpaceOnUse" gradientTransform="translate(1.15605 22.6285) rotate(-43.6971) scale(37.8553 38.3825)">
<stop stop-color="#232DE3"/>
<stop offset="1" stop-color="#232DE3" stop-opacity="0"/>
</radialGradient>
<radialGradient id="paint2_radial_3016_9539" cx="0" cy="0" r="1" gradientUnits="userSpaceOnUse" gradientTransform="translate(22.8982 23.3687) rotate(-139.893) scale(23.7447 35.9373)">
<stop stop-color="#8B4DFF"/>
<stop offset="1" stop-color="#8B4DFF" stop-opacity="0"/>
</radialGradient>
<radialGradient id="paint3_radial_3016_9539" cx="0" cy="0" r="1" gradientUnits="userSpaceOnUse" gradientTransform="translate(11.8992 0.670582) rotate(90) scale(18.1335 46.2956)">
<stop stop-color="#24D5FF"/>
<stop offset="1" stop-color="#1BB8FF" stop-opacity="0"/>
</radialGradient>
<clipPath id="clip0_3016_9539">
<rect width="24" height="23" fill="white" transform="translate(0 0.5)"/>
</clipPath>
</defs>
</svg>
