<svg xmlns="http://www.w3.org/2000/svg" width="73" height="24" fill="none">
  <g clip-path="url(#a)">
    <path fill="#fff" d="M32.37 17.21v-5.2l5.39 5.2h3v-.13l-6.2-5.92 5.71-5.62v-.06h-3.01l-4.9 4.96V5.48h-2.42V17.2h2.43Zm12.55.25c1.4 0 2.92-.45 3.9-1.34l-1.44-1.29c-.53.49-1.6.78-2.43.78-1.6 0-2.55-.74-2.7-1.76h7.07c.02-.27.04-.52.04-.78 0-2.88-1.84-4.34-4.61-4.34-2.94 0-4.82 1.8-4.82 4.32 0 2.64 1.86 4.41 4.99 4.41Zm2.26-5.31h-4.9c.36-1.07 1.31-1.61 2.54-1.61 1.3 0 2.21.54 2.36 1.6Zm5.4 8.85v-4.76c.65.92 2.03 1.2 3.01 1.2 2.9 0 4.58-1.94 4.58-4.35 0-2.43-1.86-4.33-4.65-4.33a3.7 3.7 0 0 0-2.94 1.33l-.15-1.14h-2.1V21h2.24Zm2.77-5.55c-1.55 0-2.57-1.07-2.57-2.36 0-1.3.95-2.35 2.57-2.35 1.62 0 2.57 1.06 2.57 2.35s-1.03 2.36-2.57 2.36Zm8.15 1.76V5.5h-2.23v11.72h2.23Zm3.9 0v-4.36c0-1.54 1.1-2.1 2.27-2.1.73 0 1.16.22 1.62.54l1-1.78c-.49-.42-1.4-.77-2.33-.77-.9 0-1.9.15-2.55 1.15l-.17-.95h-2.08v8.26l2.25.01Z"/>
    <path fill="url(#b)" d="M.5 10.28c0-3.77 0-5.65.9-7.03a5.9 5.9 0 0 1 1.99-1.9C4.84.5 6.82.5 10.79.5h3.63c3.96 0 5.94 0 7.4.85a5.9 5.9 0 0 1 1.99 1.9c.9 1.38.9 3.26.9 7.03v3.45c0 3.76 0 5.64-.9 7.02a5.9 5.9 0 0 1-2 1.9c-1.45.85-3.43.85-7.4.85H10.8c-3.97 0-5.95 0-7.4-.85a5.9 5.9 0 0 1-2-1.9C.5 19.37.5 17.5.5 13.72v-3.45Z"/>
    <path fill="url(#c)" d="M.5 10.28c0-3.77 0-5.65.9-7.03a5.9 5.9 0 0 1 1.99-1.9C4.84.5 6.82.5 10.79.5h3.63c3.96 0 5.94 0 7.4.85a5.9 5.9 0 0 1 1.99 1.9c.9 1.38.9 3.26.9 7.03v3.45c0 3.76 0 5.64-.9 7.02a5.9 5.9 0 0 1-2 1.9c-1.45.85-3.43.85-7.4.85H10.8c-3.97 0-5.95 0-7.4-.85a5.9 5.9 0 0 1-2-1.9C.5 19.37.5 17.5.5 13.72v-3.45Z"/>
    <path fill="url(#d)" d="M.5 10.28c0-3.77 0-5.65.9-7.03a5.9 5.9 0 0 1 1.99-1.9C4.84.5 6.82.5 10.79.5h3.63c3.96 0 5.94 0 7.4.85a5.9 5.9 0 0 1 1.99 1.9c.9 1.38.9 3.26.9 7.03v3.45c0 3.76 0 5.64-.9 7.02a5.9 5.9 0 0 1-2 1.9c-1.45.85-3.43.85-7.4.85H10.8c-3.97 0-5.95 0-7.4-.85a5.9 5.9 0 0 1-2-1.9C.5 19.37.5 17.5.5 13.72v-3.45Z"/>
    <path fill="url(#e)" d="M.5 10.28c0-3.77 0-5.65.9-7.03a5.9 5.9 0 0 1 1.99-1.9C4.84.5 6.82.5 10.79.5h3.63c3.96 0 5.94 0 7.4.85a5.9 5.9 0 0 1 1.99 1.9c.9 1.38.9 3.26.9 7.03v3.45c0 3.76 0 5.64-.9 7.02a5.9 5.9 0 0 1-2 1.9c-1.45.85-3.43.85-7.4.85H10.8c-3.97 0-5.95 0-7.4-.85a5.9 5.9 0 0 1-2-1.9C.5 19.37.5 17.5.5 13.72v-3.45Z"/>
    <path fill="#fff" d="M9.74 18.33v-5.6l5.73 5.6h3.18v-.15l-6.59-6.38 6.08-6.05v-.07h-3.2l-5.2 5.34V5.68H7.16v12.65h2.58Z"/>
  </g>
  <defs>
    <radialGradient id="c" cx="0" cy="0" r="1" gradientTransform="matrix(27.37 -26.152 26.516 27.75 1.66 22.63)" gradientUnits="userSpaceOnUse">
      <stop stop-color="#232DE3"/>
      <stop offset="1" stop-color="#232DE3" stop-opacity="0"/>
    </radialGradient>
    <radialGradient id="d" cx="0" cy="0" r="1" gradientTransform="rotate(-139.9 15.96 7.41) scale(23.745 35.937)" gradientUnits="userSpaceOnUse">
      <stop stop-color="#8B4DFF"/>
      <stop offset="1" stop-color="#8B4DFF" stop-opacity="0"/>
    </radialGradient>
    <radialGradient id="e" cx="0" cy="0" r="1" gradientTransform="matrix(0 18.134 -46.296 0 12.4 .67)" gradientUnits="userSpaceOnUse">
      <stop stop-color="#24D5FF"/>
      <stop offset="1" stop-color="#1BB8FF" stop-opacity="0"/>
    </radialGradient>
    <linearGradient id="b" x1="12.6" x2="12.6" y1=".5" y2="23.5" gradientUnits="userSpaceOnUse">
      <stop stop-color="#1FD1FF"/>
      <stop offset="1" stop-color="#1BB8FF"/>
    </linearGradient>
    <clipPath id="a">
      <path fill="#fff" d="M.5.5h72v23H.5z"/>
    </clipPath>
  </defs>
</svg>
