<svg width="22" height="12" viewBox="0 0 22 12" fill="none" xmlns="http://www.w3.org/2000/svg">
<path d="M6.41602 11.5C4.88824 11.5 3.58963 10.9653 2.52018 9.89583C1.45074 8.82639 0.916016 7.52778 0.916016 6C0.916016 4.47222 1.45074 3.17361 2.52018 2.10417C3.58963 1.03472 4.88824 0.5 6.41602 0.5C7.65352 0.5 8.73457 0.847417 9.65918 1.54225C10.5832 2.23769 11.2285 3.1125 11.5952 4.16667H19.2493C19.7535 4.16667 20.1853 4.34603 20.5446 4.70475C20.9033 5.06408 21.0827 5.49583 21.0827 6C21.0827 6.55 20.8917 6.99306 20.5098 7.32917C20.1278 7.66528 19.7077 7.83333 19.2493 7.83333V9.66667C19.2493 10.1708 19.07 10.6026 18.7113 10.9619C18.3519 11.3206 17.9202 11.5 17.416 11.5C16.9118 11.5 16.4801 11.3206 16.1208 10.9619C15.762 10.6026 15.5827 10.1708 15.5827 9.66667V7.83333H11.5952C11.2285 8.8875 10.5832 9.76231 9.65918 10.4578C8.73457 11.1526 7.65352 11.5 6.41602 11.5ZM6.41602 7.83333C6.92018 7.83333 7.35163 7.65367 7.71035 7.29433C8.06968 6.93561 8.24935 6.50417 8.24935 6C8.24935 5.49583 8.06968 5.06408 7.71035 4.70475C7.35163 4.34603 6.92018 4.16667 6.41602 4.16667C5.91185 4.16667 5.4804 4.34603 5.12168 4.70475C4.76235 5.06408 4.58268 5.49583 4.58268 6C4.58268 6.50417 4.76235 6.93561 5.12168 7.29433C5.4804 7.65367 5.91185 7.83333 6.41602 7.83333Z" fill="#004073"/>
</svg>
