<svg xmlns="http://www.w3.org/2000/svg" width="48" height="48" viewBox="0 0 48 48">
  <path d="M39.76 34.07a3.86 3.86 0 0 0-4.56 1.06c-.9 1.03-1.05 2.46-.42 3.94a8.38 8.38 0 0 0 3.72 3.81c3.37 1.84 4.95 1.3 5.58.8.1-.06.18-.15.26-.25.56-.64 1.01-1.99-.3-4.83-1-2.23-2.55-3.84-4.28-4.53Z"/>
  <path fill-rule="evenodd" d="M21.38 3A17.4 17.4 0 0 0 4 20.38a17.4 17.4 0 0 0 17.38 17.38 17.4 17.4 0 0 0 17.38-17.38A17.4 17.4 0 0 0 21.38 3Zm-3.84 23.45 4.14-4.14 4.13 4.14c.22.22.5.33.82.33.32 0 .6-.11.82-.33.22-.22.33-.5.33-.82 0-.33-.11-.6-.33-.82l-4.14-4.13 4.14-4.14c.22-.22.33-.5.33-.82 0-.32-.11-.6-.33-.81-.22-.23-.5-.34-.82-.34-.33 0-.6.11-.82.34l-4.13 4.13-4.14-4.13c-.22-.23-.49-.34-.82-.34-.32 0-.6.11-.81.34-.22.22-.34.49-.34.81 0 .33.12.6.34.82l4.13 4.14-4.13 4.13c-.22.22-.34.5-.34.82 0 .32.12.6.34.82.22.22.49.33.81.33.33 0 .6-.11.82-.33Z" clip-rule="evenodd"/>
</svg>
