<svg width="28" height="28" viewBox="0 0 28 28" fill="none" xmlns="http://www.w3.org/2000/svg">
<g clip-path="url(#clip0_14_5812)">
<path fill-rule="evenodd" clip-rule="evenodd" d="M14 0C21.7321 0 28.0001 6.268 28.0001 14C28.0001 21.7321 21.7321 28.0001 14 28.0001C6.268 28.0001 0 21.7321 0 14C0 6.268 6.268 0 14 0ZM12.4696 11.6664H14.8969V12.9107L14.932 12.9108C15.27 12.3044 16.0967 11.6664 17.3292 11.6664C19.8924 11.6664 20.3664 13.2615 20.3664 15.3365V19.5634L17.835 19.5634V15.8165C17.835 14.9232 17.8164 13.7734 16.5187 13.7734C15.2006 13.7734 14.9986 14.7457 14.9986 15.7515V19.5635H12.4695V11.6664L12.4696 11.6664ZM10.7146 9.47281C10.7146 10.1994 10.125 10.7891 9.39837 10.7891C8.67177 10.7891 8.0819 10.1994 8.0819 9.47281C8.0819 8.74621 8.67177 8.15649 9.39837 8.15649C10.125 8.15649 10.7146 8.74621 10.7146 9.47281ZM8.0819 11.6664H10.7146V19.5634H8.0819V11.6664Z" fill="white"/>
</g>
<defs>
<clipPath id="clip0_14_5812">
<rect width="28" height="28" fill="white"/>
</clipPath>
</defs>
</svg>
