<svg width="22" height="22" viewBox="0 0 22 22" fill="none" xmlns="http://www.w3.org/2000/svg">
<g clip-path="url(#clip0_3072_12493)">
<path d="M6.41602 5.49935C6.65913 5.49935 6.89229 5.40277 7.0642 5.23086C7.2361 5.05895 7.33268 4.8258 7.33268 4.58268C7.33268 4.33957 7.2361 4.10641 7.0642 3.9345C6.89229 3.76259 6.65913 3.66602 6.41602 3.66602H4.58268C4.33957 3.66602 4.10641 3.76259 3.9345 3.9345C3.76259 4.10641 3.66602 4.33957 3.66602 4.58268V17.416C3.66602 17.6591 3.76259 17.8923 3.9345 18.0642C4.10641 18.2361 4.33957 18.3327 4.58268 18.3327H6.41602C6.65913 18.3327 6.89229 18.2361 7.0642 18.0642C7.2361 17.8923 7.33268 17.6591 7.33268 17.416C7.33268 17.1729 7.2361 16.9397 7.0642 16.7678C6.89229 16.5959 6.65913 16.4993 6.41602 16.4993H5.49935V5.49935H6.41602Z" fill="#FF3648"/>
<path d="M19.085 10.469L16.5 6.80231C16.3598 6.60469 16.1471 6.47061 15.9083 6.42939C15.6695 6.38816 15.4242 6.44314 15.2258 6.58231C15.1267 6.65178 15.0423 6.7402 14.9775 6.84247C14.9127 6.94473 14.8688 7.05882 14.8484 7.17813C14.8279 7.29745 14.8313 7.41964 14.8583 7.53764C14.8854 7.65564 14.9355 7.76712 15.0058 7.86565L16.5825 10.084H9.16667C8.92355 10.084 8.69039 10.1806 8.51849 10.3525C8.34658 10.5244 8.25 10.7575 8.25 11.0006C8.25 11.2438 8.34658 11.4769 8.51849 11.6488C8.69039 11.8207 8.92355 11.9173 9.16667 11.9173H16.5L14.85 14.1173C14.7778 14.2136 14.7252 14.3232 14.6953 14.4398C14.6655 14.5564 14.6589 14.6778 14.6759 14.797C14.6929 14.9161 14.7332 15.0308 14.7946 15.1343C14.8559 15.2379 14.937 15.3284 15.0333 15.4006C15.192 15.5196 15.385 15.584 15.5833 15.584C15.7256 15.584 15.866 15.5508 15.9933 15.4872C16.1206 15.4236 16.2313 15.3312 16.3167 15.2173L19.0667 11.5506C19.1841 11.3956 19.2491 11.2073 19.2524 11.0128C19.2557 10.8184 19.1971 10.6279 19.085 10.469Z" fill="#FF3648"/>
</g>
<defs>
<clipPath id="clip0_3072_12493">
<rect width="22" height="22" fill="white"/>
</clipPath>
</defs>
</svg>
