<svg xmlns="http://www.w3.org/2000/svg" width="24" height="24" viewBox="-4 -4 24 24">
  <path d="m13.75 14.92-4.67-4.67a4.97 4.97 0 0 1-3.16 1.08c-1.52 0-2.8-.52-3.85-1.57A5.23 5.23 0 0 1 .5 5.92c0-1.52.52-2.8 1.57-3.85A5.23 5.23 0 0 1 5.92.5c1.51 0 2.8.52 3.84 1.57a5.23 5.23 0 0 1 1.57 3.85 5.08 5.08 0 0 1-1.08 3.16l4.69 4.7c.15.14.23.33.23.55a.8.8 0 0 1-.25.59.8.8 0 0 1-.59.23.79.79 0 0 1-.58-.23ZM5.92 9.67a3.6 3.6 0 0 0 2.65-1.1 3.62 3.62 0 0 0 1.1-2.65c0-1.04-.37-1.93-1.1-2.66a3.62 3.62 0 0 0-2.65-1.1c-1.04 0-1.93.37-2.66 1.1a3.62 3.62 0 0 0-1.1 2.66 3.6 3.6 0 0 0 1.1 2.65c.73.73 1.62 1.1 2.66 1.1Z"/>
</svg>
