<svg width="29" height="30" viewBox="0 0 29 30" fill="none" xmlns="http://www.w3.org/2000/svg">
<g clip-path="url(#clip0_2_1991)">
<path fill-rule="evenodd" clip-rule="evenodd" d="M28.1918 9.72618C27.8644 9.34084 27.3976 9.10905 26.8999 9.08144V5.18725C26.8999 3.29011 25.3797 1.7467 23.5113 1.7467H18.0089C16.1783 1.7467 15.2064 2.53101 14.4966 3.10387L14.4957 3.10464L14.4945 3.10555C13.9244 3.56583 13.5799 3.84395 12.8419 3.84395H4.88957C3.22461 3.84395 1.86983 5.1842 1.86983 6.83196V9.08144C1.37242 9.10913 0.905368 9.34084 0.578153 9.72618C0.228826 10.137 0.0728849 10.6823 0.151164 11.2195L2.35838 26.3448C2.4919 27.2605 3.2659 27.9387 4.17759 27.9387H24.5919C25.5038 27.9387 26.2778 27.2605 26.4113 26.3448L28.6185 11.2195C28.6969 10.6823 28.5413 10.137 28.1918 9.72618ZM24.6852 9.07886H4.08437V6.83196C4.08437 6.36886 4.49379 6.09202 4.88957 6.09202H12.842C14.3539 6.09202 15.1969 5.41153 15.874 4.86473C16.4987 4.35946 16.9509 3.99493 18.0089 3.99493H23.5113C24.1585 3.99493 24.6852 4.52968 24.6852 5.18725V9.07886ZM16.7983 13.5918C16.9211 13.2357 16.7472 12.842 16.4099 12.7124C16.0725 12.5827 15.6995 12.7663 15.5767 13.1225L12.4644 22.1497C12.3416 22.5058 12.5155 22.8996 12.8528 23.0292C13.1902 23.1588 13.5632 22.9752 13.686 22.6191L16.7983 13.5918ZM11.9987 20.4633L9.70059 18.0373L11.9987 15.6112C12.2525 15.3433 12.2525 14.9088 11.9987 14.6408C11.7448 14.3729 11.3333 14.3729 11.0794 14.6408L8.32173 17.5521C8.06789 17.82 8.06789 18.2545 8.32173 18.5225L11.0794 21.4337C11.3333 21.7017 11.7448 21.7017 11.9987 21.4337C12.2525 21.1658 12.2525 20.7313 11.9987 20.4633ZM17.264 15.6112L19.5621 18.0373L17.264 20.4633C17.0102 20.7313 17.0102 21.1658 17.264 21.4337C17.5179 21.7017 17.9294 21.7017 18.1833 21.4337L20.941 18.5225C21.1948 18.2545 21.1948 17.82 20.941 17.5521L18.1833 14.6408C17.9294 14.3729 17.5179 14.3729 17.264 14.6408C17.0102 14.9088 17.0102 15.3433 17.264 15.6112Z" fill="white"/>
</g>
<defs>
<clipPath id="clip0_2_1991">
<rect width="28.5071" height="28.9438" fill="white" transform="translate(0.131348 0.370789)"/>
</clipPath>
</defs>
</svg>
