<svg width="19" height="19" viewBox="0 0 19 19" fill="none" xmlns="http://www.w3.org/2000/svg">
<path d="M5.58542 8.08372C5.23403 8.08372 4.97033 7.92728 4.79433 7.61439C4.61894 7.30089 4.62292 6.99136 4.80625 6.68581L8.22083 1.11706C8.40417 0.82678 8.66389 0.681641 9 0.681641C9.33611 0.681641 9.59583 0.82678 9.77917 1.11706L13.1938 6.68581C13.3771 6.99136 13.3807 7.30089 13.2047 7.61439C13.0294 7.92728 12.766 8.08372 12.4146 8.08372H5.58542ZM14.0417 18.1671C12.8958 18.1671 11.9217 17.7662 11.1193 16.9644C10.3176 16.162 9.91667 15.1879 9.91667 14.0421C9.91667 12.8962 10.3176 11.9221 11.1193 11.1197C11.9217 10.3179 12.8958 9.91706 14.0417 9.91706C15.1875 9.91706 16.1616 10.3179 16.964 11.1197C17.7658 11.9221 18.1667 12.8962 18.1667 14.0421C18.1667 15.1879 17.7658 16.162 16.964 16.9644C16.1616 17.7662 15.1875 18.1671 14.0417 18.1671ZM1.66667 17.7087C1.40694 17.7087 1.18939 17.6207 1.014 17.4447C0.838 17.2693 0.75 17.0518 0.75 16.7921V11.2921C0.75 11.0323 0.838 10.8145 1.014 10.6385C1.18939 10.4631 1.40694 10.3754 1.66667 10.3754H7.16667C7.42639 10.3754 7.64425 10.4631 7.82025 10.6385C7.99564 10.8145 8.08333 11.0323 8.08333 11.2921V16.7921C8.08333 17.0518 7.99564 17.2693 7.82025 17.4447C7.64425 17.6207 7.42639 17.7087 7.16667 17.7087H1.66667Z" fill="#004073"/>
</svg>
