<svg width="20" height="20" viewBox="0 0 20 20" fill="none" xmlns="http://www.w3.org/2000/svg">
    <path opacity="0.4"
        d="M13.76 3.09179L10.56 0.198887C10.48 0.126565 10.4 0.054242 10.32 0.054242C10.16 -0.0180807 9.92 -0.0180807 9.68 0.054242C9.6 0.126565 9.52 0.126565 9.44 0.198887L6.24 3.09179C5.92 3.38109 5.92 3.81502 6.24 4.10431C6.56 4.3936 7.04 4.3936 7.36 4.10431L9.2 2.44089V12.2768C9.2 12.7107 9.52 13 10 13C10.48 13 10.8 12.7107 10.8 12.2768V2.44089L12.64 4.10431C12.8 4.24896 12.96 4.32128 13.2 4.32128C13.44 4.32128 13.6 4.24896 13.76 4.10431C14.08 3.81502 14.08 3.38109 13.76 3.09179V3.09179Z"
        fill="#FF9500" />
    <path
        d="M19.6429 9.50547L15.3571 6.95471C15.2857 6.95471 15.2143 6.88183 15.2143 6.88183L13.5714 6.00729C13.0714 6.15305 12.5714 6.22592 12.1429 6.00729V12.7121C12.1429 13.9511 11.2143 14.8985 10 14.8985C8.78571 14.8985 7.85714 13.9511 7.85714 12.7121V6C7.35714 6.14576 6.85714 6.14576 6.42857 6L4.85714 6.94742C4.78571 6.94742 4.71429 7.0203 4.71429 7.0203L0.428571 9.57835C0.142857 9.65122 0 9.86986 0 10.1614V13.8053C0 14.0968 0.142857 14.3155 0.357143 14.4612L4.64286 17.012C4.71429 17.012 4.78571 17.0849 4.78571 17.0849L9.64286 19.9271C9.78571 20 9.85714 20 10 20C10.1429 20 10.2143 20 10.3571 19.9271L15.2143 17.0849C15.2857 17.0849 15.3571 17.012 15.3571 17.012L19.6429 14.4612C19.8571 14.3155 20 14.0968 20 13.8053V10.1614C20 9.86986 19.8571 9.65122 19.6429 9.50547Z"
        fill="#FF9500" />
</svg>