<svg width="16" height="20" viewBox="0 0 16 20" fill="none" xmlns="http://www.w3.org/2000/svg">
<path d="M8.0013 19.0978H7.77214C7.69575 19.0978 7.627 19.0825 7.56589 19.052C5.5645 18.4256 3.9145 17.1841 2.61589 15.3275C1.31727 13.4716 0.667969 11.4207 0.667969 9.17487V4.84362C0.667969 4.46168 0.778885 4.11793 1.00072 3.81237C1.22194 3.50681 1.50825 3.28529 1.85964 3.14779L7.35964 1.08529C7.57352 1.0089 7.78741 0.970703 8.0013 0.970703C8.21519 0.970703 8.42908 1.0089 8.64297 1.08529L14.143 3.14779C14.4944 3.28529 14.781 3.50681 15.0028 3.81237C15.224 4.11793 15.3346 4.46168 15.3346 4.84362V9.17487C15.3346 11.4207 14.6853 13.4716 13.3867 15.3275C12.0881 17.1841 10.4381 18.4256 8.43672 19.052C8.36033 19.0825 8.21519 19.0978 8.0013 19.0978Z" fill="#004073"/>
</svg>
