<svg xmlns="http://www.w3.org/2000/svg" width="24" height="25" fill="none">
  <path fill="#006796" d="M7 12.24h10c.28 0 .52-.1.71-.29.2-.19.29-.43.29-.7 0-.3-.1-.53-.29-.72a.97.97 0 0 0-.71-.29H7c-.28 0-.52.1-.71.29-.2.19-.29.43-.29.71 0 .28.1.52.29.71.19.2.43.3.71.3Zm0 4h6c.28 0 .52-.1.71-.29.2-.19.29-.43.29-.7 0-.3-.1-.53-.29-.72a.97.97 0 0 0-.71-.29H7c-.28 0-.52.1-.71.29-.2.19-.29.43-.29.71 0 .28.1.52.29.71.19.2.43.3.71.3Zm-3 4c-.55 0-1.02-.2-1.41-.59-.4-.39-.59-.86-.59-1.4v-12c0-.56.2-1.03.59-1.42.39-.4.86-.59 1.41-.59h5.18a1.98 1.98 0 0 1 1.4.58L12 6.24h8c.55 0 1.02.2 1.41.59.4.4.59.86.59 1.41v10c0 .55-.2 1.02-.59 1.41-.39.4-.86.6-1.41.6H4Z"/>
</svg>
