<svg width="28" height="28" viewBox="0 0 28 28" fill="none" xmlns="http://www.w3.org/2000/svg">
    <g clip-path="url(#clip0_14_5953)">
        <path fill-rule="evenodd" clip-rule="evenodd"
            d="M14.0001 0C21.7321 0 28.0001 6.26801 28.0001 14.0001C28.0001 21.7321 21.7321 28.0001 14.0001 28.0001C6.26801 28.0001 0 21.7321 0 14.0001C0 6.26801 6.26801 0 14.0001 0ZM21.6014 9.28529C21.0425 9.53524 20.4404 9.70134 19.8116 9.77546C20.4559 9.38964 20.9484 8.77833 21.1836 8.05049C20.5816 8.40659 19.9124 8.66773 19.2034 8.8074C18.6333 8.20169 17.8236 7.82511 16.9266 7.82511C15.2042 7.82511 13.8098 9.22032 13.8098 10.9416C13.8098 11.1846 13.8368 11.4223 13.8896 11.6514C11.298 11.52 9.00044 10.2795 7.46249 8.39168C7.18655 8.8676 7.04063 9.40882 7.04063 9.95919V9.95952C7.04063 11.0403 7.58933 11.9962 8.4266 12.5536C7.91567 12.5386 7.4351 12.3961 7.01309 12.1651V12.204C7.01309 13.7155 8.08736 14.9766 9.51489 15.2616C9.25334 15.3326 8.97729 15.3719 8.69285 15.3719C8.49141 15.3719 8.29731 15.3512 8.10425 15.3161C8.50294 16.5539 9.65391 17.4562 11.0168 17.4825C9.94815 18.3197 8.60596 18.8183 7.14269 18.8183C6.89019 18.8183 6.64415 18.8028 6.39845 18.7734C7.7816 19.6609 9.42011 20.1749 11.1804 20.1749C16.9152 20.1749 20.0538 15.4224 20.0538 11.3018C20.0538 11.1648 20.0508 11.0322 20.0451 10.8981C20.6542 10.4624 21.1823 9.91249 21.6003 9.28653L21.6018 9.28513L21.6014 9.28529Z"
            fill="#006796" />
    </g>
    <defs>
        <clipPath id="clip0_14_5953">
            <rect width="28" height="28" fill="white" />
        </clipPath>
    </defs>
</svg>