<svg width="18" height="18" viewBox="0 0 18 18" fill="none" xmlns="http://www.w3.org/2000/svg">
<path d="M9 9.91667C9.88611 9.91667 10.6424 9.60347 11.2688 8.97708C11.8951 8.3507 12.2083 7.59444 12.2083 6.70833C12.2083 5.82222 11.8951 5.06597 11.2688 4.43958C10.6424 3.81319 9.88611 3.5 9 3.5C8.11389 3.5 7.35764 3.81319 6.73125 4.43958C6.10486 5.06597 5.79167 5.82222 5.79167 6.70833C5.79167 7.59444 6.10486 8.3507 6.73125 8.97708C7.35764 9.60347 8.11389 9.91667 9 9.91667ZM2.58333 17.25C2.07917 17.25 1.64742 17.0706 1.28808 16.7119C0.929361 16.3526 0.75 15.9208 0.75 15.4167V2.58333C0.75 2.07917 0.929361 1.64742 1.28808 1.28808C1.64742 0.929361 2.07917 0.75 2.58333 0.75H15.4167C15.9208 0.75 16.3526 0.929361 16.7119 1.28808C17.0706 1.64742 17.25 2.07917 17.25 2.58333V15.4167C17.25 15.9208 17.0706 16.3526 16.7119 16.7119C16.3526 17.0706 15.9208 17.25 15.4167 17.25H2.58333ZM2.58333 15.4167H15.4167V14.3625C14.5917 13.5528 13.6331 12.9148 12.5411 12.4485C11.4484 11.9828 10.2681 11.75 9 11.75C7.73194 11.75 6.55189 11.9828 5.45983 12.4485C4.36717 12.9148 3.40833 13.5528 2.58333 14.3625V15.4167Z" fill="white"/>
</svg>
