<svg width="20" height="16" viewBox="0 0 20 16" fill="none" xmlns="http://www.w3.org/2000/svg">
<path d="M14.584 10.7498C13.9423 10.7498 13.4 10.5283 12.9569 10.0853C12.5138 9.6422 12.2923 9.09984 12.2923 8.45817C12.2923 7.8165 12.5138 7.27414 12.9569 6.83109C13.4 6.38803 13.9423 6.1665 14.584 6.1665C15.2257 6.1665 15.768 6.38803 16.2111 6.83109C16.6541 7.27414 16.8757 7.8165 16.8757 8.45817C16.8757 9.09984 16.6541 9.6422 16.2111 10.0853C15.768 10.5283 15.2257 10.7498 14.584 10.7498ZM10.9173 15.3332C10.6576 15.3332 10.4399 15.2453 10.2642 15.0696C10.0885 14.8939 10.0007 14.6762 10.0007 14.4165V14.0498C10.0007 13.6832 10.0961 13.3432 10.2871 13.03C10.4781 12.7169 10.7493 12.4915 11.1007 12.354C11.6507 12.1248 12.2197 11.953 12.8079 11.8384C13.3961 11.7238 13.9882 11.6665 14.584 11.6665C15.1798 11.6665 15.7718 11.7238 16.36 11.8384C16.9482 11.953 17.5173 12.1248 18.0673 12.354C18.4187 12.4915 18.6899 12.7169 18.8809 13.03C19.0718 13.3432 19.1673 13.6832 19.1673 14.0498V14.4165C19.1673 14.6762 19.0795 14.8939 18.9038 15.0696C18.7281 15.2453 18.5104 15.3332 18.2507 15.3332H10.9173ZM8.16732 7.99984C7.15898 7.99984 6.29579 7.64081 5.57773 6.92275C4.85968 6.2047 4.50065 5.3415 4.50065 4.33317C4.50065 3.32484 4.85968 2.46164 5.57773 1.74359C6.29579 1.02553 7.15898 0.666504 8.16732 0.666504C9.17565 0.666504 10.0388 1.02553 10.7569 1.74359C11.475 2.46164 11.834 3.32484 11.834 4.33317C11.834 5.3415 11.475 6.2047 10.7569 6.92275C10.0388 7.64081 9.17565 7.99984 8.16732 7.99984ZM1.75065 15.3332C1.49093 15.3332 1.27322 15.2453 1.09753 15.0696C0.921832 14.8939 0.833984 14.6762 0.833984 14.4165V12.5832C0.833984 12.1859 0.971484 11.7925 1.24648 11.403C1.52148 11.0134 1.92635 10.6734 2.46107 10.3832C3.28607 9.94012 4.18746 9.58491 5.16523 9.31755C6.14301 9.05018 7.14371 8.9165 8.16732 8.9165C8.57982 8.9165 9.01905 8.94706 9.48503 9.00817C9.951 9.06928 10.4284 9.16095 10.9173 9.28317V10.4748C10.7034 10.5512 10.5201 10.6276 10.3673 10.704C10.2145 10.7804 10.0541 10.8644 9.88607 10.9561C9.32079 11.2769 8.89301 11.6971 8.60274 12.2165C8.31246 12.7359 8.16732 13.1637 8.16732 13.4998V15.3332H1.75065Z" fill="white"/>
</svg>
