<svg width="20" height="20" viewBox="0 0 20 20" fill="none" xmlns="http://www.w3.org/2000/svg">
<path d="M11.3064 18.6625C11.123 18.8458 10.9205 18.9794 10.6986 19.0631C10.4774 19.1474 10.2446 19.1896 10.0001 19.1896C9.75568 19.1896 9.52285 19.1474 9.30163 19.0631C9.0798 18.9794 8.87721 18.8458 8.69388 18.6625L1.33763 11.3063C1.1543 11.1229 1.02046 10.9203 0.93613 10.6985C0.852408 10.4773 0.810547 10.2445 0.810547 10C0.810547 9.75556 0.852408 9.52273 0.93613 9.30151C1.02046 9.07967 1.1543 8.87709 1.33763 8.69376L8.69388 1.33751C8.87721 1.15417 9.0798 1.02034 9.30163 0.936008C9.52285 0.852286 9.75568 0.810425 10.0001 0.810425C10.2446 0.810425 10.4774 0.852286 10.6986 0.936008C10.9205 1.02034 11.123 1.15417 11.3064 1.33751L18.6626 8.69376C18.846 8.87709 18.9798 9.07967 19.0641 9.30151C19.1479 9.52273 19.1897 9.75556 19.1897 10C19.1897 10.2445 19.1479 10.4773 19.0641 10.6985C18.9798 10.9203 18.846 11.1229 18.6626 11.3063L11.3064 18.6625ZM10.0001 10.9167C10.2599 10.9167 10.4777 10.8287 10.6537 10.6527C10.8291 10.4773 10.9168 10.2597 10.9168 10V6.33334C10.9168 6.07362 10.8291 5.85576 10.6537 5.67976C10.4777 5.50437 10.2599 5.41667 10.0001 5.41667C9.74041 5.41667 9.52285 5.50437 9.34746 5.67976C9.17146 5.85576 9.08346 6.07362 9.08346 6.33334V10C9.08346 10.2597 9.17146 10.4773 9.34746 10.6527C9.52285 10.8287 9.74041 10.9167 10.0001 10.9167ZM10.0001 13.6667C10.2599 13.6667 10.4777 13.5787 10.6537 13.4027C10.8291 13.2273 10.9168 13.0097 10.9168 12.75C10.9168 12.4903 10.8291 12.2724 10.6537 12.0964C10.4777 11.921 10.2599 11.8333 10.0001 11.8333C9.74041 11.8333 9.52285 11.921 9.34746 12.0964C9.17146 12.2724 9.08346 12.4903 9.08346 12.75C9.08346 13.0097 9.17146 13.2273 9.34746 13.4027C9.52285 13.5787 9.74041 13.6667 10.0001 13.6667Z" fill="#FF9500"/>
</svg>
